<svg width="118" height="118" viewBox="0 0 118 118" fill="none" xmlns="http://www.w3.org/2000/svg">
<rect x="0.7375" y="0.7375" width="116.525" height="116.525" rx="58.2625" fill="#FFF0F0"/>
<rect x="0.7375" y="0.7375" width="116.525" height="116.525" rx="58.2625" stroke="#FFD3D3" stroke-width="1.475"/>
<g clip-path="url(#clip0_1017_3606)">
<path d="M30.147 72.9891L51.1088 36.749L51.1919 36.6172C52.0631 35.1982 53.2389 33.9906 54.6342 33.082C55.9564 32.234 57.4921 31.7785 59.0629 31.7686C60.6415 31.7666 62.1868 32.2229 63.5111 33.082C64.9009 33.9936 66.0688 35.2049 66.9291 36.6269C66.9909 36.7311 67.0495 36.8336 67.1049 36.9346L87.7249 72.7449L87.8421 72.9598C88.6137 74.5042 89.0102 76.2089 88.9993 77.9353C88.9892 79.3612 88.6251 80.7622 87.9397 82.0125C87.1685 83.4079 85.9873 84.5328 84.556 85.2351C84.4632 85.2839 84.3655 85.323 84.2728 85.3621C82.8713 85.9719 81.3522 86.2638 79.8245 86.2166H37.5982C37.4908 86.2166 37.3833 86.2166 37.2808 86.2166C36.2466 86.2083 35.2219 86.0182 34.2535 85.655C32.7135 85.0717 31.3906 84.0283 30.4644 82.6668C29.5315 81.285 29.0224 79.661 28.9996 77.9939C28.9755 76.5351 29.2359 75.0856 29.7662 73.7264C29.8638 73.4675 29.9899 73.2202 30.1422 72.9891H30.147Z" fill="#FB676C"/>
<g filter="url(#filter0_d_1017_3606)">
<path fill-rule="evenodd" clip-rule="evenodd" d="M33.5347 75.5371L54.4747 38.1372C57.0193 34.0006 61.05 33.8953 63.6383 38.1372L84.2432 75.0858C85.8895 78.5004 85.0736 83.1083 79.7124 82.993H37.7159C34.1903 83.0832 31.9176 79.8893 33.5347 75.5371Z" fill="#FF9C9F"/>
</g>
<path d="M56.806 73.1143C57.3253 72.6546 58.0088 72.3729 58.7369 72.3186C59.1966 72.29 59.6578 72.3519 60.0879 72.4999C60.5106 72.6447 60.8943 72.8678 61.2138 73.1546C61.5781 73.4784 61.8478 73.8775 61.999 74.3166C62.1502 74.7558 62.1782 75.2214 62.0807 75.6725C62.031 75.9064 61.9517 76.1345 61.8443 76.3524C61.589 76.854 61.1741 77.2773 60.6515 77.5693C60.1289 77.8612 59.5217 78.009 58.9057 77.9941C58.4638 77.9845 58.0288 77.8937 57.6279 77.7272C56.9216 77.426 56.3686 76.8972 56.0798 76.2466C55.9821 76.042 55.9139 75.8271 55.8772 75.6071C55.8382 75.389 55.8269 75.1677 55.8434 74.9474C55.8895 74.5985 55.9978 74.2584 56.1643 73.9402C56.315 73.6414 56.5336 73.3739 56.806 73.1546V73.1143ZM61.3939 67.9575C61.287 70.3697 56.7159 70.3748 56.6146 67.9575C56.153 63.8231 54.9708 53.1822 55.0046 49.2995C55.044 48.101 56.1305 47.3909 57.5716 47.119C58.5007 46.9538 59.4571 46.9538 60.3863 47.119C61.8555 47.401 63.0039 48.1261 63.0039 49.3549V49.4758L61.3939 67.9575Z" fill="white"/>
</g>
<defs>
<filter id="filter0_d_1017_3606" x="29.0039" y="34.9951" width="60" height="56" filterUnits="userSpaceOnUse" color-interpolation-filters="sRGB">
<feFlood flood-opacity="0" result="BackgroundImageFix"/>
<feColorMatrix in="SourceAlpha" type="matrix" values="0 0 0 0 0 0 0 0 0 0 0 0 0 0 0 0 0 0 127 0" result="hardAlpha"/>
<feOffset dy="4"/>
<feGaussianBlur stdDeviation="2"/>
<feComposite in2="hardAlpha" operator="out"/>
<feColorMatrix type="matrix" values="0 0 0 0 0.3479 0 0 0 0 0.0308647 0 0 0 0 0.0308647 0 0 0 0.25 0"/>
<feBlend mode="normal" in2="BackgroundImageFix" result="effect1_dropShadow_1017_3606"/>
<feBlend mode="normal" in="SourceGraphic" in2="effect1_dropShadow_1017_3606" result="shape"/>
</filter>
<clipPath id="clip0_1017_3606">
<rect width="59.9997" height="54.4626" fill="white" transform="translate(29 31.7686)"/>
</clipPath>
</defs>
</svg>
