<svg width="538" height="154" viewBox="0 0 538 154" fill="none" xmlns="http://www.w3.org/2000/svg">
<g clip-path="url(#clip0_114_851)">
<rect width="538" height="203" rx="8" fill="#E9E9E9"/>
<rect x="24.5" y="32.5" width="260" height="143" rx="19.5" fill="white"/>
<rect x="24.5" y="32.5" width="260" height="143" rx="19.5" stroke="url(#paint0_linear_114_851)"/>
<rect x="30.4644" y="37.4644" width="248.071" height="133.071" rx="17.1156" fill="#F8F8F8"/>
<rect x="30.4644" y="37.4644" width="248.071" height="133.071" rx="17.1156" stroke="#F6F6F6" stroke-width="0.928761"/>
<rect x="35.4321" y="44.4321" width="238.136" height="119.136" rx="9.92788" fill="white"/>
<rect x="35.4321" y="44.4321" width="238.136" height="119.136" rx="9.92788" stroke="#F4F4F4" stroke-width="0.864231"/>
<g clip-path="url(#clip1_114_851)">
<path d="M56.3159 54.9867C56.4022 54.9869 56.4884 54.987 56.5747 54.9871C57.4113 54.9886 58.2374 55.0054 59.0672 55.1218C59.1211 55.1291 59.1749 55.1363 59.2288 55.1436C61.2866 55.4244 62.9105 55.9179 64.4407 57.3607C64.4726 57.3904 64.5045 57.4201 64.5374 57.4507C66.3509 59.193 66.7724 61.8513 66.8469 64.2602C66.8491 64.4057 66.8503 64.5512 66.8508 64.6967C66.8511 64.7501 66.8513 64.8035 66.8516 64.8585C66.8524 65.0299 66.8526 65.2013 66.8527 65.3727C66.8527 65.4019 66.8527 65.4311 66.8527 65.4612C66.853 66.3356 66.8419 67.1994 66.7204 68.0671C66.7131 68.1212 66.7058 68.1753 66.6986 68.2294C66.5331 69.4475 66.3353 70.6818 65.7434 71.7716C65.7212 71.8133 65.6991 71.8551 65.6763 71.8981C65.372 72.4474 64.9719 72.9341 64.5363 73.3838C64.4868 73.435 64.438 73.487 64.3893 73.539C62.6521 75.3533 59.9859 75.7725 57.5819 75.8468C57.4364 75.849 57.291 75.8502 57.1454 75.8507C57.092 75.851 57.0386 75.8512 56.9836 75.8515C56.8122 75.8523 56.6408 75.8525 56.4695 75.8526C56.4403 75.8526 56.4111 75.8526 56.381 75.8526C55.5065 75.8529 54.6429 75.8414 53.7751 75.7203C53.7224 75.7133 53.6697 75.7063 53.6154 75.6991C51.2861 75.3878 49.2368 74.694 47.7485 72.7636C46.3445 70.8988 45.9991 68.461 45.9915 66.1708C45.9913 66.1433 45.9912 66.1157 45.9911 66.0874C45.9905 65.941 45.9901 65.7945 45.99 65.6481C45.9898 65.5303 45.9892 65.4126 45.9883 65.2948C45.98 64.2259 46.0411 63.1696 46.216 62.1135C46.2245 62.0606 46.2331 62.0078 46.2418 61.9534C46.541 60.1313 47.0859 58.7536 48.3608 57.4014C48.3905 57.3695 48.4202 57.3376 48.4508 57.3048C49.3863 56.331 50.5903 55.7266 51.8974 55.4449C51.9284 55.4381 51.9594 55.4313 51.9914 55.4243C52.4638 55.3212 52.9377 55.2363 53.4163 55.1676C53.4435 55.1636 53.4707 55.1596 53.4987 55.1555C54.4347 55.0212 55.3712 54.9841 56.3159 54.9867Z" fill="url(#paint1_linear_114_851)"/>
<path d="M56.4189 58.5315C56.4478 58.5318 56.4766 58.5322 56.5064 58.5326C56.9594 58.5426 57.4008 58.6926 57.7241 59.0261C57.7634 59.0693 57.8022 59.113 57.8405 59.157C57.8599 59.1793 57.8793 59.2016 57.8993 59.2245C57.9391 59.2704 57.9789 59.3163 58.0187 59.3623C58.4346 59.8341 58.4346 59.8341 59.0212 60.007C59.1903 60.0039 59.3571 59.9936 59.5253 59.9759C60.0755 59.9296 60.6339 60.1002 61.0559 60.4549C61.4996 60.8665 61.7799 61.3167 61.8764 61.9204C61.879 62.0512 61.8762 62.1807 61.8714 62.3113C61.8342 62.9098 61.8342 62.9098 62.0558 63.4456C62.2103 63.6112 62.3837 63.7446 62.5685 63.8745C62.9545 64.1755 63.251 64.6081 63.3419 65.0957C63.3834 65.6457 63.2795 66.1858 62.9331 66.6263C62.7941 66.7848 62.6491 66.9322 62.4896 67.0701C62.465 67.0914 62.4405 67.1127 62.4152 67.1346C62.3514 67.1893 62.2863 67.2424 62.2204 67.2944C62.058 67.4348 61.9358 67.5456 61.8823 67.758C61.8723 67.9134 61.873 68.0645 61.879 68.2201C61.8927 68.9925 61.7797 69.6444 61.2378 70.2211C60.9347 70.5269 60.5119 70.7568 60.0852 70.8356C60.0136 70.8331 59.9419 70.8304 59.8704 70.8256C59.0798 70.771 59.0798 70.771 58.3805 71.0817C58.1877 71.2564 58.0202 71.4488 57.8547 71.6491C57.8357 71.6721 57.8166 71.6952 57.797 71.719C57.7783 71.7417 57.7597 71.7644 57.7404 71.7878C57.4681 72.1039 57.0397 72.3033 56.625 72.3418C56.1253 72.3786 55.6938 72.2657 55.2816 71.9755C55.2025 71.8926 55.129 71.811 55.0565 71.7229C54.5241 71.0774 54.5241 71.0774 53.7542 70.8236C53.511 70.8095 53.2677 70.8159 53.0246 70.8285C52.5083 70.8541 52.0663 70.6404 51.6866 70.2988C51.2891 69.9241 51.0489 69.4635 50.9665 68.9223C50.9725 68.8329 50.9809 68.7437 50.9909 68.6547C51.0441 67.9801 51.0441 67.9801 50.7625 67.3882C50.5447 67.1494 50.2993 66.9439 50.0521 66.7366C49.6985 66.4284 49.5352 65.9619 49.5029 65.502C49.4938 64.9202 49.7404 64.4219 50.1392 64.009C50.1704 63.978 50.2016 63.9471 50.2338 63.9152C50.2646 63.8834 50.2954 63.8516 50.3271 63.8188C50.4967 63.6454 50.6693 63.4867 50.8635 63.3411C51.0648 63.0915 50.9795 62.5712 50.984 62.2696C51.0007 61.6257 51.1721 61.1036 51.6382 60.6483C51.6669 60.6201 51.6955 60.5919 51.725 60.5629C52.0812 60.225 52.4697 60.053 52.9612 60.0071C53.0551 60.0123 53.1489 60.0197 53.2424 60.0289C53.688 60.0656 54.0975 60.098 54.4576 59.7969C54.6591 59.6121 54.8389 59.4109 55.0162 59.2032C55.0471 59.167 55.0471 59.167 55.0786 59.1302C55.0988 59.1064 55.119 59.0827 55.1398 59.0583C55.4657 58.689 55.9324 58.5245 56.4189 58.5315Z" fill="url(#paint2_linear_114_851)"/>
<path d="M59.6782 62.9788C59.9139 63.1328 60.0415 63.3239 60.126 63.5894C60.169 63.9014 60.1574 64.1873 59.9632 64.4443C59.8973 64.5176 59.8292 64.5859 59.757 64.653C59.6822 64.7254 59.6152 64.8001 59.548 64.8793C59.3624 65.0934 59.1604 65.2898 58.9584 65.4882C58.7933 65.6515 58.6368 65.8185 58.4854 65.9945C58.3732 66.1214 58.2523 66.2391 58.1313 66.3576C57.9598 66.5271 57.7945 66.6976 57.6388 66.8819C57.5074 67.0283 57.3657 67.1646 57.2258 67.3029C57.1093 67.4187 56.996 67.5348 56.8897 67.6602C56.1868 68.4786 56.1868 68.4786 55.732 68.5282C55.4332 68.5394 55.1768 68.5066 54.9397 68.3133C54.8288 68.2085 54.7215 68.101 54.6149 67.9918C54.5751 67.9516 54.5351 67.9115 54.4952 67.8714C54.3905 67.7662 54.2864 67.6604 54.1825 67.5544C54.0982 67.4687 54.0134 67.3834 53.9286 67.2981C52.7157 66.0779 52.7157 66.0779 52.7043 65.5739C52.7079 65.285 52.7559 65.1066 52.9532 64.8948C53.2267 64.6393 53.4717 64.5545 53.8424 64.5422C54.2849 64.6205 54.566 64.9232 54.8644 65.233C54.9056 65.2748 54.9468 65.3166 54.988 65.3583C55.1889 65.5626 55.3838 65.7704 55.5667 65.9912C55.7763 65.8178 55.9631 65.6344 56.1468 65.434C56.33 65.2361 56.5146 65.0409 56.7065 64.8514C56.825 64.7343 56.9395 64.6169 57.0474 64.4901C57.1771 64.3378 57.3175 64.1981 57.4596 64.0575C57.6009 63.9179 57.7405 63.7791 57.8692 63.6276C58.3608 63.0554 58.9026 62.5188 59.6782 62.9788Z" fill="url(#paint3_linear_114_851)"/>
</g>
<path d="M77.8268 68.0494C76.9948 68.0494 76.3148 67.7721 75.7868 67.2174C75.2641 66.6574 75.0028 65.9454 75.0028 65.0814C75.0028 64.2174 75.2614 63.5027 75.7788 62.9374C76.2961 62.3721 76.9761 62.0894 77.8188 62.0894C78.4694 62.0894 79.0134 62.2574 79.4508 62.5934C79.9468 62.9667 80.2321 63.4921 80.3068 64.1694H78.8908C78.8534 63.9081 78.7388 63.6921 78.5468 63.5214C78.3548 63.3507 78.1094 63.2654 77.8108 63.2654C77.3628 63.2654 77.0214 63.4334 76.7868 63.7694C76.5574 64.1001 76.4428 64.5374 76.4428 65.0814C76.4428 65.6147 76.5681 66.0494 76.8188 66.3854C77.0694 66.7214 77.4028 66.8894 77.8188 66.8894C78.1281 66.8894 78.3814 66.8014 78.5788 66.6254C78.7814 66.4494 78.8988 66.2201 78.9308 65.9374H80.3468C80.3041 66.5134 80.0748 67.0014 79.6588 67.4014C79.2108 67.8334 78.6001 68.0494 77.8268 68.0494ZM82.2101 66.7854C82.3594 67.0094 82.5728 67.1214 82.8501 67.1214C83.1274 67.1214 83.3408 67.0094 83.4901 66.7854C83.6448 66.5614 83.7221 66.2601 83.7221 65.8814C83.7221 65.5027 83.6448 65.2014 83.4901 64.9774C83.3408 64.7481 83.1274 64.6334 82.8501 64.6334C82.5728 64.6334 82.3594 64.7454 82.2101 64.9694C82.0608 65.1934 81.9861 65.4974 81.9861 65.8814C81.9861 66.2601 82.0608 66.5614 82.2101 66.7854ZM84.4341 67.4334C84.0341 67.8441 83.5088 68.0494 82.8581 68.0494C82.2074 68.0494 81.6794 67.8441 81.2741 67.4334C80.8688 67.0227 80.6661 66.5054 80.6661 65.8814C80.6661 65.2574 80.8688 64.7401 81.2741 64.3294C81.6794 63.9187 82.2074 63.7134 82.8581 63.7134C83.5088 63.7134 84.0341 63.9187 84.4341 64.3294C84.8394 64.7401 85.0421 65.2574 85.0421 65.8814C85.0421 66.5054 84.8394 67.0227 84.4341 67.4334ZM85.4829 67.9214V63.8254H86.7389V64.3854H86.7629C87.0776 63.9321 87.4989 63.7054 88.0269 63.7054C88.4696 63.7054 88.8162 63.8494 89.0669 64.1374C89.3229 64.4201 89.4509 64.7934 89.4509 65.2574V67.9214H88.1469V65.5214C88.1469 65.2974 88.0909 65.1214 87.9789 64.9934C87.8722 64.8601 87.7149 64.7934 87.5069 64.7934C87.2936 64.7934 87.1202 64.8734 86.9869 65.0334C86.8536 65.1934 86.7869 65.4014 86.7869 65.6574V67.9214H85.4829ZM91.9494 69.3374C91.3787 69.3374 90.9174 69.2227 90.5654 68.9934C90.2187 68.7694 90.0134 68.4441 89.9494 68.0174H91.2134C91.3041 68.2841 91.5441 68.4174 91.9334 68.4174C92.4561 68.4174 92.7174 68.1561 92.7174 67.6334V67.2254H92.6854C92.4081 67.5401 92.0587 67.6974 91.6374 67.6974C91.1467 67.6974 90.7281 67.5241 90.3814 67.1774C90.0347 66.8307 89.8614 66.3561 89.8614 65.7534C89.8614 65.1507 90.0214 64.6601 90.3414 64.2814C90.6614 63.8974 91.0747 63.7054 91.5814 63.7054C92.0881 63.7054 92.4721 63.8921 92.7334 64.2654H92.7494V63.8254H93.9974V67.5214C93.9974 68.1027 93.8161 68.5561 93.4534 68.8814C93.1121 69.1854 92.6107 69.3374 91.9494 69.3374ZM91.9414 66.7294C92.2134 66.7294 92.4187 66.6361 92.5574 66.4494C92.7014 66.2574 92.7734 66.0094 92.7734 65.7054C92.7734 65.4174 92.6987 65.1774 92.5494 64.9854C92.4054 64.7881 92.2027 64.6894 91.9414 64.6894C91.6961 64.6894 91.4987 64.7827 91.3494 64.9694C91.2054 65.1561 91.1334 65.4041 91.1334 65.7134C91.1334 66.0227 91.2054 66.2707 91.3494 66.4574C91.4987 66.6387 91.6961 66.7294 91.9414 66.7294ZM94.6235 67.9214V63.8254H95.8715V64.4654H95.8955C96.1729 63.9961 96.5462 63.7614 97.0155 63.7614C97.1382 63.7614 97.2235 63.7721 97.2715 63.7934V64.9134H97.2395C96.8342 64.8547 96.5142 64.9267 96.2795 65.1294C96.0449 65.3267 95.9275 65.6441 95.9275 66.0814V67.9214H94.6235ZM98.7768 68.0254C98.3555 68.0254 98.0168 67.9161 97.7608 67.6974C97.5048 67.4787 97.3768 67.1721 97.3768 66.7774C97.3768 66.3614 97.5155 66.0601 97.7928 65.8734C98.0702 65.6814 98.4542 65.5534 98.9448 65.4894C99.3448 65.4414 99.6168 65.3881 99.7608 65.3294C99.9102 65.2654 99.9848 65.1667 99.9848 65.0334C99.9848 64.7401 99.7982 64.5934 99.4248 64.5934C99.0248 64.5934 98.8035 64.7694 98.7608 65.1214H97.5608C97.5768 64.7161 97.7422 64.3801 98.0568 64.1134C98.3768 63.8467 98.8302 63.7134 99.4168 63.7134C100.004 63.7134 100.446 63.8254 100.745 64.0494C101.092 64.3001 101.265 64.6894 101.265 65.2174V67.2814C101.265 67.6067 101.313 67.8014 101.409 67.8654V67.9214H100.145C100.092 67.8467 100.046 67.6947 100.009 67.4654H99.9928C99.7315 67.8387 99.3262 68.0254 98.7768 68.0254ZM99.1928 67.1934C99.4382 67.1934 99.6355 67.1267 99.7848 66.9934C99.9395 66.8547 100.017 66.6761 100.017 66.4574V65.9694C99.8888 66.0334 99.6648 66.1054 99.3448 66.1854C99.0835 66.2441 98.8995 66.3134 98.7928 66.3934C98.6862 66.4734 98.6328 66.5881 98.6328 66.7374C98.6328 67.0414 98.8195 67.1934 99.1928 67.1934ZM103.443 67.9694C103.027 67.9694 102.704 67.8867 102.475 67.7214C102.251 67.5507 102.139 67.2574 102.139 66.8414V64.6414H101.595V63.8254H102.139V62.5294H103.411V63.8254H104.155V64.6414H103.411V66.5614C103.411 66.7107 103.448 66.8147 103.523 66.8734C103.603 66.9321 103.718 66.9614 103.867 66.9614C103.91 66.9614 103.966 66.9614 104.035 66.9614C104.104 66.9561 104.144 66.9534 104.155 66.9534V67.9054C104.006 67.9481 103.768 67.9694 103.443 67.9694ZM106.032 68.0414C105.568 68.0414 105.21 67.9054 104.96 67.6334C104.714 67.3561 104.592 66.9827 104.592 66.5134V63.8254H105.888V66.2414C105.888 66.7054 106.093 66.9374 106.504 66.9374C106.728 66.9374 106.904 66.8627 107.032 66.7134C107.16 66.5587 107.224 66.3587 107.224 66.1134V63.8254H108.528V67.9214H107.28V67.4174H107.256C106.946 67.8334 106.538 68.0414 106.032 68.0414ZM109.163 67.9214V62.2014H110.483V67.9214H109.163ZM112.324 68.0254C111.902 68.0254 111.564 67.9161 111.308 67.6974C111.052 67.4787 110.924 67.1721 110.924 66.7774C110.924 66.3614 111.062 66.0601 111.34 65.8734C111.617 65.6814 112.001 65.5534 112.492 65.4894C112.892 65.4414 113.164 65.3881 113.308 65.3294C113.457 65.2654 113.532 65.1667 113.532 65.0334C113.532 64.7401 113.345 64.5934 112.972 64.5934C112.572 64.5934 112.35 64.7694 112.308 65.1214H111.108C111.124 64.7161 111.289 64.3801 111.604 64.1134C111.924 63.8467 112.377 63.7134 112.964 63.7134C113.55 63.7134 113.993 63.8254 114.292 64.0494C114.638 64.3001 114.812 64.6894 114.812 65.2174V67.2814C114.812 67.6067 114.86 67.8014 114.956 67.8654V67.9214H113.692C113.638 67.8467 113.593 67.6947 113.556 67.4654H113.54C113.278 67.8387 112.873 68.0254 112.324 68.0254ZM112.74 67.1934C112.985 67.1934 113.182 67.1267 113.332 66.9934C113.486 66.8547 113.564 66.6761 113.564 66.4574V65.9694C113.436 66.0334 113.212 66.1054 112.892 66.1854C112.63 66.2441 112.446 66.3134 112.34 66.3934C112.233 66.4734 112.18 66.5881 112.18 66.7374C112.18 67.0414 112.366 67.1934 112.74 67.1934ZM116.99 67.9694C116.574 67.9694 116.251 67.8867 116.022 67.7214C115.798 67.5507 115.686 67.2574 115.686 66.8414V64.6414H115.142V63.8254H115.686V62.5294H116.958V63.8254H117.702V64.6414H116.958V66.5614C116.958 66.7107 116.995 66.8147 117.07 66.8734C117.15 66.9321 117.264 66.9614 117.414 66.9614C117.456 66.9614 117.512 66.9614 117.582 66.9614C117.651 66.9561 117.691 66.9534 117.702 66.9534V67.9054C117.552 67.9481 117.315 67.9694 116.99 67.9694ZM118.17 67.9214V63.8254H119.474V67.9214H118.17ZM118.17 63.2574V62.2014H119.474V63.2574H118.17ZM121.46 66.7854C121.609 67.0094 121.823 67.1214 122.1 67.1214C122.377 67.1214 122.591 67.0094 122.74 66.7854C122.895 66.5614 122.972 66.2601 122.972 65.8814C122.972 65.5027 122.895 65.2014 122.74 64.9774C122.591 64.7481 122.377 64.6334 122.1 64.6334C121.823 64.6334 121.609 64.7454 121.46 64.9694C121.311 65.1934 121.236 65.4974 121.236 65.8814C121.236 66.2601 121.311 66.5614 121.46 66.7854ZM123.684 67.4334C123.284 67.8441 122.759 68.0494 122.108 68.0494C121.457 68.0494 120.929 67.8441 120.524 67.4334C120.119 67.0227 119.916 66.5054 119.916 65.8814C119.916 65.2574 120.119 64.7401 120.524 64.3294C120.929 63.9187 121.457 63.7134 122.108 63.7134C122.759 63.7134 123.284 63.9187 123.684 64.3294C124.089 64.7401 124.292 65.2574 124.292 65.8814C124.292 66.5054 124.089 67.0227 123.684 67.4334ZM124.733 67.9214V63.8254H125.989V64.3854H126.013C126.328 63.9321 126.749 63.7054 127.277 63.7054C127.72 63.7054 128.066 63.8494 128.317 64.1374C128.573 64.4201 128.701 64.7934 128.701 65.2574V67.9214H127.397V65.5214C127.397 65.2974 127.341 65.1214 127.229 64.9934C127.122 64.8601 126.965 64.7934 126.757 64.7934C126.544 64.7934 126.37 64.8734 126.237 65.0334C126.104 65.1934 126.037 65.4014 126.037 65.6574V67.9214H124.733ZM131.039 68.0494C130.442 68.0494 129.965 67.9214 129.607 67.6654C129.255 67.4041 129.069 67.0467 129.047 66.5934H130.279C130.327 66.9987 130.578 67.2014 131.031 67.2014C131.229 67.2014 131.383 67.1667 131.495 67.0974C131.613 67.0227 131.671 66.9214 131.671 66.7934C131.671 66.7507 131.666 66.7134 131.655 66.6814C131.645 66.6494 131.626 66.6201 131.599 66.5934C131.573 66.5667 131.546 66.5427 131.519 66.5214C131.498 66.5001 131.463 66.4814 131.415 66.4654C131.367 66.4441 131.325 66.4281 131.287 66.4174C131.255 66.4067 131.205 66.3961 131.135 66.3854C131.071 66.3694 131.021 66.3587 130.983 66.3534C130.946 66.3427 130.887 66.3321 130.807 66.3214C130.727 66.3054 130.669 66.2947 130.631 66.2894C130.461 66.2627 130.317 66.2361 130.199 66.2094C130.082 66.1774 129.951 66.1294 129.807 66.0654C129.669 66.0014 129.554 65.9294 129.463 65.8494C129.378 65.7641 129.306 65.6521 129.247 65.5134C129.189 65.3694 129.159 65.2041 129.159 65.0174C129.159 64.6014 129.327 64.2787 129.663 64.0494C129.999 63.8201 130.421 63.7054 130.927 63.7054C131.498 63.7054 131.941 63.8227 132.255 64.0574C132.57 64.2867 132.743 64.6067 132.775 65.0174H131.575C131.533 64.6974 131.314 64.5374 130.919 64.5374C130.749 64.5374 130.61 64.5694 130.503 64.6334C130.402 64.6974 130.351 64.7907 130.351 64.9134C130.351 64.9454 130.357 64.9747 130.367 65.0014C130.378 65.0281 130.394 65.0521 130.415 65.0734C130.442 65.0947 130.466 65.1134 130.487 65.1294C130.514 65.1454 130.549 65.1614 130.591 65.1774C130.634 65.1934 130.671 65.2067 130.703 65.2174C130.741 65.2281 130.789 65.2387 130.847 65.2494C130.911 65.2601 130.962 65.2707 130.999 65.2814C131.042 65.2867 131.098 65.2974 131.167 65.3134C131.237 65.3241 131.293 65.3321 131.335 65.3374C131.517 65.3694 131.666 65.3987 131.783 65.4254C131.901 65.4521 132.037 65.5001 132.191 65.5694C132.351 65.6334 132.477 65.7107 132.567 65.8014C132.658 65.8867 132.735 66.0067 132.799 66.1614C132.869 66.3107 132.903 66.4867 132.903 66.6894C132.903 67.1267 132.73 67.4627 132.383 67.6974C132.042 67.9321 131.594 68.0494 131.039 68.0494ZM133.735 66.0494L133.399 63.5534V62.2014H134.743V63.5534L134.407 66.0494H133.735ZM133.391 67.9214V66.5774H134.751V67.9214H133.391ZM136.758 67.9214V62.2014H141.094V63.3694H138.174V64.3934H140.678V65.4974H138.174V66.7214H141.142V67.9214H136.758ZM141.702 67.9214V63.8254H142.95V64.4654H142.974C143.251 63.9961 143.624 63.7614 144.094 63.7614C144.216 63.7614 144.302 63.7721 144.35 63.7934V64.9134H144.318C143.912 64.8547 143.592 64.9267 143.358 65.1294C143.123 65.3267 143.006 65.6441 143.006 66.0814V67.9214H141.702ZM144.764 67.9214V63.8254H146.012V64.4654H146.036C146.313 63.9961 146.687 63.7614 147.156 63.7614C147.279 63.7614 147.364 63.7721 147.412 63.7934V64.9134H147.38C146.975 64.8547 146.655 64.9267 146.42 65.1294C146.185 65.3267 146.068 65.6441 146.068 66.0814V67.9214H144.764ZM148.041 69.2734V68.2574H148.489C148.846 68.2574 149.025 68.1134 149.025 67.8254C149.025 67.6867 148.942 67.4041 148.777 66.9774L147.569 63.8254H148.945L149.497 65.5694L149.753 66.5134H149.769C149.843 66.1507 149.923 65.8361 150.009 65.5694L150.545 63.8254H151.849L150.433 67.9774C150.267 68.4574 150.07 68.7934 149.841 68.9854C149.617 69.1774 149.299 69.2734 148.889 69.2734H148.041ZM152.139 67.9214V63.8254H153.395V64.3854H153.419C153.734 63.9321 154.155 63.7054 154.683 63.7054C155.126 63.7054 155.472 63.8494 155.723 64.1374C155.979 64.4201 156.107 64.7934 156.107 65.2574V67.9214H154.803V65.5214C154.803 65.2974 154.747 65.1214 154.635 64.9934C154.528 64.8601 154.371 64.7934 154.163 64.7934C153.95 64.7934 153.776 64.8734 153.643 65.0334C153.51 65.1934 153.443 65.4014 153.443 65.6574V67.9214H152.139ZM158.702 68.0414C158.04 68.0414 157.51 67.8387 157.11 67.4334C156.715 67.0227 156.518 66.5001 156.518 65.8654C156.518 65.2467 156.712 64.7321 157.102 64.3214C157.496 63.9107 158.003 63.7054 158.622 63.7054C159.182 63.7054 159.648 63.8761 160.022 64.2174C160.512 64.6654 160.752 65.3294 160.742 66.2094H157.798C157.84 66.4921 157.939 66.7134 158.094 66.8734C158.248 67.0281 158.456 67.1054 158.718 67.1054C159.054 67.1054 159.28 66.9694 159.398 66.6974H160.67C160.574 67.0921 160.344 67.4147 159.982 67.6654C159.624 67.9161 159.198 68.0414 158.702 68.0414ZM157.806 65.4334H159.422C159.4 65.1881 159.318 64.9934 159.174 64.8494C159.035 64.7054 158.859 64.6334 158.646 64.6334C158.182 64.6334 157.902 64.9001 157.806 65.4334ZM162.42 67.9214V63.8254H163.724V67.9214H162.42ZM162.42 63.2574V62.2014H163.724V63.2574H162.42ZM166.094 68.0494C165.497 68.0494 165.019 67.9214 164.662 67.6654C164.31 67.4041 164.123 67.0467 164.102 66.5934H165.334C165.382 66.9987 165.633 67.2014 166.086 67.2014C166.283 67.2014 166.438 67.1667 166.55 67.0974C166.667 67.0227 166.726 66.9214 166.726 66.7934C166.726 66.7507 166.721 66.7134 166.71 66.6814C166.699 66.6494 166.681 66.6201 166.654 66.5934C166.627 66.5667 166.601 66.5427 166.574 66.5214C166.553 66.5001 166.518 66.4814 166.47 66.4654C166.422 66.4441 166.379 66.4281 166.342 66.4174C166.31 66.4067 166.259 66.3961 166.19 66.3854C166.126 66.3694 166.075 66.3587 166.038 66.3534C166.001 66.3427 165.942 66.3321 165.862 66.3214C165.782 66.3054 165.723 66.2947 165.686 66.2894C165.515 66.2627 165.371 66.2361 165.254 66.2094C165.137 66.1774 165.006 66.1294 164.862 66.0654C164.723 66.0014 164.609 65.9294 164.518 65.8494C164.433 65.7641 164.361 65.6521 164.302 65.5134C164.243 65.3694 164.214 65.2041 164.214 65.0174C164.214 64.6014 164.382 64.2787 164.718 64.0494C165.054 63.8201 165.475 63.7054 165.982 63.7054C166.553 63.7054 166.995 63.8227 167.31 64.0574C167.625 64.2867 167.798 64.6067 167.83 65.0174H166.63C166.587 64.6974 166.369 64.5374 165.974 64.5374C165.803 64.5374 165.665 64.5694 165.558 64.6334C165.457 64.6974 165.406 64.7907 165.406 64.9134C165.406 64.9454 165.411 64.9747 165.422 65.0014C165.433 65.0281 165.449 65.0521 165.47 65.0734C165.497 65.0947 165.521 65.1134 165.542 65.1294C165.569 65.1454 165.603 65.1614 165.646 65.1774C165.689 65.1934 165.726 65.2067 165.758 65.2174C165.795 65.2281 165.843 65.2387 165.902 65.2494C165.966 65.2601 166.017 65.2707 166.054 65.2814C166.097 65.2867 166.153 65.2974 166.222 65.3134C166.291 65.3241 166.347 65.3321 166.39 65.3374C166.571 65.3694 166.721 65.3987 166.838 65.4254C166.955 65.4521 167.091 65.5001 167.246 65.5694C167.406 65.6334 167.531 65.7107 167.622 65.8014C167.713 65.8867 167.79 66.0067 167.854 66.1614C167.923 66.3107 167.958 66.4867 167.958 66.6894C167.958 67.1267 167.785 67.4627 167.438 67.6974C167.097 67.9321 166.649 68.0494 166.094 68.0494ZM169.624 67.9214V63.8254H170.928V67.9214H169.624ZM169.624 63.2574V62.2014H170.928V63.2574H169.624ZM171.553 67.9214V63.8254H172.809V64.3854H172.833C173.148 63.9321 173.569 63.7054 174.097 63.7054C174.54 63.7054 174.887 63.8494 175.137 64.1374C175.393 64.4201 175.521 64.7934 175.521 65.2574V67.9214H174.217V65.5214C174.217 65.2974 174.161 65.1214 174.049 64.9934C173.943 64.8601 173.785 64.7934 173.577 64.7934C173.364 64.7934 173.191 64.8734 173.057 65.0334C172.924 65.1934 172.857 65.4014 172.857 65.6574V67.9214H171.553ZM177.662 67.9694C177.246 67.9694 176.923 67.8867 176.694 67.7214C176.47 67.5507 176.358 67.2574 176.358 66.8414V64.6414H175.814V63.8254H176.358V62.5294H177.63V63.8254H178.374V64.6414H177.63V66.5614C177.63 66.7107 177.667 66.8147 177.742 66.8734C177.822 66.9321 177.936 66.9614 178.086 66.9614C178.128 66.9614 178.184 66.9614 178.254 66.9614C178.323 66.9561 178.363 66.9534 178.374 66.9534V67.9054C178.224 67.9481 177.987 67.9694 177.662 67.9694ZM178.842 67.9214V63.8254H180.09V64.4654H180.114C180.392 63.9961 180.765 63.7614 181.234 63.7614C181.357 63.7614 181.442 63.7721 181.49 63.7934V64.9134H181.458C181.053 64.8547 180.733 64.9267 180.498 65.1294C180.264 65.3267 180.146 65.6441 180.146 66.0814V67.9214H178.842ZM183.827 68.0414C183.165 68.0414 182.635 67.8387 182.235 67.4334C181.84 67.0227 181.643 66.5001 181.643 65.8654C181.643 65.2467 181.837 64.7321 182.227 64.3214C182.621 63.9107 183.128 63.7054 183.747 63.7054C184.307 63.7054 184.773 63.8761 185.147 64.2174C185.637 64.6654 185.877 65.3294 185.867 66.2094H182.923C182.965 66.4921 183.064 66.7134 183.219 66.8734C183.373 67.0281 183.581 67.1054 183.843 67.1054C184.179 67.1054 184.405 66.9694 184.523 66.6974H185.795C185.699 67.0921 185.469 67.4147 185.107 67.6654C184.749 67.9161 184.323 68.0414 183.827 68.0414ZM182.931 65.4334H184.547C184.525 65.1881 184.443 64.9934 184.299 64.8494C184.16 64.7054 183.984 64.6334 183.771 64.6334C183.307 64.6334 183.027 64.9001 182.931 65.4334ZM188.047 68.0494C187.45 68.0494 186.973 67.9214 186.615 67.6654C186.263 67.4041 186.077 67.0467 186.055 66.5934H187.287C187.335 66.9987 187.586 67.2014 188.039 67.2014C188.237 67.2014 188.391 67.1667 188.503 67.0974C188.621 67.0227 188.679 66.9214 188.679 66.7934C188.679 66.7507 188.674 66.7134 188.663 66.6814C188.653 66.6494 188.634 66.6201 188.607 66.5934C188.581 66.5667 188.554 66.5427 188.527 66.5214C188.506 66.5001 188.471 66.4814 188.423 66.4654C188.375 66.4441 188.333 66.4281 188.295 66.4174C188.263 66.4067 188.213 66.3961 188.143 66.3854C188.079 66.3694 188.029 66.3587 187.991 66.3534C187.954 66.3427 187.895 66.3321 187.815 66.3214C187.735 66.3054 187.677 66.2947 187.639 66.2894C187.469 66.2627 187.325 66.2361 187.207 66.2094C187.09 66.1774 186.959 66.1294 186.815 66.0654C186.677 66.0014 186.562 65.9294 186.471 65.8494C186.386 65.7641 186.314 65.6521 186.255 65.5134C186.197 65.3694 186.167 65.2041 186.167 65.0174C186.167 64.6014 186.335 64.2787 186.671 64.0494C187.007 63.8201 187.429 63.7054 187.935 63.7054C188.506 63.7054 188.949 63.8227 189.263 64.0574C189.578 64.2867 189.751 64.6067 189.783 65.0174H188.583C188.541 64.6974 188.322 64.5374 187.927 64.5374C187.757 64.5374 187.618 64.5694 187.511 64.6334C187.41 64.6974 187.359 64.7907 187.359 64.9134C187.359 64.9454 187.365 64.9747 187.375 65.0014C187.386 65.0281 187.402 65.0521 187.423 65.0734C187.45 65.0947 187.474 65.1134 187.495 65.1294C187.522 65.1454 187.557 65.1614 187.599 65.1774C187.642 65.1934 187.679 65.2067 187.711 65.2174C187.749 65.2281 187.797 65.2387 187.855 65.2494C187.919 65.2601 187.97 65.2707 188.007 65.2814C188.05 65.2867 188.106 65.2974 188.175 65.3134C188.245 65.3241 188.301 65.3321 188.343 65.3374C188.525 65.3694 188.674 65.3987 188.791 65.4254C188.909 65.4521 189.045 65.5001 189.199 65.5694C189.359 65.6334 189.485 65.7107 189.575 65.8014C189.666 65.8867 189.743 66.0067 189.807 66.1614C189.877 66.3107 189.911 66.4867 189.911 66.6894C189.911 67.1267 189.738 67.4627 189.391 67.6974C189.05 67.9321 188.602 68.0494 188.047 68.0494ZM191.841 67.9694C191.425 67.9694 191.103 67.8867 190.873 67.7214C190.649 67.5507 190.537 67.2574 190.537 66.8414V64.6414H189.993V63.8254H190.537V62.5294H191.809V63.8254H192.553V64.6414H191.809V66.5614C191.809 66.7107 191.847 66.8147 191.921 66.8734C192.001 66.9321 192.116 66.9614 192.265 66.9614C192.308 66.9614 192.364 66.9614 192.433 66.9614C192.503 66.9561 192.543 66.9534 192.553 66.9534V67.9054C192.404 67.9481 192.167 67.9694 191.841 67.9694ZM194.983 68.0414C194.322 68.0414 193.791 67.8387 193.391 67.4334C192.996 67.0227 192.799 66.5001 192.799 65.8654C192.799 65.2467 192.994 64.7321 193.383 64.3214C193.778 63.9107 194.284 63.7054 194.903 63.7054C195.463 63.7054 195.93 63.8761 196.303 64.2174C196.794 64.6654 197.034 65.3294 197.023 66.2094H194.079C194.122 66.4921 194.22 66.7134 194.375 66.8734C194.53 67.0281 194.738 67.1054 194.999 67.1054C195.335 67.1054 195.562 66.9694 195.679 66.6974H196.951C196.855 67.0921 196.626 67.4147 196.263 67.6654C195.906 67.9161 195.479 68.0414 194.983 68.0414ZM194.087 65.4334H195.703C195.682 65.1881 195.599 64.9934 195.455 64.8494C195.316 64.7054 195.14 64.6334 194.927 64.6334C194.463 64.6334 194.183 64.9001 194.087 65.4334ZM199.067 68.0494C198.534 68.0494 198.102 67.8547 197.771 67.4654C197.441 67.0761 197.275 66.5454 197.275 65.8734C197.275 65.2334 197.441 64.7134 197.771 64.3134C198.107 63.9081 198.539 63.7054 199.067 63.7054C199.558 63.7054 199.939 63.9001 200.211 64.2894H200.235V62.2014H201.539V67.9214H200.291V67.3694H200.275C200.009 67.8227 199.606 68.0494 199.067 68.0494ZM199.403 67.0174C199.67 67.0174 199.881 66.9134 200.035 66.7054C200.19 66.4921 200.267 66.2147 200.267 65.8734C200.267 65.5161 200.195 65.2307 200.051 65.0174C199.907 64.7987 199.697 64.6894 199.419 64.6894C199.163 64.6894 198.961 64.7961 198.811 65.0094C198.667 65.2227 198.595 65.5054 198.595 65.8574C198.595 66.2147 198.667 66.4974 198.811 66.7054C198.955 66.9134 199.153 67.0174 199.403 67.0174ZM203.405 67.9214V63.8254H204.709V67.9214H203.405ZM203.405 63.2574V62.2014H204.709V63.2574H203.405ZM205.334 67.9214V63.8254H206.59V64.3854H206.614C206.929 63.9321 207.35 63.7054 207.878 63.7054C208.321 63.7054 208.668 63.8494 208.918 64.1374C209.174 64.4201 209.302 64.7934 209.302 65.2574V67.9214H207.998V65.5214C207.998 65.2974 207.942 65.1214 207.83 64.9934C207.724 64.8601 207.566 64.7934 207.358 64.7934C207.145 64.7934 206.972 64.8734 206.838 65.0334C206.705 65.1934 206.638 65.4014 206.638 65.6574V67.9214H205.334ZM211.139 67.9214V62.2014H212.443V64.3294H212.467C212.782 63.9134 213.187 63.7054 213.683 63.7054C214.126 63.7054 214.472 63.8494 214.723 64.1374C214.979 64.4201 215.107 64.7934 215.107 65.2574V67.9214H213.803V65.5214C213.803 65.2974 213.747 65.1214 213.635 64.9934C213.528 64.8601 213.371 64.7934 213.163 64.7934C212.95 64.7934 212.776 64.8734 212.643 65.0334C212.51 65.1934 212.443 65.4014 212.443 65.6574V67.9214H211.139ZM215.702 67.9214V63.8254H217.006V67.9214H215.702ZM215.702 63.2574V62.2014H217.006V63.2574H215.702ZM217.631 67.9214V63.8254H218.879V64.4654H218.903C219.181 63.9961 219.554 63.7614 220.023 63.7614C220.146 63.7614 220.231 63.7721 220.279 63.7934V64.9134H220.247C219.842 64.8547 219.522 64.9267 219.287 65.1294C219.053 65.3267 218.935 65.6441 218.935 66.0814V67.9214H217.631ZM220.694 67.9214V63.8254H221.998V67.9214H220.694ZM220.694 63.2574V62.2014H221.998V63.2574H220.694ZM222.624 67.9214V63.8254H223.88V64.3854H223.904C224.218 63.9321 224.64 63.7054 225.168 63.7054C225.61 63.7054 225.957 63.8494 226.208 64.1374C226.464 64.4201 226.592 64.7934 226.592 65.2574V67.9214H225.288V65.5214C225.288 65.2974 225.232 65.1214 225.12 64.9934C225.013 64.8601 224.856 64.7934 224.648 64.7934C224.434 64.7934 224.261 64.8734 224.128 65.0334C223.994 65.1934 223.928 65.4014 223.928 65.6574V67.9214H222.624ZM229.09 69.3374C228.519 69.3374 228.058 69.2227 227.706 68.9934C227.359 68.7694 227.154 68.4441 227.09 68.0174H228.354C228.445 68.2841 228.685 68.4174 229.074 68.4174C229.597 68.4174 229.858 68.1561 229.858 67.6334V67.2254H229.826C229.549 67.5401 229.199 67.6974 228.778 67.6974C228.287 67.6974 227.869 67.5241 227.522 67.1774C227.175 66.8307 227.002 66.3561 227.002 65.7534C227.002 65.1507 227.162 64.6601 227.482 64.2814C227.802 63.8974 228.215 63.7054 228.722 63.7054C229.229 63.7054 229.613 63.8921 229.874 64.2654H229.89V63.8254H231.138V67.5214C231.138 68.1027 230.957 68.5561 230.594 68.8814C230.253 69.1854 229.751 69.3374 229.09 69.3374ZM229.082 66.7294C229.354 66.7294 229.559 66.6361 229.698 66.4494C229.842 66.2574 229.914 66.0094 229.914 65.7054C229.914 65.4174 229.839 65.1774 229.69 64.9854C229.546 64.7881 229.343 64.6894 229.082 64.6894C228.837 64.6894 228.639 64.7827 228.49 64.9694C228.346 65.1561 228.274 65.4041 228.274 65.7134C228.274 66.0227 228.346 66.2707 228.49 66.4574C228.639 66.6387 228.837 66.7294 229.082 66.7294ZM233.142 69.2734V68.2574H233.59C233.948 68.2574 234.126 68.1134 234.126 67.8254C234.126 67.6867 234.044 67.4041 233.878 66.9774L232.67 63.8254H234.046L234.598 65.5694L234.854 66.5134H234.87C234.945 66.1507 235.025 65.8361 235.11 65.5694L235.646 63.8254H236.95L235.534 67.9774C235.369 68.4574 235.172 68.7934 234.942 68.9854C234.718 69.1774 234.401 69.2734 233.99 69.2734H233.142ZM238.444 66.7854C238.594 67.0094 238.807 67.1214 239.084 67.1214C239.362 67.1214 239.575 67.0094 239.724 66.7854C239.879 66.5614 239.956 66.2601 239.956 65.8814C239.956 65.5027 239.879 65.2014 239.724 64.9774C239.575 64.7481 239.362 64.6334 239.084 64.6334C238.807 64.6334 238.594 64.7454 238.444 64.9694C238.295 65.1934 238.22 65.4974 238.22 65.8814C238.22 66.2601 238.295 66.5614 238.444 66.7854ZM240.668 67.4334C240.268 67.8441 239.743 68.0494 239.092 68.0494C238.442 68.0494 237.914 67.8441 237.508 67.4334C237.103 67.0227 236.9 66.5054 236.9 65.8814C236.9 65.2574 237.103 64.7401 237.508 64.3294C237.914 63.9187 238.442 63.7134 239.092 63.7134C239.743 63.7134 240.268 63.9187 240.668 64.3294C241.074 64.7401 241.276 65.2574 241.276 65.8814C241.276 66.5054 241.074 67.0227 240.668 67.4334ZM243.125 68.0414C242.661 68.0414 242.304 67.9054 242.053 67.6334C241.808 67.3561 241.685 66.9827 241.685 66.5134V63.8254H242.981V66.2414C242.981 66.7054 243.187 66.9374 243.597 66.9374C243.821 66.9374 243.997 66.8627 244.125 66.7134C244.253 66.5587 244.317 66.3587 244.317 66.1134V63.8254H245.621V67.9214H244.373V67.4174H244.349C244.04 67.8334 243.632 68.0414 243.125 68.0414ZM246.193 67.9214V66.5774H247.561V67.9214H246.193Z" fill="black"/>
<path d="M47.452 89.8428V88.1868L46.024 85.5528H46.972L47.62 86.8248L47.902 87.4368H47.914C48.022 87.2008 48.118 86.9968 48.202 86.8248L48.838 85.5528H49.75L48.322 88.1868V89.8428H47.452ZM52.0206 89.4708C51.7206 89.7788 51.3346 89.9328 50.8626 89.9328C50.3906 89.9328 50.0046 89.7788 49.7046 89.4708C49.4046 89.1588 49.2546 88.7708 49.2546 88.3068C49.2546 87.8428 49.4046 87.4568 49.7046 87.1488C50.0046 86.8368 50.3906 86.6808 50.8626 86.6808C51.3346 86.6808 51.7206 86.8368 52.0206 87.1488C52.3206 87.4568 52.4706 87.8428 52.4706 88.3068C52.4706 88.7708 52.3206 89.1588 52.0206 89.4708ZM50.8626 89.3088C51.1066 89.3088 51.2966 89.2188 51.4326 89.0388C51.5726 88.8548 51.6426 88.6108 51.6426 88.3068C51.6426 88.0028 51.5726 87.7588 51.4326 87.5748C51.2966 87.3908 51.1066 87.2988 50.8626 87.2988C50.6146 87.2988 50.4226 87.3908 50.2866 87.5748C50.1506 87.7548 50.0826 87.9988 50.0826 88.3068C50.0826 88.6108 50.1506 88.8548 50.2866 89.0388C50.4226 89.2188 50.6146 89.3088 50.8626 89.3088ZM55.5799 89.8428H54.7939V89.4828H54.7759C54.6639 89.6348 54.5399 89.7468 54.4039 89.8188C54.2719 89.8908 54.1019 89.9268 53.8939 89.9268C53.5579 89.9268 53.2959 89.8268 53.1079 89.6268C52.9199 89.4268 52.8259 89.1568 52.8259 88.8168V86.7648H53.6359V88.6788C53.6359 89.0508 53.8059 89.2368 54.1459 89.2368C54.3339 89.2368 54.4839 89.1728 54.5959 89.0448C54.7079 88.9168 54.7639 88.7488 54.7639 88.5408V86.7648H55.5799V89.8428ZM57.9316 85.5528V87.1668H57.9496C58.0656 86.9988 58.1916 86.8768 58.3276 86.8008C58.4676 86.7208 58.6396 86.6808 58.8436 86.6808C59.1596 86.6808 59.4156 86.7888 59.6116 87.0048C59.8076 87.2168 59.9056 87.4928 59.9056 87.8328V89.8428H59.0896V87.9528C59.0896 87.7848 59.0416 87.6488 58.9456 87.5448C58.8536 87.4408 58.7236 87.3888 58.5556 87.3888C58.3756 87.3888 58.2256 87.4548 58.1056 87.5868C57.9896 87.7188 57.9316 87.8888 57.9316 88.0968V89.8428H57.1156V85.5528H57.9316ZM62.3465 89.8428C62.3065 89.7908 62.2745 89.6768 62.2505 89.5008H62.2385C62.1505 89.6328 62.0385 89.7348 61.9025 89.8068C61.7665 89.8788 61.5765 89.9148 61.3325 89.9148C61.0085 89.9148 60.7485 89.8328 60.5525 89.6688C60.3565 89.5048 60.2585 89.2728 60.2585 88.9728C60.2585 88.6608 60.3665 88.4328 60.5825 88.2888C60.7985 88.1408 61.1025 88.0388 61.4945 87.9828C61.7825 87.9428 61.9785 87.9028 62.0825 87.8628C62.1865 87.8188 62.2385 87.7428 62.2385 87.6348C62.2385 87.5228 62.1945 87.4348 62.1065 87.3708C62.0185 87.3028 61.8905 87.2688 61.7225 87.2688C61.3505 87.2688 61.1525 87.4128 61.1285 87.7008H60.4025C60.4145 87.4088 60.5325 87.1668 60.7565 86.9748C60.9805 86.7828 61.3045 86.6868 61.7285 86.6868C62.5925 86.6868 63.0245 87.0648 63.0245 87.8208V89.3868C63.0245 89.6188 63.0605 89.7608 63.1325 89.8128V89.8428H62.3465ZM61.5305 89.3448C61.7545 89.3448 61.9305 89.2868 62.0585 89.1708C62.1905 89.0548 62.2565 88.9168 62.2565 88.7568V88.2948C62.1685 88.3468 61.9785 88.4068 61.6865 88.4748C61.4545 88.5268 61.2905 88.5868 61.1945 88.6548C61.0985 88.7188 61.0505 88.8188 61.0505 88.9548C61.0505 89.2148 61.2105 89.3448 61.5305 89.3448ZM64.33 89.8428L63.262 86.7648H64.09L64.582 88.3608L64.72 88.8528H64.732C64.76 88.7208 64.804 88.5568 64.864 88.3608L65.368 86.7648H66.184L65.11 89.8428H64.33ZM67.8194 89.9328C67.3234 89.9328 66.9334 89.7808 66.6494 89.4768C66.3654 89.1688 66.2234 88.7768 66.2234 88.3008C66.2234 87.8408 66.3654 87.4568 66.6494 87.1488C66.9334 86.8368 67.2974 86.6808 67.7414 86.6808C68.2254 86.6808 68.5994 86.8488 68.8634 87.1848C69.1274 87.5208 69.2594 87.9708 69.2594 88.5348H67.0274C67.0594 88.7788 67.1414 88.9688 67.2734 89.1048C67.4054 89.2368 67.5854 89.3028 67.8134 89.3028C68.1134 89.3028 68.3114 89.1768 68.4074 88.9248H69.2114C69.1514 89.2128 68.9994 89.4528 68.7554 89.6448C68.5114 89.8368 68.1994 89.9328 67.8194 89.9328ZM67.7534 87.3108C67.3574 87.3108 67.1194 87.5308 67.0394 87.9708H68.4074C68.3954 87.7748 68.3294 87.6168 68.2094 87.4968C68.0894 87.3728 67.9374 87.3108 67.7534 87.3108ZM72.3609 89.9328C71.9449 89.9328 71.6389 89.7748 71.4429 89.4588H71.4309V89.8428H70.6449V85.5528H71.4609V87.1368H71.4789C71.6749 86.8328 71.9609 86.6808 72.3369 86.6808C72.7249 86.6808 73.0429 86.8328 73.2909 87.1368C73.5389 87.4368 73.6629 87.8268 73.6629 88.3068C73.6629 88.8028 73.5429 89.1988 73.3029 89.4948C73.0629 89.7868 72.7489 89.9328 72.3609 89.9328ZM72.1809 89.2488C72.3889 89.2488 72.5489 89.1668 72.6609 89.0028C72.7769 88.8388 72.8349 88.6068 72.8349 88.3068C72.8349 88.0108 72.7749 87.7768 72.6549 87.6048C72.5389 87.4288 72.3709 87.3408 72.1509 87.3408C71.6789 87.3408 71.4429 87.6688 71.4429 88.3248C71.4429 88.6088 71.5089 88.8348 71.6409 89.0028C71.7729 89.1668 71.9529 89.2488 72.1809 89.2488ZM75.4893 89.9328C74.9933 89.9328 74.6033 89.7808 74.3193 89.4768C74.0353 89.1688 73.8933 88.7768 73.8933 88.3008C73.8933 87.8408 74.0353 87.4568 74.3193 87.1488C74.6033 86.8368 74.9673 86.6808 75.4113 86.6808C75.8953 86.6808 76.2693 86.8488 76.5333 87.1848C76.7973 87.5208 76.9293 87.9708 76.9293 88.5348H74.6973C74.7293 88.7788 74.8113 88.9688 74.9433 89.1048C75.0753 89.2368 75.2553 89.3028 75.4833 89.3028C75.7833 89.3028 75.9813 89.1768 76.0773 88.9248H76.8813C76.8213 89.2128 76.6693 89.4528 76.4253 89.6448C76.1813 89.8368 75.8693 89.9328 75.4893 89.9328ZM75.4233 87.3108C75.0273 87.3108 74.7893 87.5308 74.7093 87.9708H76.0773C76.0653 87.7748 75.9993 87.6168 75.8793 87.4968C75.7593 87.3728 75.6073 87.3108 75.4233 87.3108ZM78.753 89.9328C78.257 89.9328 77.867 89.7808 77.583 89.4768C77.299 89.1688 77.157 88.7768 77.157 88.3008C77.157 87.8408 77.299 87.4568 77.583 87.1488C77.867 86.8368 78.231 86.6808 78.675 86.6808C79.159 86.6808 79.533 86.8488 79.797 87.1848C80.061 87.5208 80.193 87.9708 80.193 88.5348H77.961C77.993 88.7788 78.075 88.9688 78.207 89.1048C78.339 89.2368 78.519 89.3028 78.747 89.3028C79.047 89.3028 79.245 89.1768 79.341 88.9248H80.145C80.085 89.2128 79.933 89.4528 79.689 89.6448C79.445 89.8368 79.133 89.9328 78.753 89.9328ZM78.687 87.3108C78.291 87.3108 78.053 87.5308 77.973 87.9708H79.341C79.329 87.7748 79.263 87.6168 79.143 87.4968C79.023 87.3728 78.871 87.3108 78.687 87.3108ZM81.3686 86.7648V87.1848H81.3866C81.5986 86.8488 81.9026 86.6808 82.2986 86.6808C82.6146 86.6808 82.8706 86.7888 83.0666 87.0048C83.2626 87.2168 83.3606 87.4928 83.3606 87.8328V89.8428H82.5446V87.9528C82.5446 87.7848 82.4966 87.6488 82.4006 87.5448C82.3086 87.4408 82.1786 87.3888 82.0106 87.3888C81.8306 87.3888 81.6806 87.4548 81.5606 87.5868C81.4446 87.7188 81.3866 87.8888 81.3866 88.0968V89.8428H80.5706V86.7648H81.3686ZM85.6874 89.8428L84.6194 86.7648H85.4474L85.9394 88.3608L86.0774 88.8528H86.0894C86.1174 88.7208 86.1614 88.5568 86.2214 88.3608L86.7254 86.7648H87.5414L86.4674 89.8428H85.6874ZM89.1768 89.9328C88.6808 89.9328 88.2908 89.7808 88.0068 89.4768C87.7228 89.1688 87.5808 88.7768 87.5808 88.3008C87.5808 87.8408 87.7228 87.4568 88.0068 87.1488C88.2908 86.8368 88.6548 86.6808 89.0988 86.6808C89.5828 86.6808 89.9568 86.8488 90.2208 87.1848C90.4848 87.5208 90.6168 87.9708 90.6168 88.5348H88.3848C88.4168 88.7788 88.4988 88.9688 88.6308 89.1048C88.7628 89.2368 88.9428 89.3028 89.1708 89.3028C89.4708 89.3028 89.6688 89.1768 89.7648 88.9248H90.5688C90.5088 89.2128 90.3568 89.4528 90.1128 89.6448C89.8688 89.8368 89.5568 89.9328 89.1768 89.9328ZM89.1108 87.3108C88.7148 87.3108 88.4768 87.5308 88.3968 87.9708H89.7648C89.7528 87.7748 89.6868 87.6168 89.5668 87.4968C89.4468 87.3728 89.2948 87.3108 89.1108 87.3108ZM90.7559 87.3048V86.7648H91.1819V85.8048H91.9799V86.7648H92.5079V87.3048H91.9799V88.9368C91.9799 89.1408 92.0819 89.2428 92.2859 89.2428L92.5259 89.2368V89.8368C92.4019 89.8448 92.2319 89.8488 92.0159 89.8488C91.7799 89.8488 91.5819 89.7928 91.4219 89.6808C91.2619 89.5648 91.1819 89.3748 91.1819 89.1108V87.3048H90.7559ZM92.6895 87.3048V86.7648H93.1155V85.8048H93.9135V86.7648H94.4415V87.3048H93.9135V88.9368C93.9135 89.1408 94.0155 89.2428 94.2195 89.2428L94.4595 89.2368V89.8368C94.3355 89.8448 94.1655 89.8488 93.9495 89.8488C93.7135 89.8488 93.5155 89.7928 93.3555 89.6808C93.1955 89.5648 93.1155 89.3748 93.1155 89.1108V87.3048H92.6895ZM96.2784 89.9328C95.7824 89.9328 95.3924 89.7808 95.1084 89.4768C94.8244 89.1688 94.6824 88.7768 94.6824 88.3008C94.6824 87.8408 94.8244 87.4568 95.1084 87.1488C95.3924 86.8368 95.7564 86.6808 96.2004 86.6808C96.6844 86.6808 97.0584 86.8488 97.3224 87.1848C97.5864 87.5208 97.7184 87.9708 97.7184 88.5348H95.4864C95.5184 88.7788 95.6004 88.9688 95.7324 89.1048C95.8644 89.2368 96.0444 89.3028 96.2724 89.3028C96.5724 89.3028 96.7704 89.1768 96.8664 88.9248H97.6704C97.6104 89.2128 97.4584 89.4528 97.2144 89.6448C96.9704 89.8368 96.6584 89.9328 96.2784 89.9328ZM96.2124 87.3108C95.8164 87.3108 95.5784 87.5308 95.4984 87.9708H96.8664C96.8544 87.7748 96.7884 87.6168 96.6684 87.4968C96.5484 87.3728 96.3964 87.3108 96.2124 87.3108ZM99.248 89.9328C98.86 89.9328 98.546 89.7868 98.306 89.4948C98.066 89.1988 97.946 88.8028 97.946 88.3068C97.946 87.8268 98.068 87.4368 98.312 87.1368C98.56 86.8328 98.876 86.6808 99.26 86.6808C99.644 86.6808 99.934 86.8328 100.13 87.1368H100.148V85.5528H100.964V89.8428H100.178V89.4408H100.166C99.966 89.7688 99.66 89.9328 99.248 89.9328ZM99.428 89.2488C99.668 89.2488 99.85 89.1668 99.974 89.0028C100.102 88.8388 100.166 88.6128 100.166 88.3248C100.166 87.6688 99.928 87.3408 99.452 87.3408C99.232 87.3408 99.064 87.4288 98.948 87.6048C98.832 87.7808 98.774 88.0148 98.774 88.3068C98.774 88.6068 98.83 88.8388 98.942 89.0028C99.058 89.1668 99.22 89.2488 99.428 89.2488ZM104.44 89.8428C104.4 89.7908 104.368 89.6768 104.344 89.5008H104.332C104.244 89.6328 104.132 89.7348 103.996 89.8068C103.86 89.8788 103.67 89.9148 103.426 89.9148C103.102 89.9148 102.842 89.8328 102.646 89.6688C102.45 89.5048 102.352 89.2728 102.352 88.9728C102.352 88.6608 102.46 88.4328 102.676 88.2888C102.892 88.1408 103.196 88.0388 103.588 87.9828C103.876 87.9428 104.072 87.9028 104.176 87.8628C104.28 87.8188 104.332 87.7428 104.332 87.6348C104.332 87.5228 104.288 87.4348 104.2 87.3708C104.112 87.3028 103.984 87.2688 103.816 87.2688C103.444 87.2688 103.246 87.4128 103.222 87.7008H102.496C102.508 87.4088 102.626 87.1668 102.85 86.9748C103.074 86.7828 103.398 86.6868 103.822 86.6868C104.686 86.6868 105.118 87.0648 105.118 87.8208V89.3868C105.118 89.6188 105.154 89.7608 105.226 89.8128V89.8428H104.44ZM103.624 89.3448C103.848 89.3448 104.024 89.2868 104.152 89.1708C104.284 89.0548 104.35 88.9168 104.35 88.7568V88.2948C104.262 88.3468 104.072 88.4068 103.78 88.4748C103.548 88.5268 103.384 88.5868 103.288 88.6548C103.192 88.7188 103.144 88.8188 103.144 88.9548C103.144 89.2148 103.304 89.3448 103.624 89.3448ZM106.435 86.7648V87.1848H106.453C106.665 86.8488 106.969 86.6808 107.365 86.6808C107.681 86.6808 107.937 86.7888 108.133 87.0048C108.329 87.2168 108.427 87.4928 108.427 87.8328V89.8428H107.611V87.9528C107.611 87.7848 107.563 87.6488 107.467 87.5448C107.375 87.4408 107.245 87.3888 107.077 87.3888C106.897 87.3888 106.747 87.4548 106.627 87.5868C106.511 87.7188 106.453 87.8888 106.453 88.0968V89.8428H105.637V86.7648H106.435ZM110.082 89.9328C109.694 89.9328 109.38 89.7868 109.14 89.4948C108.9 89.1988 108.78 88.8028 108.78 88.3068C108.78 87.8268 108.902 87.4368 109.146 87.1368C109.394 86.8328 109.71 86.6808 110.094 86.6808C110.478 86.6808 110.768 86.8328 110.964 87.1368H110.982V85.5528H111.798V89.8428H111.012V89.4408H111C110.8 89.7688 110.494 89.9328 110.082 89.9328ZM110.262 89.2488C110.502 89.2488 110.684 89.1668 110.808 89.0028C110.936 88.8388 111 88.6128 111 88.3248C111 87.6688 110.762 87.3408 110.286 87.3408C110.066 87.3408 109.898 87.4288 109.782 87.6048C109.666 87.7808 109.608 88.0148 109.608 88.3068C109.608 88.6068 109.664 88.8388 109.776 89.0028C109.892 89.1668 110.054 89.2488 110.262 89.2488ZM115.274 89.8428C115.234 89.7908 115.202 89.6768 115.178 89.5008H115.166C115.078 89.6328 114.966 89.7348 114.83 89.8068C114.694 89.8788 114.504 89.9148 114.26 89.9148C113.936 89.9148 113.676 89.8328 113.48 89.6688C113.284 89.5048 113.186 89.2728 113.186 88.9728C113.186 88.6608 113.294 88.4328 113.51 88.2888C113.726 88.1408 114.03 88.0388 114.422 87.9828C114.71 87.9428 114.906 87.9028 115.01 87.8628C115.114 87.8188 115.166 87.7428 115.166 87.6348C115.166 87.5228 115.122 87.4348 115.034 87.3708C114.946 87.3028 114.818 87.2688 114.65 87.2688C114.278 87.2688 114.08 87.4128 114.056 87.7008H113.33C113.342 87.4088 113.46 87.1668 113.684 86.9748C113.908 86.7828 114.232 86.6868 114.656 86.6868C115.52 86.6868 115.952 87.0648 115.952 87.8208V89.3868C115.952 89.6188 115.988 89.7608 116.06 89.8128V89.8428H115.274ZM114.458 89.3448C114.682 89.3448 114.858 89.2868 114.986 89.1708C115.118 89.0548 115.184 88.9168 115.184 88.7568V88.2948C115.096 88.3468 114.906 88.4068 114.614 88.4748C114.382 88.5268 114.218 88.5868 114.122 88.6548C114.026 88.7188 113.978 88.8188 113.978 88.9548C113.978 89.2148 114.138 89.3448 114.458 89.3448ZM116.471 90.8508V86.7648H117.257V87.1488H117.275C117.503 86.8368 117.805 86.6808 118.181 86.6808C118.585 86.6808 118.909 86.8308 119.153 87.1308C119.397 87.4308 119.519 87.8228 119.519 88.3068C119.519 88.8028 119.397 89.1988 119.153 89.4948C118.909 89.7868 118.587 89.9328 118.187 89.9328C117.787 89.9328 117.491 89.7868 117.299 89.4948H117.287V90.8508H116.471ZM118.013 89.2548C118.221 89.2548 118.385 89.1728 118.505 89.0088C118.629 88.8448 118.691 88.6188 118.691 88.3308C118.691 88.0228 118.633 87.7808 118.517 87.6048C118.401 87.4288 118.223 87.3408 117.983 87.3408C117.739 87.3408 117.559 87.4328 117.443 87.6168C117.327 87.7968 117.269 88.0348 117.269 88.3308C117.269 88.6148 117.333 88.8408 117.461 89.0088C117.589 89.1728 117.773 89.2548 118.013 89.2548ZM119.899 90.8508V86.7648H120.685V87.1488H120.703C120.931 86.8368 121.233 86.6808 121.609 86.6808C122.013 86.6808 122.337 86.8308 122.581 87.1308C122.825 87.4308 122.947 87.8228 122.947 88.3068C122.947 88.8028 122.825 89.1988 122.581 89.4948C122.337 89.7868 122.015 89.9328 121.615 89.9328C121.215 89.9328 120.919 89.7868 120.727 89.4948H120.715V90.8508H119.899ZM121.441 89.2548C121.649 89.2548 121.813 89.1728 121.933 89.0088C122.057 88.8448 122.119 88.6188 122.119 88.3308C122.119 88.0228 122.061 87.7808 121.945 87.6048C121.829 87.4288 121.651 87.3408 121.411 87.3408C121.167 87.3408 120.987 87.4328 120.871 87.6168C120.755 87.7968 120.697 88.0348 120.697 88.3308C120.697 88.6148 120.761 88.8408 120.889 89.0088C121.017 89.1728 121.201 89.2548 121.441 89.2548ZM124.113 86.7648V87.2568H124.131C124.227 87.0768 124.333 86.9448 124.449 86.8608C124.565 86.7728 124.711 86.7288 124.887 86.7288C124.971 86.7288 125.035 86.7368 125.079 86.7528V87.4668H125.061C124.785 87.4388 124.563 87.4988 124.395 87.6468C124.227 87.7948 124.143 88.0268 124.143 88.3428V89.8428H123.327V86.7648H124.113ZM127.958 89.4708C127.658 89.7788 127.272 89.9328 126.8 89.9328C126.328 89.9328 125.942 89.7788 125.642 89.4708C125.342 89.1588 125.192 88.7708 125.192 88.3068C125.192 87.8428 125.342 87.4568 125.642 87.1488C125.942 86.8368 126.328 86.6808 126.8 86.6808C127.272 86.6808 127.658 86.8368 127.958 87.1488C128.258 87.4568 128.408 87.8428 128.408 88.3068C128.408 88.7708 128.258 89.1588 127.958 89.4708ZM126.8 89.3088C127.044 89.3088 127.234 89.2188 127.37 89.0388C127.51 88.8548 127.58 88.6108 127.58 88.3068C127.58 88.0028 127.51 87.7588 127.37 87.5748C127.234 87.3908 127.044 87.2988 126.8 87.2988C126.552 87.2988 126.36 87.3908 126.224 87.5748C126.088 87.7548 126.02 87.9988 126.02 88.3068C126.02 88.6108 126.088 88.8548 126.224 89.0388C126.36 89.2188 126.552 89.3088 126.8 89.3088ZM129.516 89.8428L128.448 86.7648H129.276L129.768 88.3608L129.906 88.8528H129.918C129.946 88.7208 129.99 88.5568 130.05 88.3608L130.554 86.7648H131.37L130.296 89.8428H129.516ZM133.005 89.9328C132.509 89.9328 132.119 89.7808 131.835 89.4768C131.551 89.1688 131.409 88.7768 131.409 88.3008C131.409 87.8408 131.551 87.4568 131.835 87.1488C132.119 86.8368 132.483 86.6808 132.927 86.6808C133.411 86.6808 133.785 86.8488 134.049 87.1848C134.313 87.5208 134.445 87.9708 134.445 88.5348H132.213C132.245 88.7788 132.327 88.9688 132.459 89.1048C132.591 89.2368 132.771 89.3028 132.999 89.3028C133.299 89.3028 133.497 89.1768 133.593 88.9248H134.397C134.337 89.2128 134.185 89.4528 133.941 89.6448C133.697 89.8368 133.385 89.9328 133.005 89.9328ZM132.939 87.3108C132.543 87.3108 132.305 87.5308 132.225 87.9708H133.593C133.581 87.7748 133.515 87.6168 133.395 87.4968C133.275 87.3728 133.123 87.3108 132.939 87.3108ZM135.975 89.9328C135.587 89.9328 135.273 89.7868 135.033 89.4948C134.793 89.1988 134.673 88.8028 134.673 88.3068C134.673 87.8268 134.795 87.4368 135.039 87.1368C135.287 86.8328 135.603 86.6808 135.987 86.6808C136.371 86.6808 136.661 86.8328 136.857 87.1368H136.875V85.5528H137.691V89.8428H136.905V89.4408H136.893C136.693 89.7688 136.387 89.9328 135.975 89.9328ZM136.155 89.2488C136.395 89.2488 136.577 89.1668 136.701 89.0028C136.829 88.8388 136.893 88.6128 136.893 88.3248C136.893 87.6688 136.655 87.3408 136.179 87.3408C135.959 87.3408 135.791 87.4288 135.675 87.6048C135.559 87.7808 135.501 88.0148 135.501 88.3068C135.501 88.6068 135.557 88.8388 135.669 89.0028C135.785 89.1668 135.947 89.2488 136.155 89.2488ZM139.049 87.3288V86.7648H139.469V86.4888C139.469 86.1288 139.593 85.8728 139.841 85.7208C140.089 85.5688 140.421 85.5148 140.837 85.5588V86.1888C140.633 86.1808 140.489 86.1988 140.405 86.2428C140.325 86.2868 140.285 86.3848 140.285 86.5368V86.7648H140.837V87.3288H140.285V89.8428H139.469V87.3288H139.049ZM143.737 89.4708C143.437 89.7788 143.051 89.9328 142.579 89.9328C142.107 89.9328 141.721 89.7788 141.421 89.4708C141.121 89.1588 140.971 88.7708 140.971 88.3068C140.971 87.8428 141.121 87.4568 141.421 87.1488C141.721 86.8368 142.107 86.6808 142.579 86.6808C143.051 86.6808 143.437 86.8368 143.737 87.1488C144.037 87.4568 144.187 87.8428 144.187 88.3068C144.187 88.7708 144.037 89.1588 143.737 89.4708ZM142.579 89.3088C142.823 89.3088 143.013 89.2188 143.149 89.0388C143.289 88.8548 143.359 88.6108 143.359 88.3068C143.359 88.0028 143.289 87.7588 143.149 87.5748C143.013 87.3908 142.823 87.2988 142.579 87.2988C142.331 87.2988 142.139 87.3908 142.003 87.5748C141.867 87.7548 141.799 87.9988 141.799 88.3068C141.799 88.6108 141.867 88.8548 142.003 89.0388C142.139 89.2188 142.331 89.3088 142.579 89.3088ZM145.353 86.7648V87.2568H145.371C145.467 87.0768 145.573 86.9448 145.689 86.8608C145.805 86.7728 145.951 86.7288 146.127 86.7288C146.211 86.7288 146.275 86.7368 146.319 86.7528V87.4668H146.301C146.025 87.4388 145.803 87.4988 145.635 87.6468C145.467 87.7948 145.383 88.0268 145.383 88.3428V89.8428H144.567V86.7648H145.353ZM147.498 87.3048V86.7648H147.924V85.8048H148.722V86.7648H149.25V87.3048H148.722V88.9368C148.722 89.1408 148.824 89.2428 149.028 89.2428L149.268 89.2368V89.8368C149.144 89.8448 148.974 89.8488 148.758 89.8488C148.522 89.8488 148.324 89.7928 148.164 89.6808C148.004 89.5648 147.924 89.3748 147.924 89.1108V87.3048H147.498ZM150.486 85.5528V87.1668H150.504C150.62 86.9988 150.746 86.8768 150.882 86.8008C151.022 86.7208 151.194 86.6808 151.398 86.6808C151.714 86.6808 151.97 86.7888 152.166 87.0048C152.362 87.2168 152.46 87.4928 152.46 87.8328V89.8428H151.644V87.9528C151.644 87.7848 151.596 87.6488 151.5 87.5448C151.408 87.4408 151.278 87.3888 151.11 87.3888C150.93 87.3888 150.78 87.4548 150.66 87.5868C150.544 87.7188 150.486 87.8888 150.486 88.0968V89.8428H149.67V85.5528H150.486ZM152.963 89.8428V86.7648H153.779V89.8428H152.963ZM152.963 86.2848V85.5528H153.779V86.2848H152.963ZM155.553 89.9328C155.113 89.9328 154.769 89.8368 154.521 89.6448C154.273 89.4488 154.137 89.1828 154.113 88.8468H154.869C154.921 89.1868 155.145 89.3568 155.541 89.3568C155.721 89.3568 155.859 89.3248 155.955 89.2608C156.055 89.1968 156.105 89.1108 156.105 89.0028C156.105 88.9628 156.097 88.9268 156.081 88.8948C156.069 88.8628 156.045 88.8348 156.009 88.8108C155.977 88.7828 155.947 88.7608 155.919 88.7448C155.895 88.7288 155.851 88.7128 155.787 88.6968C155.723 88.6808 155.673 88.6688 155.637 88.6608C155.605 88.6528 155.547 88.6428 155.463 88.6308C155.383 88.6148 155.327 88.6028 155.295 88.5948C155.127 88.5628 154.989 88.5308 154.881 88.4988C154.777 88.4628 154.667 88.4128 154.551 88.3488C154.435 88.2808 154.347 88.1908 154.287 88.0788C154.231 87.9628 154.203 87.8248 154.203 87.6648C154.203 87.3448 154.319 87.1008 154.551 86.9328C154.787 86.7648 155.089 86.6808 155.457 86.6808C155.853 86.6808 156.163 86.7728 156.387 86.9568C156.615 87.1368 156.745 87.3848 156.777 87.7008H156.039C156.007 87.4008 155.809 87.2508 155.445 87.2508C155.281 87.2508 155.151 87.2808 155.055 87.3408C154.963 87.4008 154.917 87.4848 154.917 87.5928C154.917 87.6288 154.923 87.6628 154.935 87.6948C154.951 87.7228 154.975 87.7488 155.007 87.7728C155.043 87.7928 155.077 87.8108 155.109 87.8268C155.141 87.8388 155.187 87.8528 155.247 87.8688C155.307 87.8808 155.359 87.8928 155.403 87.9048C155.447 87.9128 155.507 87.9248 155.583 87.9408C155.659 87.9528 155.719 87.9628 155.763 87.9708C155.891 87.9988 155.995 88.0248 156.075 88.0488C156.159 88.0688 156.255 88.1048 156.363 88.1568C156.471 88.2048 156.555 88.2608 156.615 88.3248C156.679 88.3848 156.733 88.4688 156.777 88.5768C156.825 88.6808 156.849 88.8028 156.849 88.9428C156.849 89.2468 156.729 89.4888 156.489 89.6688C156.253 89.8448 155.941 89.9328 155.553 89.9328ZM158.177 90.8568C157.993 90.8568 157.839 90.8448 157.715 90.8208V90.2388C157.899 90.2348 158.029 90.2128 158.105 90.1728C158.185 90.1368 158.225 90.0528 158.225 89.9208V86.7648H159.041V89.9628C159.041 90.2748 158.973 90.4988 158.837 90.6348C158.693 90.7828 158.473 90.8568 158.177 90.8568ZM158.225 86.2848V85.5528H159.041V86.2848H158.225ZM162.183 89.4708C161.883 89.7788 161.497 89.9328 161.025 89.9328C160.553 89.9328 160.167 89.7788 159.867 89.4708C159.567 89.1588 159.417 88.7708 159.417 88.3068C159.417 87.8428 159.567 87.4568 159.867 87.1488C160.167 86.8368 160.553 86.6808 161.025 86.6808C161.497 86.6808 161.883 86.8368 162.183 87.1488C162.483 87.4568 162.633 87.8428 162.633 88.3068C162.633 88.7708 162.483 89.1588 162.183 89.4708ZM161.025 89.3088C161.269 89.3088 161.459 89.2188 161.595 89.0388C161.735 88.8548 161.805 88.6108 161.805 88.3068C161.805 88.0028 161.735 87.7588 161.595 87.5748C161.459 87.3908 161.269 87.2988 161.025 87.2988C160.777 87.2988 160.585 87.3908 160.449 87.5748C160.313 87.7548 160.245 87.9988 160.245 88.3068C160.245 88.6108 160.313 88.8548 160.449 89.0388C160.585 89.2188 160.777 89.3088 161.025 89.3088ZM164.728 89.9328C164.312 89.9328 164.006 89.7748 163.81 89.4588H163.798V89.8428H163.012V85.5528H163.828V87.1368H163.846C164.042 86.8328 164.328 86.6808 164.704 86.6808C165.092 86.6808 165.41 86.8328 165.658 87.1368C165.906 87.4368 166.03 87.8268 166.03 88.3068C166.03 88.8028 165.91 89.1988 165.67 89.4948C165.43 89.7868 165.116 89.9328 164.728 89.9328ZM164.548 89.2488C164.756 89.2488 164.916 89.1668 165.028 89.0028C165.144 88.8388 165.202 88.6068 165.202 88.3068C165.202 88.0108 165.142 87.7768 165.022 87.6048C164.906 87.4288 164.738 87.3408 164.518 87.3408C164.046 87.3408 163.81 87.6688 163.81 88.3248C163.81 88.6088 163.876 88.8348 164.008 89.0028C164.14 89.1668 164.32 89.2488 164.548 89.2488ZM169.134 89.9328C168.718 89.9328 168.412 89.7748 168.216 89.4588H168.204V89.8428H167.418V85.5528H168.234V87.1368H168.252C168.448 86.8328 168.734 86.6808 169.11 86.6808C169.498 86.6808 169.816 86.8328 170.064 87.1368C170.312 87.4368 170.436 87.8268 170.436 88.3068C170.436 88.8028 170.316 89.1988 170.076 89.4948C169.836 89.7868 169.522 89.9328 169.134 89.9328ZM168.954 89.2488C169.162 89.2488 169.322 89.1668 169.434 89.0028C169.55 88.8388 169.608 88.6068 169.608 88.3068C169.608 88.0108 169.548 87.7768 169.428 87.6048C169.312 87.4288 169.144 87.3408 168.924 87.3408C168.452 87.3408 168.216 87.6688 168.216 88.3248C168.216 88.6088 168.282 88.8348 168.414 89.0028C168.546 89.1668 168.726 89.2488 168.954 89.2488ZM170.795 90.8508V90.2088H171.083C171.387 90.2088 171.539 90.0688 171.539 89.7888C171.539 89.6528 171.461 89.3748 171.305 88.9548L170.477 86.7648H171.335L171.791 88.1508L171.989 88.8228H172.001C172.057 88.5628 172.117 88.3388 172.181 88.1508L172.613 86.7648H173.435L172.361 89.9208C172.241 90.2728 172.105 90.5148 171.953 90.6468C171.805 90.7828 171.579 90.8508 171.275 90.8508H170.795ZM174.539 87.3048V86.7648H174.965V85.8048H175.763V86.7648H176.291V87.3048H175.763V88.9368C175.763 89.1408 175.865 89.2428 176.069 89.2428L176.309 89.2368V89.8368C176.185 89.8448 176.015 89.8488 175.799 89.8488C175.563 89.8488 175.365 89.7928 175.205 89.6808C175.045 89.5648 174.965 89.3748 174.965 89.1108V87.3048H174.539ZM177.527 85.5528V87.1668H177.545C177.661 86.9988 177.787 86.8768 177.923 86.8008C178.063 86.7208 178.235 86.6808 178.439 86.6808C178.755 86.6808 179.011 86.7888 179.207 87.0048C179.403 87.2168 179.501 87.4928 179.501 87.8328V89.8428H178.685V87.9528C178.685 87.7848 178.637 87.6488 178.541 87.5448C178.449 87.4408 178.319 87.3888 178.151 87.3888C177.971 87.3888 177.821 87.4548 177.701 87.5868C177.585 87.7188 177.527 87.8888 177.527 88.0968V89.8428H176.711V85.5528H177.527ZM181.45 89.9328C180.954 89.9328 180.564 89.7808 180.28 89.4768C179.996 89.1688 179.854 88.7768 179.854 88.3008C179.854 87.8408 179.996 87.4568 180.28 87.1488C180.564 86.8368 180.928 86.6808 181.372 86.6808C181.856 86.6808 182.23 86.8488 182.494 87.1848C182.758 87.5208 182.89 87.9708 182.89 88.5348H180.658C180.69 88.7788 180.772 88.9688 180.904 89.1048C181.036 89.2368 181.216 89.3028 181.444 89.3028C181.744 89.3028 181.942 89.1768 182.038 88.9248H182.842C182.782 89.2128 182.63 89.4528 182.386 89.6448C182.142 89.8368 181.83 89.9328 181.45 89.9328ZM181.384 87.3108C180.988 87.3108 180.75 87.5308 180.67 87.9708H182.038C182.026 87.7748 181.96 87.6168 181.84 87.4968C181.72 87.3728 181.568 87.3108 181.384 87.3108ZM185.062 86.7648V87.2568H185.08C185.176 87.0768 185.282 86.9448 185.398 86.8608C185.514 86.7728 185.66 86.7288 185.836 86.7288C185.92 86.7288 185.984 86.7368 186.028 86.7528V87.4668H186.01C185.734 87.4388 185.512 87.4988 185.344 87.6468C185.176 87.7948 185.092 88.0268 185.092 88.3428V89.8428H184.276V86.7648H185.062ZM187.737 89.9328C187.241 89.9328 186.851 89.7808 186.567 89.4768C186.283 89.1688 186.141 88.7768 186.141 88.3008C186.141 87.8408 186.283 87.4568 186.567 87.1488C186.851 86.8368 187.215 86.6808 187.659 86.6808C188.143 86.6808 188.517 86.8488 188.781 87.1848C189.045 87.5208 189.177 87.9708 189.177 88.5348H186.945C186.977 88.7788 187.059 88.9688 187.191 89.1048C187.323 89.2368 187.503 89.3028 187.731 89.3028C188.031 89.3028 188.229 89.1768 188.325 88.9248H189.129C189.069 89.2128 188.917 89.4528 188.673 89.6448C188.429 89.8368 188.117 89.9328 187.737 89.9328ZM187.671 87.3108C187.275 87.3108 187.037 87.5308 186.957 87.9708H188.325C188.313 87.7748 188.247 87.6168 188.127 87.4968C188.007 87.3728 187.855 87.3108 187.671 87.3108ZM190.983 89.9328C190.507 89.9328 190.125 89.7788 189.837 89.4708C189.549 89.1628 189.405 88.7748 189.405 88.3068C189.405 87.8388 189.545 87.4508 189.825 87.1428C190.109 86.8348 190.481 86.6808 190.941 86.6808C191.329 86.6808 191.645 86.7828 191.889 86.9868C192.133 87.1908 192.283 87.4648 192.339 87.8088H191.541C191.513 87.6688 191.449 87.5548 191.349 87.4668C191.249 87.3788 191.125 87.3348 190.977 87.3348C190.737 87.3348 190.553 87.4208 190.425 87.5928C190.297 87.7648 190.233 88.0028 190.233 88.3068C190.233 88.6068 190.295 88.8448 190.419 89.0208C190.543 89.1928 190.725 89.2788 190.965 89.2788C191.321 89.2788 191.527 89.1048 191.583 88.7568H192.369C192.341 89.0968 192.203 89.3788 191.955 89.6028C191.707 89.8228 191.383 89.9328 190.983 89.9328ZM193.511 86.7648V87.2568H193.529C193.625 87.0768 193.731 86.9448 193.847 86.8608C193.963 86.7728 194.109 86.7288 194.285 86.7288C194.369 86.7288 194.433 86.7368 194.477 86.7528V87.4668H194.459C194.183 87.4388 193.961 87.4988 193.793 87.6468C193.625 87.7948 193.541 88.0268 193.541 88.3428V89.8428H192.725V86.7648H193.511ZM197.558 89.8428H196.772V89.4828H196.754C196.642 89.6348 196.518 89.7468 196.382 89.8188C196.25 89.8908 196.08 89.9268 195.872 89.9268C195.536 89.9268 195.274 89.8268 195.086 89.6268C194.898 89.4268 194.804 89.1568 194.804 88.8168V86.7648H195.614V88.6788C195.614 89.0508 195.784 89.2368 196.124 89.2368C196.312 89.2368 196.462 89.1728 196.574 89.0448C196.686 88.9168 196.742 88.7488 196.742 88.5408V86.7648H197.558V89.8428ZM198.086 89.8428V86.7648H198.902V89.8428H198.086ZM198.086 86.2848V85.5528H198.902V86.2848H198.086ZM199.248 87.3048V86.7648H199.674V85.8048H200.472V86.7648H201V87.3048H200.472V88.9368C200.472 89.1408 200.574 89.2428 200.778 89.2428L201.018 89.2368V89.8368C200.894 89.8448 200.724 89.8488 200.508 89.8488C200.272 89.8488 200.074 89.7928 199.914 89.6808C199.754 89.5648 199.674 89.3748 199.674 89.1108V87.3048H199.248ZM202.837 89.9328C202.341 89.9328 201.951 89.7808 201.667 89.4768C201.383 89.1688 201.241 88.7768 201.241 88.3008C201.241 87.8408 201.383 87.4568 201.667 87.1488C201.951 86.8368 202.315 86.6808 202.759 86.6808C203.243 86.6808 203.617 86.8488 203.881 87.1848C204.145 87.5208 204.277 87.9708 204.277 88.5348H202.045C202.077 88.7788 202.159 88.9688 202.291 89.1048C202.423 89.2368 202.603 89.3028 202.831 89.3028C203.131 89.3028 203.329 89.1768 203.425 88.9248H204.229C204.169 89.2128 204.017 89.4528 203.773 89.6448C203.529 89.8368 203.217 89.9328 202.837 89.9328ZM202.771 87.3108C202.375 87.3108 202.137 87.5308 202.057 87.9708H203.425C203.413 87.7748 203.347 87.6168 203.227 87.4968C203.107 87.3728 202.955 87.3108 202.771 87.3108ZM205.441 86.7648V87.2568H205.459C205.555 87.0768 205.661 86.9448 205.777 86.8608C205.893 86.7728 206.039 86.7288 206.215 86.7288C206.299 86.7288 206.363 86.7368 206.407 86.7528V87.4668H206.389C206.113 87.4388 205.891 87.4988 205.723 87.6468C205.555 87.7948 205.471 88.0268 205.471 88.3428V89.8428H204.655V86.7648H205.441ZM206.353 89.8428V88.9728H207.229V89.8428H206.353ZM210.659 89.9328C210.055 89.9328 209.559 89.7248 209.171 89.3088C208.787 88.8888 208.595 88.3568 208.595 87.7128C208.595 87.0648 208.783 86.5288 209.159 86.1048C209.535 85.6808 210.033 85.4688 210.653 85.4688C211.165 85.4688 211.575 85.6048 211.883 85.8768C212.195 86.1448 212.375 86.4908 212.423 86.9148H211.559C211.519 86.6948 211.419 86.5208 211.259 86.3928C211.103 86.2648 210.901 86.2008 210.653 86.2008C210.273 86.2008 209.983 86.3408 209.783 86.6208C209.583 86.9008 209.483 87.2648 209.483 87.7128C209.483 88.1568 209.589 88.5188 209.801 88.7988C210.017 89.0788 210.303 89.2188 210.659 89.2188C210.911 89.2188 211.121 89.1508 211.289 89.0148C211.457 88.8748 211.555 88.6908 211.583 88.4628H212.435C212.411 88.8668 212.253 89.2048 211.961 89.4768C211.637 89.7808 211.203 89.9328 210.659 89.9328ZM212.829 89.8428V85.5528H213.645V89.8428H212.829ZM214.182 89.8428V86.7648H214.998V89.8428H214.182ZM214.182 86.2848V85.5528H214.998V86.2848H214.182ZM216.952 89.9328C216.476 89.9328 216.094 89.7788 215.806 89.4708C215.518 89.1628 215.374 88.7748 215.374 88.3068C215.374 87.8388 215.514 87.4508 215.794 87.1428C216.078 86.8348 216.45 86.6808 216.91 86.6808C217.298 86.6808 217.614 86.7828 217.858 86.9868C218.102 87.1908 218.252 87.4648 218.308 87.8088H217.51C217.482 87.6688 217.418 87.5548 217.318 87.4668C217.218 87.3788 217.094 87.3348 216.946 87.3348C216.706 87.3348 216.522 87.4208 216.394 87.5928C216.266 87.7648 216.202 88.0028 216.202 88.3068C216.202 88.6068 216.264 88.8448 216.388 89.0208C216.512 89.1928 216.694 89.2788 216.934 89.2788C217.29 89.2788 217.496 89.1048 217.552 88.7568H218.338C218.31 89.0968 218.172 89.3788 217.924 89.6028C217.676 89.8228 217.352 89.9328 216.952 89.9328ZM220.722 89.8428L219.858 88.4388L219.504 88.8048V89.8428H218.694V85.5528H219.504V87.9288L220.596 86.7648H221.574L220.44 87.9348L221.712 89.8428H220.722ZM224.915 89.8428C224.875 89.7908 224.843 89.6768 224.819 89.5008H224.807C224.719 89.6328 224.607 89.7348 224.471 89.8068C224.335 89.8788 224.145 89.9148 223.901 89.9148C223.577 89.9148 223.317 89.8328 223.121 89.6688C222.925 89.5048 222.827 89.2728 222.827 88.9728C222.827 88.6608 222.935 88.4328 223.151 88.2888C223.367 88.1408 223.671 88.0388 224.063 87.9828C224.351 87.9428 224.547 87.9028 224.651 87.8628C224.755 87.8188 224.807 87.7428 224.807 87.6348C224.807 87.5228 224.763 87.4348 224.675 87.3708C224.587 87.3028 224.459 87.2688 224.291 87.2688C223.919 87.2688 223.721 87.4128 223.697 87.7008H222.971C222.983 87.4088 223.101 87.1668 223.325 86.9748C223.549 86.7828 223.873 86.6868 224.297 86.6868C225.161 86.6868 225.593 87.0648 225.593 87.8208V89.3868C225.593 89.6188 225.629 89.7608 225.701 89.8128V89.8428H224.915ZM224.099 89.3448C224.323 89.3448 224.499 89.2868 224.627 89.1708C224.759 89.0548 224.825 88.9168 224.825 88.7568V88.2948C224.737 88.3468 224.547 88.4068 224.255 88.4748C224.023 88.5268 223.859 88.5868 223.763 88.6548C223.667 88.7188 223.619 88.8188 223.619 88.9548C223.619 89.2148 223.779 89.3448 224.099 89.3448ZM227.54 89.9328C227.064 89.9328 226.682 89.7788 226.394 89.4708C226.106 89.1628 225.962 88.7748 225.962 88.3068C225.962 87.8388 226.102 87.4508 226.382 87.1428C226.666 86.8348 227.038 86.6808 227.498 86.6808C227.886 86.6808 228.202 86.7828 228.446 86.9868C228.69 87.1908 228.84 87.4648 228.896 87.8088H228.098C228.07 87.6688 228.006 87.5548 227.906 87.4668C227.806 87.3788 227.682 87.3348 227.534 87.3348C227.294 87.3348 227.11 87.4208 226.982 87.5928C226.854 87.7648 226.79 88.0028 226.79 88.3068C226.79 88.6068 226.852 88.8448 226.976 89.0208C227.1 89.1928 227.282 89.2788 227.522 89.2788C227.878 89.2788 228.084 89.1048 228.14 88.7568H228.926C228.898 89.0968 228.76 89.3788 228.512 89.6028C228.264 89.8228 227.94 89.9328 227.54 89.9328ZM230.71 89.9328C230.234 89.9328 229.852 89.7788 229.564 89.4708C229.276 89.1628 229.132 88.7748 229.132 88.3068C229.132 87.8388 229.272 87.4508 229.552 87.1428C229.836 86.8348 230.208 86.6808 230.668 86.6808C231.056 86.6808 231.372 86.7828 231.616 86.9868C231.86 87.1908 232.01 87.4648 232.066 87.8088H231.268C231.24 87.6688 231.176 87.5548 231.076 87.4668C230.976 87.3788 230.852 87.3348 230.704 87.3348C230.464 87.3348 230.28 87.4208 230.152 87.5928C230.024 87.7648 229.96 88.0028 229.96 88.3068C229.96 88.6068 230.022 88.8448 230.146 89.0208C230.27 89.1928 230.452 89.2788 230.692 89.2788C231.048 89.2788 231.254 89.1048 231.31 88.7568H232.096C232.068 89.0968 231.93 89.3788 231.682 89.6028C231.434 89.8228 231.11 89.9328 230.71 89.9328ZM233.898 89.9328C233.402 89.9328 233.012 89.7808 232.728 89.4768C232.444 89.1688 232.302 88.7768 232.302 88.3008C232.302 87.8408 232.444 87.4568 232.728 87.1488C233.012 86.8368 233.376 86.6808 233.82 86.6808C234.304 86.6808 234.678 86.8488 234.942 87.1848C235.206 87.5208 235.338 87.9708 235.338 88.5348H233.106C233.138 88.7788 233.22 88.9688 233.352 89.1048C233.484 89.2368 233.664 89.3028 233.892 89.3028C234.192 89.3028 234.39 89.1768 234.486 88.9248H235.29C235.23 89.2128 235.078 89.4528 234.834 89.6448C234.59 89.8368 234.278 89.9328 233.898 89.9328ZM233.832 87.3108C233.436 87.3108 233.198 87.5308 233.118 87.9708H234.486C234.474 87.7748 234.408 87.6168 234.288 87.4968C234.168 87.3728 234.016 87.3108 233.832 87.3108ZM235.715 90.8508V86.7648H236.501V87.1488H236.519C236.747 86.8368 237.049 86.6808 237.425 86.6808C237.829 86.6808 238.153 86.8308 238.397 87.1308C238.641 87.4308 238.763 87.8228 238.763 88.3068C238.763 88.8028 238.641 89.1988 238.397 89.4948C238.153 89.7868 237.831 89.9328 237.431 89.9328C237.031 89.9328 236.735 89.7868 236.543 89.4948H236.531V90.8508H235.715ZM237.257 89.2548C237.465 89.2548 237.629 89.1728 237.749 89.0088C237.873 88.8448 237.935 88.6188 237.935 88.3308C237.935 88.0228 237.877 87.7808 237.761 87.6048C237.645 87.4288 237.467 87.3408 237.227 87.3408C236.983 87.3408 236.803 87.4328 236.687 87.6168C236.571 87.7968 236.513 88.0348 236.513 88.3308C236.513 88.6148 236.577 88.8408 236.705 89.0088C236.833 89.1728 237.017 89.2548 237.257 89.2548ZM238.875 87.3048V86.7648H239.301V85.8048H240.099V86.7648H240.627V87.3048H240.099V88.9368C240.099 89.1408 240.201 89.2428 240.405 89.2428L240.645 89.2368V89.8368C240.521 89.8448 240.351 89.8488 240.135 89.8488C239.899 89.8488 239.701 89.7928 239.541 89.6808C239.381 89.5648 239.301 89.3748 239.301 89.1108V87.3048H238.875ZM241.875 87.3048V86.7648H242.301V85.8048H243.099V86.7648H243.627V87.3048H243.099V88.9368C243.099 89.1408 243.201 89.2428 243.405 89.2428L243.645 89.2368V89.8368C243.521 89.8448 243.351 89.8488 243.135 89.8488C242.899 89.8488 242.701 89.7928 242.541 89.6808C242.381 89.5648 242.301 89.3748 242.301 89.1108V87.3048H241.875ZM246.634 89.4708C246.334 89.7788 245.948 89.9328 245.476 89.9328C245.004 89.9328 244.618 89.7788 244.318 89.4708C244.018 89.1588 243.868 88.7708 243.868 88.3068C243.868 87.8428 244.018 87.4568 244.318 87.1488C244.618 86.8368 245.004 86.6808 245.476 86.6808C245.948 86.6808 246.334 86.8368 246.634 87.1488C246.934 87.4568 247.084 87.8428 247.084 88.3068C247.084 88.7708 246.934 89.1588 246.634 89.4708ZM245.476 89.3088C245.72 89.3088 245.91 89.2188 246.046 89.0388C246.186 88.8548 246.256 88.6108 246.256 88.3068C246.256 88.0028 246.186 87.7588 246.046 87.5748C245.91 87.3908 245.72 87.2988 245.476 87.2988C245.228 87.2988 245.036 87.3908 244.9 87.5748C244.764 87.7548 244.696 87.9988 244.696 88.3068C244.696 88.6108 244.764 88.8548 244.9 89.0388C245.036 89.2188 245.228 89.3088 245.476 89.3088ZM46.084 95.3288V94.7648H46.504V94.4888C46.504 94.1288 46.628 93.8728 46.876 93.7208C47.124 93.5688 47.456 93.5148 47.872 93.5588V94.1888C47.668 94.1808 47.524 94.1988 47.44 94.2428C47.36 94.2868 47.32 94.3848 47.32 94.5368V94.7648H47.872V95.3288H47.32V97.8428H46.504V95.3288H46.084ZM48.2445 97.8428V94.7648H49.0605V97.8428H48.2445ZM48.2445 94.2848V93.5528H49.0605V94.2848H48.2445ZM50.3843 94.7648V95.1848H50.4023C50.6143 94.8488 50.9183 94.6808 51.3143 94.6808C51.6303 94.6808 51.8863 94.7888 52.0823 95.0048C52.2783 95.2168 52.3763 95.4928 52.3763 95.8328V97.8428H51.5603V95.9528C51.5603 95.7848 51.5123 95.6488 51.4163 95.5448C51.3243 95.4408 51.1943 95.3888 51.0263 95.3888C50.8463 95.3888 50.6963 95.4548 50.5763 95.5868C50.4603 95.7188 50.4023 95.8888 50.4023 96.0968V97.8428H49.5863V94.7648H50.3843ZM54.8172 97.8428C54.7772 97.7908 54.7452 97.6768 54.7212 97.5008H54.7092C54.6212 97.6328 54.5092 97.7348 54.3732 97.8068C54.2372 97.8788 54.0472 97.9148 53.8032 97.9148C53.4792 97.9148 53.2192 97.8328 53.0232 97.6688C52.8272 97.5048 52.7292 97.2728 52.7292 96.9728C52.7292 96.6608 52.8372 96.4328 53.0532 96.2888C53.2692 96.1408 53.5732 96.0388 53.9652 95.9828C54.2532 95.9428 54.4492 95.9028 54.5532 95.8628C54.6572 95.8188 54.7092 95.7428 54.7092 95.6348C54.7092 95.5228 54.6652 95.4348 54.5772 95.3708C54.4892 95.3028 54.3612 95.2688 54.1932 95.2688C53.8212 95.2688 53.6232 95.4128 53.5992 95.7008H52.8732C52.8852 95.4088 53.0032 95.1668 53.2272 94.9748C53.4512 94.7828 53.7752 94.6868 54.1992 94.6868C55.0632 94.6868 55.4952 95.0648 55.4952 95.8208V97.3868C55.4952 97.6188 55.5312 97.7608 55.6032 97.8128V97.8428H54.8172ZM54.0012 97.3448C54.2252 97.3448 54.4012 97.2868 54.5292 97.1708C54.6612 97.0548 54.7272 96.9168 54.7272 96.7568V96.2948C54.6392 96.3468 54.4492 96.4068 54.1572 96.4748C53.9252 96.5268 53.7612 96.5868 53.6652 96.6548C53.5692 96.7188 53.5212 96.8188 53.5212 96.9548C53.5212 97.2148 53.6812 97.3448 54.0012 97.3448ZM56.026 97.8428V93.5528H56.842V97.8428H56.026ZM57.3792 97.8428V94.7648H58.1952V97.8428H57.3792ZM57.3792 94.2848V93.5528H58.1952V94.2848H57.3792ZM59.969 97.9328C59.529 97.9328 59.185 97.8368 58.937 97.6448C58.689 97.4488 58.553 97.1828 58.529 96.8468H59.285C59.337 97.1868 59.561 97.3568 59.957 97.3568C60.137 97.3568 60.275 97.3248 60.371 97.2608C60.471 97.1968 60.521 97.1108 60.521 97.0028C60.521 96.9628 60.513 96.9268 60.497 96.8948C60.485 96.8628 60.461 96.8348 60.425 96.8108C60.393 96.7828 60.363 96.7608 60.335 96.7448C60.311 96.7288 60.267 96.7128 60.203 96.6968C60.139 96.6808 60.089 96.6688 60.053 96.6608C60.021 96.6528 59.963 96.6428 59.879 96.6308C59.799 96.6148 59.743 96.6028 59.711 96.5948C59.543 96.5628 59.405 96.5308 59.297 96.4988C59.193 96.4628 59.083 96.4128 58.967 96.3488C58.851 96.2808 58.763 96.1908 58.703 96.0788C58.647 95.9628 58.619 95.8248 58.619 95.6648C58.619 95.3448 58.735 95.1008 58.967 94.9328C59.203 94.7648 59.505 94.6808 59.873 94.6808C60.269 94.6808 60.579 94.7728 60.803 94.9568C61.031 95.1368 61.161 95.3848 61.193 95.7008H60.455C60.423 95.4008 60.225 95.2508 59.861 95.2508C59.697 95.2508 59.567 95.2808 59.471 95.3408C59.379 95.4008 59.333 95.4848 59.333 95.5928C59.333 95.6288 59.339 95.6628 59.351 95.6948C59.367 95.7228 59.391 95.7488 59.423 95.7728C59.459 95.7928 59.493 95.8108 59.525 95.8268C59.557 95.8388 59.603 95.8528 59.663 95.8688C59.723 95.8808 59.775 95.8928 59.819 95.9048C59.863 95.9128 59.923 95.9248 59.999 95.9408C60.075 95.9528 60.135 95.9628 60.179 95.9708C60.307 95.9988 60.411 96.0248 60.491 96.0488C60.575 96.0688 60.671 96.1048 60.779 96.1568C60.887 96.2048 60.971 96.2608 61.031 96.3248C61.095 96.3848 61.149 96.4688 61.193 96.5768C61.241 96.6808 61.265 96.8028 61.265 96.9428C61.265 97.2468 61.145 97.4888 60.905 97.6688C60.669 97.8448 60.357 97.9328 59.969 97.9328ZM63.1084 97.9328C62.6124 97.9328 62.2224 97.7808 61.9384 97.4768C61.6544 97.1688 61.5124 96.7768 61.5124 96.3008C61.5124 95.8408 61.6544 95.4568 61.9384 95.1488C62.2224 94.8368 62.5864 94.6808 63.0304 94.6808C63.5144 94.6808 63.8884 94.8488 64.1524 95.1848C64.4164 95.5208 64.5484 95.9708 64.5484 96.5348H62.3164C62.3484 96.7788 62.4304 96.9688 62.5624 97.1048C62.6944 97.2368 62.8744 97.3028 63.1024 97.3028C63.4024 97.3028 63.6004 97.1768 63.6964 96.9248H64.5004C64.4404 97.2128 64.2884 97.4528 64.0444 97.6448C63.8004 97.8368 63.4884 97.9328 63.1084 97.9328ZM63.0424 95.3108C62.6464 95.3108 62.4084 95.5308 62.3284 95.9708H63.6964C63.6844 95.7748 63.6184 95.6168 63.4984 95.4968C63.3784 95.3728 63.2264 95.3108 63.0424 95.3108ZM66.7199 94.7648V95.2568H66.7379C66.8339 95.0768 66.9399 94.9448 67.0559 94.8608C67.1719 94.7728 67.3179 94.7288 67.4939 94.7288C67.5779 94.7288 67.6419 94.7368 67.6859 94.7528V95.4668H67.6679C67.3919 95.4388 67.1699 95.4988 67.0019 95.6468C66.8339 95.7948 66.7499 96.0268 66.7499 96.3428V97.8428H65.9339V94.7648H66.7199ZM69.3955 97.9328C68.8995 97.9328 68.5095 97.7808 68.2255 97.4768C67.9415 97.1688 67.7995 96.7768 67.7995 96.3008C67.7995 95.8408 67.9415 95.4568 68.2255 95.1488C68.5095 94.8368 68.8735 94.6808 69.3175 94.6808C69.8015 94.6808 70.1755 94.8488 70.4395 95.1848C70.7035 95.5208 70.8355 95.9708 70.8355 96.5348H68.6035C68.6355 96.7788 68.7175 96.9688 68.8495 97.1048C68.9815 97.2368 69.1615 97.3028 69.3895 97.3028C69.6895 97.3028 69.8875 97.1768 69.9835 96.9248H70.7875C70.7275 97.2128 70.5755 97.4528 70.3315 97.6448C70.0875 97.8368 69.7755 97.9328 69.3955 97.9328ZM69.3295 95.3108C68.9335 95.3108 68.6955 95.5308 68.6155 95.9708H69.9835C69.9715 95.7748 69.9055 95.6168 69.7855 95.4968C69.6655 95.3728 69.5135 95.3108 69.3295 95.3108ZM72.6412 97.9328C72.1652 97.9328 71.7832 97.7788 71.4952 97.4708C71.2072 97.1628 71.0632 96.7748 71.0632 96.3068C71.0632 95.8388 71.2032 95.4508 71.4832 95.1428C71.7672 94.8348 72.1392 94.6808 72.5992 94.6808C72.9872 94.6808 73.3032 94.7828 73.5472 94.9868C73.7912 95.1908 73.9412 95.4648 73.9972 95.8088H73.1992C73.1712 95.6688 73.1072 95.5548 73.0072 95.4668C72.9072 95.3788 72.7832 95.3348 72.6352 95.3348C72.3952 95.3348 72.2112 95.4208 72.0832 95.5928C71.9552 95.7648 71.8912 96.0028 71.8912 96.3068C71.8912 96.6068 71.9532 96.8448 72.0772 97.0208C72.2012 97.1928 72.3832 97.2788 72.6232 97.2788C72.9792 97.2788 73.1852 97.1048 73.2412 96.7568H74.0272C73.9992 97.0968 73.8612 97.3788 73.6132 97.6028C73.3652 97.8228 73.0412 97.9328 72.6412 97.9328ZM75.1691 94.7648V95.2568H75.1871C75.2831 95.0768 75.3891 94.9448 75.5051 94.8608C75.6211 94.7728 75.7671 94.7288 75.9431 94.7288C76.0271 94.7288 76.0911 94.7368 76.1351 94.7528V95.4668H76.1171C75.8411 95.4388 75.6191 95.4988 75.4511 95.6468C75.2831 95.7948 75.1991 96.0268 75.1991 96.3428V97.8428H74.3831V94.7648H75.1691ZM79.2167 97.8428H78.4307V97.4828H78.4127C78.3007 97.6348 78.1767 97.7468 78.0407 97.8188C77.9087 97.8908 77.7387 97.9268 77.5307 97.9268C77.1947 97.9268 76.9327 97.8268 76.7447 97.6268C76.5567 97.4268 76.4627 97.1568 76.4627 96.8168V94.7648H77.2727V96.6788C77.2727 97.0508 77.4427 97.2368 77.7827 97.2368C77.9707 97.2368 78.1207 97.1728 78.2327 97.0448C78.3447 96.9168 78.4007 96.7488 78.4007 96.5408V94.7648H79.2167V97.8428ZM79.7445 97.8428V94.7648H80.5605V97.8428H79.7445ZM79.7445 94.2848V93.5528H80.5605V94.2848H79.7445ZM80.9063 95.3048V94.7648H81.3323V93.8048H82.1303V94.7648H82.6583V95.3048H82.1303V96.9368C82.1303 97.1408 82.2323 97.2428 82.4363 97.2428L82.6763 97.2368V97.8368C82.5523 97.8448 82.3823 97.8488 82.1663 97.8488C81.9303 97.8488 81.7323 97.7928 81.5723 97.6808C81.4123 97.5648 81.3323 97.3748 81.3323 97.1108V95.3048H80.9063ZM83.0785 97.8428V94.7648H83.8645V95.1788H83.8825C84.0785 94.8468 84.3765 94.6808 84.7765 94.6808C84.9685 94.6808 85.1385 94.7308 85.2865 94.8308C85.4385 94.9268 85.5525 95.0568 85.6285 95.2208H85.6405C85.8645 94.8608 86.1725 94.6808 86.5645 94.6808C86.8845 94.6808 87.1325 94.7788 87.3085 94.9748C87.4885 95.1668 87.5785 95.4328 87.5785 95.7728V97.8428H86.7625V95.9108C86.7625 95.5588 86.6045 95.3828 86.2885 95.3828C86.1165 95.3828 85.9805 95.4448 85.8805 95.5688C85.7845 95.6888 85.7365 95.8508 85.7365 96.0548V97.8428H84.9205V95.9108C84.9205 95.5588 84.7625 95.3828 84.4465 95.3828C84.2825 95.3828 84.1485 95.4448 84.0445 95.5688C83.9445 95.6888 83.8945 95.8508 83.8945 96.0548V97.8428H83.0785ZM89.5284 97.9328C89.0324 97.9328 88.6424 97.7808 88.3584 97.4768C88.0744 97.1688 87.9324 96.7768 87.9324 96.3008C87.9324 95.8408 88.0744 95.4568 88.3584 95.1488C88.6424 94.8368 89.0064 94.6808 89.4504 94.6808C89.9344 94.6808 90.3084 94.8488 90.5724 95.1848C90.8364 95.5208 90.9684 95.9708 90.9684 96.5348H88.7364C88.7684 96.7788 88.8504 96.9688 88.9824 97.1048C89.1144 97.2368 89.2944 97.3028 89.5224 97.3028C89.8224 97.3028 90.0204 97.1768 90.1164 96.9248H90.9204C90.8604 97.2128 90.7084 97.4528 90.4644 97.6448C90.2204 97.8368 89.9084 97.9328 89.5284 97.9328ZM89.4624 95.3108C89.0664 95.3108 88.8284 95.5308 88.7484 95.9708H90.1164C90.1044 95.7748 90.0384 95.6168 89.9184 95.4968C89.7984 95.3728 89.6464 95.3108 89.4624 95.3108ZM92.144 94.7648V95.1848H92.162C92.374 94.8488 92.678 94.6808 93.074 94.6808C93.39 94.6808 93.646 94.7888 93.842 95.0048C94.038 95.2168 94.136 95.4928 94.136 95.8328V97.8428H93.32V95.9528C93.32 95.7848 93.272 95.6488 93.176 95.5448C93.084 95.4408 92.954 95.3888 92.786 95.3888C92.606 95.3888 92.456 95.4548 92.336 95.5868C92.22 95.7188 92.162 95.8888 92.162 96.0968V97.8428H91.346V94.7648H92.144ZM94.4004 95.3048V94.7648H94.8264V93.8048H95.6244V94.7648H96.1524V95.3048H95.6244V96.9368C95.6244 97.1408 95.7264 97.2428 95.9304 97.2428L96.1704 97.2368V97.8368C96.0464 97.8448 95.8764 97.8488 95.6604 97.8488C95.4244 97.8488 95.2264 97.7928 95.0664 97.6808C94.9064 97.5648 94.8264 97.3748 94.8264 97.1108V95.3048H94.4004Z" fill="black"/>
<rect x="46.5" y="108.343" width="216" height="26.5225" rx="3.5" fill="url(#paint4_linear_114_851)"/>
<rect x="46.5" y="108.343" width="216" height="26.5225" rx="3.5" stroke="#FAFAFA"/>
<rect x="49" y="110.843" width="50" height="21.5225" rx="2.5" fill="white"/>
<rect x="49" y="110.843" width="50" height="21.5225" rx="2.5" stroke="#F4F4F4"/>
<line x1="66" y1="115.343" x2="66" y2="127.865" stroke="#EDEDED"/>
<line x1="69" y1="115.343" x2="69" y2="127.865" stroke="#EDEDED"/>
<line x1="72" y1="115.343" x2="72" y2="127.865" stroke="#EDEDED"/>
<line x1="75" y1="115.343" x2="75" y2="127.865" stroke="#EDEDED"/>
<line x1="78" y1="115.343" x2="78" y2="127.865" stroke="#EDEDED"/>
<line x1="81" y1="115.343" x2="81" y2="127.865" stroke="#EDEDED"/>
<path d="M140.104 121.604H132.604M138.104 119.104L139.896 120.897C140.23 121.23 140.396 121.397 140.396 121.604C140.396 121.811 140.23 121.978 139.896 122.311L138.104 124.104M155.104 121.604H147.604M153.104 119.104L154.896 120.897C155.23 121.23 155.396 121.397 155.396 121.604C155.396 121.811 155.23 121.978 154.896 122.311L153.104 124.104M170.104 121.604H162.604M168.104 119.104L169.896 120.897C170.23 121.23 170.396 121.397 170.396 121.604C170.396 121.811 170.23 121.978 169.896 122.311L168.104 124.104M185.104 121.604H177.604M183.104 119.104L184.896 120.897C185.23 121.23 185.396 121.397 185.396 121.604C185.396 121.811 185.23 121.978 184.896 122.311L183.104 124.104M200.104 121.604H192.604M198.104 119.104L199.896 120.897C200.23 121.23 200.396 121.397 200.396 121.604C200.396 121.811 200.23 121.978 199.896 122.311L198.104 124.104" stroke="url(#paint5_linear_114_851)" stroke-width="1.5" stroke-linecap="round" stroke-linejoin="round"/>
<path d="M212.414 123.604L213.908 119.314H214.808L216.32 123.604H215.414L215.126 122.692H213.578L213.296 123.604H212.414ZM214.166 120.79L213.782 122.026H214.916L214.532 120.79L214.358 120.13H214.346C214.274 120.418 214.214 120.638 214.166 120.79ZM217.926 123.694C217.45 123.694 217.068 123.54 216.78 123.232C216.492 122.924 216.348 122.536 216.348 122.068C216.348 121.6 216.488 121.212 216.768 120.904C217.052 120.596 217.424 120.442 217.884 120.442C218.272 120.442 218.588 120.544 218.832 120.748C219.076 120.952 219.226 121.226 219.282 121.57H218.484C218.456 121.43 218.392 121.316 218.292 121.228C218.192 121.14 218.068 121.096 217.92 121.096C217.68 121.096 217.496 121.182 217.368 121.354C217.24 121.526 217.176 121.764 217.176 122.068C217.176 122.368 217.238 122.606 217.362 122.782C217.486 122.954 217.668 123.04 217.908 123.04C218.264 123.04 218.47 122.866 218.526 122.518H219.312C219.284 122.858 219.146 123.14 218.898 123.364C218.65 123.584 218.326 123.694 217.926 123.694ZM221.096 123.694C220.62 123.694 220.238 123.54 219.95 123.232C219.662 122.924 219.518 122.536 219.518 122.068C219.518 121.6 219.658 121.212 219.938 120.904C220.222 120.596 220.594 120.442 221.054 120.442C221.442 120.442 221.758 120.544 222.002 120.748C222.246 120.952 222.396 121.226 222.452 121.57H221.654C221.626 121.43 221.562 121.316 221.462 121.228C221.362 121.14 221.238 121.096 221.09 121.096C220.85 121.096 220.666 121.182 220.538 121.354C220.41 121.526 220.346 121.764 220.346 122.068C220.346 122.368 220.408 122.606 220.532 122.782C220.656 122.954 220.838 123.04 221.078 123.04C221.434 123.04 221.64 122.866 221.696 122.518H222.482C222.454 122.858 222.316 123.14 222.068 123.364C221.82 123.584 221.496 123.694 221.096 123.694ZM224.284 123.694C223.788 123.694 223.398 123.542 223.114 123.238C222.83 122.93 222.688 122.538 222.688 122.062C222.688 121.602 222.83 121.218 223.114 120.91C223.398 120.598 223.762 120.442 224.206 120.442C224.69 120.442 225.064 120.61 225.328 120.946C225.592 121.282 225.724 121.732 225.724 122.296H223.492C223.524 122.54 223.606 122.73 223.738 122.866C223.87 122.998 224.05 123.064 224.278 123.064C224.578 123.064 224.776 122.938 224.872 122.686H225.676C225.616 122.974 225.464 123.214 225.22 123.406C224.976 123.598 224.664 123.694 224.284 123.694ZM224.218 121.072C223.822 121.072 223.584 121.292 223.504 121.732H224.872C224.86 121.536 224.794 121.378 224.674 121.258C224.554 121.134 224.402 121.072 224.218 121.072ZM226.102 124.612V120.526H226.888V120.91H226.906C227.134 120.598 227.436 120.442 227.812 120.442C228.216 120.442 228.54 120.592 228.784 120.892C229.028 121.192 229.15 121.584 229.15 122.068C229.15 122.564 229.028 122.96 228.784 123.256C228.54 123.548 228.218 123.694 227.818 123.694C227.418 123.694 227.122 123.548 226.93 123.256H226.918V124.612H226.102ZM227.644 123.016C227.852 123.016 228.016 122.934 228.136 122.77C228.26 122.606 228.322 122.38 228.322 122.092C228.322 121.784 228.264 121.542 228.148 121.366C228.032 121.19 227.854 121.102 227.614 121.102C227.37 121.102 227.19 121.194 227.074 121.378C226.958 121.558 226.9 121.796 226.9 122.092C226.9 122.376 226.964 122.602 227.092 122.77C227.22 122.934 227.404 123.016 227.644 123.016ZM229.262 121.066V120.526H229.688V119.566H230.486V120.526H231.014V121.066H230.486V122.698C230.486 122.902 230.588 123.004 230.792 123.004L231.032 122.998V123.598C230.908 123.606 230.738 123.61 230.522 123.61C230.286 123.61 230.088 123.554 229.928 123.442C229.768 123.326 229.688 123.136 229.688 122.872V121.066H229.262Z" fill="black"/>
<rect x="295.5" y="32.5" width="299" height="150" rx="19.5" fill="white"/>
<rect x="295.5" y="32.5" width="299" height="150" rx="19.5" stroke="url(#paint6_linear_114_851)"/>
<rect x="301.464" y="37.4644" width="287.071" height="138.071" rx="17.1156" fill="#F8F8F8"/>
<rect x="301.464" y="37.4644" width="287.071" height="138.071" rx="17.1156" stroke="#F6F6F6" stroke-width="0.928761"/>
<path d="M0.4 6C0.4 2.90721 2.90721 0.4 6 0.4H533C535.541 0.4 537.6 2.45949 537.6 5V16.6H0.4V6Z" fill="#FFFDFC"/>
<path d="M0.4 6C0.4 2.90721 2.90721 0.4 6 0.4H533C535.541 0.4 537.6 2.45949 537.6 5V16.6H0.4V6Z" stroke="#F4F5F7" stroke-width="0.8"/>
<circle cx="12" cy="8.5" r="2" fill="#AF6574"/>
<circle cx="17" cy="8.5" r="2" fill="#E5BF99"/>
<circle cx="22" cy="8.5" r="2" fill="#56967C"/>
<rect x="36" y="6.5" width="387.765" height="4" rx="2" fill="#F2F3F5"/>
</g>
<rect x="0.5" y="0.5" width="537" height="202" rx="7.5" stroke="#F1F1F1"/>
<defs>
<linearGradient id="paint0_linear_114_851" x1="154.5" y1="32" x2="154.5" y2="176" gradientUnits="userSpaceOnUse">
<stop stop-color="#FBFBFB"/>
<stop offset="1" stop-color="white" stop-opacity="0"/>
</linearGradient>
<linearGradient id="paint1_linear_114_851" x1="48.9715" y1="56.8722" x2="63.3416" y2="74.3769" gradientUnits="userSpaceOnUse">
<stop stop-color="#DFFFE6"/>
<stop offset="1" stop-color="#DFFEFF"/>
</linearGradient>
<linearGradient id="paint2_linear_114_851" x1="51.4754" y1="60.4142" x2="54.9356" y2="64.8515" gradientUnits="userSpaceOnUse">
<stop stop-color="#AABAFF"/>
<stop offset="1" stop-color="#00C067"/>
</linearGradient>
<linearGradient id="paint3_linear_114_851" x1="55.4038" y1="66.7647" x2="56.4215" y2="67.9859" gradientUnits="userSpaceOnUse">
<stop stop-color="white"/>
<stop offset="1" stop-color="#C2EFD4"/>
</linearGradient>
<linearGradient id="paint4_linear_114_851" x1="46" y1="121.604" x2="263" y2="121.604" gradientUnits="userSpaceOnUse">
<stop stop-color="white"/>
<stop offset="1" stop-color="#DFFBE5"/>
</linearGradient>
<linearGradient id="paint5_linear_114_851" x1="142.16" y1="121.604" x2="200.396" y2="121.604" gradientUnits="userSpaceOnUse">
<stop stop-color="#141B34" stop-opacity="0"/>
<stop offset="1" stop-color="#141B34"/>
</linearGradient>
<linearGradient id="paint6_linear_114_851" x1="445" y1="32" x2="445" y2="183" gradientUnits="userSpaceOnUse">
<stop stop-color="#FBFBFB"/>
<stop offset="1" stop-color="white" stop-opacity="0"/>
</linearGradient>
<clipPath id="clip0_114_851">
<rect width="538" height="203" rx="8" fill="white"/>
</clipPath>
<clipPath id="clip1_114_851">
<rect width="20.8428" height="20.8428" fill="white" transform="translate(46 55)"/>
</clipPath>
</defs>
</svg>
