<svg width="558" height="123" viewBox="0 0 558 123" fill="none" xmlns="http://www.w3.org/2000/svg">
<g filter="url(#filter0_d_114_629)">
<rect x="6" y="21" width="535" height="160" rx="11" fill="white" shape-rendering="crispEdges"/>
<rect x="6.25" y="21.25" width="534.5" height="159.5" rx="10.75" stroke="#EEEFF1" stroke-width="0.5" shape-rendering="crispEdges"/>
<g filter="url(#filter1_d_114_629)">
<rect x="18" y="33" width="511" height="86.9741" rx="4" fill="white"/>
<rect x="18.5" y="33.5" width="510" height="85.9741" rx="3.5" stroke="#F4F4F4"/>
<rect x="26.25" y="40.25" width="38.5" height="10.6099" rx="5.30493" fill="#EAFBFF"/>
<rect x="26.25" y="40.25" width="38.5" height="10.6099" rx="5.30493" stroke="#E2ECEE" stroke-width="0.5"/>
<path d="M30.79 47.0549V44.4899C30.64 44.6299 30.375 44.6549 30.065 44.6549V44.2149C30.675 44.1999 30.855 44.0149 30.9 43.5999H31.33V47.0549H30.79ZM32.4991 45.5249H31.9541V44.9799H32.4991V45.5249ZM32.4991 47.0549H31.9541V46.5099H32.4991V47.0549ZM33.539 47.0549V44.4899C33.389 44.6299 33.124 44.6549 32.814 44.6549V44.2149C33.424 44.1999 33.604 44.0149 33.649 43.5999H34.079V47.0549H33.539ZM36.403 47.0549H35.853V43.4799H37.343C38.018 43.4799 38.513 43.7949 38.513 44.5449C38.513 45.2949 38.018 45.6049 37.343 45.6049H36.403V47.0549ZM36.403 45.1299H37.318C37.733 45.1299 37.943 44.9449 37.943 44.5449C37.943 44.1399 37.733 43.9549 37.318 43.9549H36.403V45.1299ZM39.4663 47.1249C38.9563 47.1249 38.6313 46.8299 38.6313 46.3949C38.6313 45.8249 39.0613 45.6549 39.6963 45.5349C40.0963 45.4599 40.3413 45.4099 40.3413 45.1599C40.3413 44.9749 40.2313 44.8199 39.8563 44.8199C39.4113 44.8199 39.2763 44.9599 39.2513 45.2999H38.7513C38.7763 44.8099 39.0963 44.4249 39.8763 44.4249C40.4013 44.4249 40.8213 44.6449 40.8213 45.3049V46.4749C40.8213 46.6599 40.8463 46.7549 40.9413 46.7549C40.9563 46.7549 40.9713 46.7549 41.0013 46.7499V47.0499C40.9163 47.0699 40.8313 47.0799 40.7513 47.0799C40.5063 47.0799 40.3763 46.9849 40.3463 46.6949H40.3363C40.1713 46.9599 39.8813 47.1249 39.4663 47.1249ZM39.5763 46.7299C40.0163 46.7299 40.3413 46.5049 40.3413 46.0599V45.6949C40.2613 45.7699 40.0413 45.8249 39.7813 45.8799C39.3313 45.9699 39.1413 46.0949 39.1413 46.3599C39.1413 46.5999 39.2713 46.7299 39.5763 46.7299ZM41.9426 44.0499H41.3876V43.5199H41.9426V44.0499ZM41.9076 47.0549H41.4176V44.5049H41.9076V47.0549ZM43.6426 44.4449C43.7326 44.4449 43.8026 44.4499 43.8776 44.4599V44.9299C43.8176 44.9199 43.7726 44.9149 43.7126 44.9149C43.2676 44.9149 42.9476 45.2499 42.9476 45.7349V47.0549H42.4576V44.5049H42.9476V44.9899H42.9576C43.0926 44.6699 43.2976 44.4449 43.6426 44.4449ZM45.7585 47.0549H45.2085V43.4799H46.6985C47.4885 43.4799 47.9135 43.8499 47.9135 44.5099C47.9135 44.9649 47.6385 45.2949 47.2435 45.3849V45.3949C48.0735 45.5499 47.7685 46.9599 47.9635 47.0199V47.0549H47.3735C47.2135 46.9049 47.5535 45.6549 46.6785 45.6549H45.7585V47.0549ZM45.7585 45.1799H46.5785C47.0835 45.1799 47.3585 44.9599 47.3585 44.5499C47.3585 44.1649 47.1385 43.9549 46.5885 43.9549H45.7585V45.1799ZM50.6961 45.7249C50.6961 45.7949 50.6961 45.8699 50.6911 45.9099H48.7311C48.7411 46.3349 48.9911 46.7299 49.4961 46.7299C49.9461 46.7299 50.1211 46.4399 50.1661 46.2699H50.6661C50.5311 46.7599 50.1561 47.1299 49.4861 47.1299C48.6761 47.1299 48.2261 46.5549 48.2261 45.7749C48.2261 44.9749 48.7061 44.4249 49.4861 44.4249C50.2611 44.4249 50.6961 44.9349 50.6961 45.7249ZM48.7311 45.5249H50.1861C50.1861 45.1249 49.9061 44.8249 49.4711 44.8249C49.0611 44.8249 48.7611 45.1049 48.7311 45.5249ZM52.2518 47.0549H51.7018L50.7918 44.5049H51.3168L51.9868 46.5499H51.9918L52.6518 44.5049H53.1618L52.2518 47.0549ZM53.9982 44.0499H53.4432V43.5199H53.9982V44.0499ZM53.9632 47.0549H53.4732V44.5049H53.9632V47.0549ZM56.8533 45.7249C56.8533 45.7949 56.8533 45.8699 56.8483 45.9099H54.8883C54.8983 46.3349 55.1483 46.7299 55.6533 46.7299C56.1033 46.7299 56.2783 46.4399 56.3233 46.2699H56.8233C56.6883 46.7599 56.3133 47.1299 55.6433 47.1299C54.8333 47.1299 54.3833 46.5549 54.3833 45.7749C54.3833 44.9749 54.8633 44.4249 55.6433 44.4249C56.4183 44.4249 56.8533 44.9349 56.8533 45.7249ZM54.8883 45.5249H56.3433C56.3433 45.1249 56.0633 44.8249 55.6283 44.8249C55.2183 44.8249 54.9183 45.1049 54.8883 45.5249ZM58.2785 47.0549H57.7735L56.9835 44.5049H57.5135L58.0535 46.4799H58.0635L58.5935 44.5049H59.0885L59.6185 46.4799H59.6285L60.1735 44.5049H60.6835L59.8935 47.0549H59.3885L58.8385 45.0899H58.8285L58.2785 47.0549Z" fill="#71878E"/>
<rect x="26.25" y="58.3599" width="19.5" height="19.5" rx="1.75" fill="white"/>
<rect x="26.25" y="58.3599" width="19.5" height="19.5" rx="1.75" stroke="#F8F6F9" stroke-width="0.5"/>
<path fill-rule="evenodd" clip-rule="evenodd" d="M31.3388 62.866C31.017 62.866 30.7561 63.1268 30.7561 63.4486V72.7713C30.7561 73.0931 31.017 73.354 31.3388 73.354H40.6615C40.9833 73.354 41.2441 73.0931 41.2441 72.7713V66.799L37.3111 62.866H31.3388Z" fill="#F2F2F2"/>
<path d="M37.3112 66.799L41.2442 66.799L37.3112 62.866L37.3112 66.799Z" fill="#BDBDBD"/>
<rect x="31.4116" y="68.1101" width="9.17703" height="4.26077" rx="0.320475" fill="#EF4444"/>
<path d="M32.9572 71.4694V69.0112H33.8621C34.0475 69.0112 34.2031 69.0464 34.3288 69.1169C34.4553 69.1873 34.5507 69.2841 34.6151 69.4073C34.6803 69.5297 34.7129 69.669 34.7129 69.825C34.7129 69.9826 34.6803 70.1227 34.6151 70.2451C34.5499 70.3675 34.4537 70.4639 34.3264 70.5344C34.1992 70.604 34.0424 70.6388 33.8563 70.6388H33.2565V70.2727H33.7973C33.9057 70.2727 33.9945 70.2535 34.0637 70.2151C34.1328 70.1767 34.1838 70.1239 34.2168 70.0567C34.2506 69.9894 34.2675 69.9122 34.2675 69.825C34.2675 69.7378 34.2506 69.661 34.2168 69.5946C34.1838 69.5281 34.1324 69.4765 34.0625 69.4397C33.9933 69.4021 33.9042 69.3833 33.795 69.3833H33.3943V71.4694H32.9572Z" fill="white"/>
<path d="M35.9105 71.4694H35.0927V69.0112H35.927C36.1666 69.0112 36.3724 69.0604 36.5444 69.1589C36.7173 69.2565 36.85 69.3969 36.9427 69.5802C37.0354 69.7634 37.0818 69.9826 37.0818 70.2379C37.0818 70.494 37.035 70.714 36.9416 70.898C36.8489 71.0821 36.7149 71.2233 36.5397 71.3217C36.3653 71.4202 36.1556 71.4694 35.9105 71.4694ZM35.5299 71.0841H35.8893C36.0574 71.0841 36.1976 71.0529 36.3099 70.9905C36.4223 70.9272 36.5067 70.8332 36.5633 70.7084C36.6199 70.5828 36.6481 70.4259 36.6481 70.2379C36.6481 70.0499 36.6199 69.8938 36.5633 69.7698C36.5067 69.645 36.4231 69.5517 36.3123 69.4901C36.2023 69.4277 36.0656 69.3965 35.9022 69.3965H35.5299V71.0841Z" fill="white"/>
<path d="M37.4972 71.4694V69.0112H39.0432V69.3845H37.9343V70.0519H38.9371V70.4251H37.9343V71.4694H37.4972Z" fill="white"/>
<path d="M32.9572 71.4694V69.0112H33.8621C34.0475 69.0112 34.2031 69.0464 34.3288 69.1169C34.4553 69.1873 34.5507 69.2841 34.6151 69.4073C34.6803 69.5297 34.7129 69.669 34.7129 69.825C34.7129 69.9826 34.6803 70.1227 34.6151 70.2451C34.5499 70.3675 34.4537 70.4639 34.3264 70.5344C34.1992 70.604 34.0424 70.6388 33.8563 70.6388H33.2565V70.2727H33.7973C33.9057 70.2727 33.9945 70.2535 34.0637 70.2151C34.1328 70.1767 34.1838 70.1239 34.2168 70.0567C34.2506 69.9894 34.2675 69.9122 34.2675 69.825C34.2675 69.7378 34.2506 69.661 34.2168 69.5946C34.1838 69.5281 34.1324 69.4765 34.0625 69.4397C33.9933 69.4021 33.9042 69.3833 33.795 69.3833H33.3943V71.4694H32.9572Z" stroke="white" stroke-width="0.145667"/>
<path d="M35.9105 71.4694H35.0927V69.0112H35.927C36.1666 69.0112 36.3724 69.0604 36.5444 69.1589C36.7173 69.2565 36.85 69.3969 36.9427 69.5802C37.0354 69.7634 37.0818 69.9826 37.0818 70.2379C37.0818 70.494 37.035 70.714 36.9416 70.898C36.8489 71.0821 36.7149 71.2233 36.5397 71.3217C36.3653 71.4202 36.1556 71.4694 35.9105 71.4694ZM35.5299 71.0841H35.8893C36.0574 71.0841 36.1976 71.0529 36.3099 70.9905C36.4223 70.9272 36.5067 70.8332 36.5633 70.7084C36.6199 70.5828 36.6481 70.4259 36.6481 70.2379C36.6481 70.0499 36.6199 69.8938 36.5633 69.7698C36.5067 69.645 36.4231 69.5517 36.3123 69.4901C36.2023 69.4277 36.0656 69.3965 35.9022 69.3965H35.5299V71.0841Z" stroke="white" stroke-width="0.145667"/>
<path d="M37.4972 71.4694V69.0112H39.0432V69.3845H37.9343V70.0519H38.9371V70.4251H37.9343V71.4694H37.4972Z" stroke="white" stroke-width="0.145667"/>
<path d="M53.728 64.1099H52.432V58.9619H54.9304C56.0032 58.9619 56.6728 59.5235 56.6728 60.6035C56.6728 61.6835 56.0032 62.2451 54.9304 62.2451H53.728V64.1099ZM53.728 61.1867H54.628C55.0744 61.1867 55.348 61.0355 55.348 60.6035C55.348 60.1715 55.0744 60.0203 54.628 60.0203H53.728V61.1867ZM58.7152 64.2323C57.4984 64.2323 56.7568 63.4403 56.7568 62.2739C56.7568 61.1147 57.4984 60.3011 58.7368 60.3011C59.9536 60.3011 60.6952 61.0931 60.6952 62.2523C60.6952 63.4187 59.9536 64.2323 58.7152 64.2323ZM58.7296 63.3683C59.2408 63.3683 59.5288 62.9795 59.5288 62.2667C59.5288 61.5539 59.2408 61.1651 58.7296 61.1651C58.2112 61.1651 57.9232 61.5539 57.9232 62.2667C57.9232 62.9795 58.2112 63.3683 58.7296 63.3683ZM63.2355 60.3947C63.3363 60.3947 63.4227 60.3947 63.5523 60.4235V61.4315C63.4587 61.4171 63.3939 61.4099 63.3147 61.4099C62.7963 61.4099 62.3211 61.7339 62.3211 62.3963V64.1099H61.1691V60.4235H62.3211V61.0283H62.3355C62.5155 60.6395 62.8323 60.3947 63.2355 60.3947ZM65.7611 63.3179C65.8691 63.3179 65.9339 63.3107 66.0707 63.2891V64.1027C65.8259 64.1603 65.6171 64.1819 65.3867 64.1819C64.5803 64.1819 64.2347 63.8147 64.2347 62.9147V61.2875H63.7235V60.4235H64.2347V59.3939H65.3867V60.4235H66.0275V61.2875H65.3867V62.8859C65.3867 63.2819 65.5379 63.3179 65.7611 63.3179ZM68.3979 59.7611C68.1963 59.7611 68.0451 59.7971 68.0451 60.1931V60.4235H68.6859V61.2875H68.0451V64.1099H66.8931V61.2875H66.3963V60.4235H66.8931V60.1643C66.8931 59.2643 67.2387 58.8971 68.0307 58.8971C68.2467 58.8971 68.4411 58.9187 68.6859 58.9691V59.7827C68.5491 59.7683 68.4915 59.7611 68.3979 59.7611ZM70.7949 64.2323C69.5781 64.2323 68.8365 63.4403 68.8365 62.2739C68.8365 61.1147 69.5781 60.3011 70.8165 60.3011C72.0333 60.3011 72.7749 61.0931 72.7749 62.2523C72.7749 63.4187 72.0333 64.2323 70.7949 64.2323ZM70.8093 63.3683C71.3205 63.3683 71.6085 62.9795 71.6085 62.2667C71.6085 61.5539 71.3205 61.1651 70.8093 61.1651C70.2909 61.1651 70.0029 61.5539 70.0029 62.2667C70.0029 62.9795 70.2909 63.3683 70.8093 63.3683ZM74.4008 64.1099H73.2488V58.9619H74.4008V64.1099ZM76.1868 59.9843H75.0348V58.9619H76.1868V59.9843ZM76.1868 64.1099H75.0348V60.4235H76.1868V64.1099ZM78.6207 64.2323C77.4039 64.2323 76.6623 63.4403 76.6623 62.2739C76.6623 61.1147 77.4039 60.3011 78.6423 60.3011C79.8591 60.3011 80.6007 61.0931 80.6007 62.2523C80.6007 63.4187 79.8591 64.2323 78.6207 64.2323ZM78.6351 63.3683C79.1463 63.3683 79.4343 62.9795 79.4343 62.2667C79.4343 61.5539 79.1463 61.1651 78.6351 61.1651C78.1167 61.1651 77.8287 61.5539 77.8287 62.2667C77.8287 62.9795 78.1167 63.3683 78.6351 63.3683ZM83.0035 64.1099H82.0675L84.0619 58.9619H84.9979L83.0035 64.1099ZM86.81 64.1099H85.514V58.9619H87.9404C89.0852 58.9619 89.7764 59.4947 89.7764 60.4307C89.7764 61.1507 89.3732 61.5755 88.7324 61.7195V61.7339C90.0212 61.9571 89.5532 63.9515 89.8484 64.0379V64.1099H88.502C88.25 63.8939 88.718 62.3171 87.6164 62.3171H86.81V64.1099ZM86.81 61.2587H87.6884C88.2068 61.2587 88.4804 61.0715 88.4804 60.6395C88.4804 60.2075 88.2068 60.0203 87.6884 60.0203H86.81V61.2587ZM93.8725 62.4035V62.5763H91.2229C91.2229 63.0875 91.5829 63.3683 92.0149 63.3683C92.4253 63.3683 92.5981 63.1811 92.6701 62.9939H93.8437C93.6349 63.7427 93.0229 64.2323 91.9861 64.2323C90.7909 64.2323 90.0709 63.4187 90.0709 62.2667C90.0709 61.1867 90.7477 60.3011 91.9861 60.3011C93.2389 60.3011 93.8725 61.0427 93.8725 62.4035ZM91.2301 61.8635H92.7133C92.7133 61.3883 92.4325 61.1363 91.9861 61.1363C91.5469 61.1363 91.2589 61.3883 91.2301 61.8635ZM95.991 64.2251C94.7022 64.2251 94.1982 63.6059 94.1694 62.8859H95.2494C95.2854 63.2531 95.5302 63.4331 95.9694 63.4331C96.3078 63.4331 96.459 63.3251 96.459 63.1163C96.459 62.7851 96.0918 62.7491 95.559 62.6267C94.911 62.4755 94.2414 62.2163 94.2414 61.4675C94.2414 60.7763 94.8174 60.3083 95.8542 60.3083C97.035 60.3083 97.4958 60.9059 97.5318 61.5539H96.4518C96.4158 61.2587 96.2574 61.1003 95.8758 61.1003C95.559 61.1003 95.4222 61.2155 95.4222 61.3955C95.4222 61.6403 95.6382 61.6547 96.1926 61.7843C96.9198 61.9571 97.6398 62.1731 97.6398 63.0299C97.6398 63.8003 97.0566 64.2251 95.991 64.2251ZM100.495 62.5547V60.4235H101.647V64.1099H100.495V63.5771H100.48C100.286 63.9155 99.9261 64.2251 99.2709 64.2251C98.5581 64.2251 98.0757 63.7571 98.0757 62.9147V60.4235H99.2277V62.5475C99.2277 63.1019 99.4221 63.2891 99.8037 63.2891C100.243 63.2891 100.495 63.0659 100.495 62.5547ZM106.817 60.3083C107.558 60.3083 107.998 60.7763 107.998 61.6187V64.1099H106.831V61.9859C106.831 61.4315 106.716 61.2443 106.306 61.2443C105.938 61.2443 105.708 61.4675 105.708 61.9787V64.1099H104.556V61.9859C104.556 61.4315 104.441 61.2443 104.03 61.2443C103.67 61.2443 103.433 61.4675 103.433 61.9787V64.1099H102.281V60.4235H103.433V60.9563H103.447C103.642 60.6179 104.045 60.3083 104.599 60.3083C105.082 60.3083 105.42 60.5747 105.564 60.9563H105.578C105.895 60.5891 106.219 60.3083 106.817 60.3083ZM112.252 62.4035V62.5763H109.603C109.603 63.0875 109.963 63.3683 110.395 63.3683C110.805 63.3683 110.978 63.1811 111.05 62.9939H112.223C112.015 63.7427 111.403 64.2323 110.366 64.2323C109.171 64.2323 108.451 63.4187 108.451 62.2667C108.451 61.1867 109.127 60.3011 110.366 60.3011C111.619 60.3011 112.252 61.0427 112.252 62.4035ZM109.61 61.8635H111.093C111.093 61.3883 110.812 61.1363 110.366 61.1363C109.927 61.1363 109.639 61.3883 109.61 61.8635ZM115.519 64.1099H114.223V58.9619H116.649C117.794 58.9619 118.485 59.4947 118.485 60.4307C118.485 61.1507 118.082 61.5755 117.441 61.7195V61.7339C118.73 61.9571 118.262 63.9515 118.557 64.0379V64.1099H117.211C116.959 63.8939 117.427 62.3171 116.325 62.3171H115.519V64.1099ZM115.519 61.2587H116.397C116.915 61.2587 117.189 61.0715 117.189 60.6395C117.189 60.2075 116.915 60.0203 116.397 60.0203H115.519V61.2587ZM122.581 62.4035V62.5763H119.931C119.931 63.0875 120.291 63.3683 120.723 63.3683C121.134 63.3683 121.307 63.1811 121.379 62.9939H122.552C122.343 63.7427 121.731 64.2323 120.695 64.2323C119.499 64.2323 118.779 63.4187 118.779 62.2667C118.779 61.1867 119.456 60.3011 120.695 60.3011C121.947 60.3011 122.581 61.0427 122.581 62.4035ZM119.939 61.8635H121.422C121.422 61.3883 121.141 61.1363 120.695 61.1363C120.255 61.1363 119.967 61.3883 119.939 61.8635ZM125.15 64.1099H123.883L122.608 60.4235H123.775L124.523 62.8571H124.538L125.287 60.4235H126.424L125.15 64.1099ZM127.909 59.9843H126.757V58.9619H127.909V59.9843ZM127.909 64.1099H126.757V60.4235H127.909V64.1099ZM132.186 62.4035V62.5763H129.536C129.536 63.0875 129.896 63.3683 130.328 63.3683C130.739 63.3683 130.911 63.1811 130.983 62.9939H132.157C131.948 63.7427 131.336 64.2323 130.299 64.2323C129.104 64.2323 128.384 63.4187 128.384 62.2667C128.384 61.1867 129.061 60.3011 130.299 60.3011C131.552 60.3011 132.186 61.0427 132.186 62.4035ZM129.543 61.8635H131.027C131.027 61.3883 130.746 61.1363 130.299 61.1363C129.86 61.1363 129.572 61.3883 129.543 61.8635ZM134.386 64.1099H133.306L132.276 60.4235H133.428L133.983 62.6699H133.997L134.616 60.4235H135.624L136.243 62.6699H136.265L136.819 60.4235H137.935L136.906 64.1099H135.826L135.113 61.7771H135.099L134.386 64.1099Z" fill="#545655"/>
<rect x="52" y="68.1099" width="469" height="5" rx="2.5" fill="#E8EBF2"/>
<rect x="52" y="76.1099" width="61.3123" height="5" rx="2.5" fill="#E8EBF2"/>
<g filter="url(#filter2_ddd_114_629)">
<rect x="26" y="88.1099" width="495" height="24.8643" rx="2.07519" fill="white" shape-rendering="crispEdges"/>
<rect x="26.2853" y="88.3952" width="494.429" height="24.2936" rx="1.78985" stroke="#F1F1F1" stroke-width="0.570677" shape-rendering="crispEdges"/>
<g clip-path="url(#clip0_114_629)">
<g clip-path="url(#clip1_114_629)">
<path d="M43.087 96.8048V105.507C43.087 106.193 42.5313 106.749 41.8457 106.749H35.0185C34.333 106.749 33.7772 106.193 33.7772 105.507V95.5768C33.7772 94.8912 34.333 94.3354 35.0185 94.3354H40.3986L43.087 96.8048Z" fill="#F2F4F7"/>
<g filter="url(#filter3_d_114_629)">
<path d="M43.087 96.8048H40.7089C40.5375 96.8048 40.3986 96.6659 40.3986 96.4945V94.3354L43.087 96.8048Z" fill="#F2F4F7"/>
</g>
<path d="M37.4498 102.454C37.4498 102.567 37.4237 102.672 37.3716 102.767C37.3194 102.86 37.2394 102.935 37.1314 102.993C37.0234 103.051 36.8893 103.079 36.7292 103.079H36.4331V103.783H35.9555V101.823H36.7292C36.8856 101.823 37.0178 101.85 37.1258 101.904C37.2338 101.958 37.3148 102.032 37.3688 102.127C37.4228 102.222 37.4498 102.331 37.4498 102.454ZM36.6929 102.7C36.7841 102.7 36.8521 102.678 36.8968 102.635C36.9414 102.592 36.9638 102.532 36.9638 102.454C36.9638 102.376 36.9414 102.315 36.8968 102.272C36.8521 102.229 36.7841 102.208 36.6929 102.208H36.4331V102.7H36.6929ZM38.4329 101.823C38.6396 101.823 38.8202 101.864 38.9748 101.945C39.1293 102.027 39.2485 102.143 39.3323 102.292C39.4179 102.439 39.4608 102.609 39.4608 102.803C39.4608 102.995 39.4179 103.165 39.3323 103.314C39.2485 103.463 39.1284 103.578 38.972 103.66C38.8174 103.742 38.6378 103.783 38.4329 103.783H37.6984V101.823H38.4329ZM38.4022 103.37C38.5828 103.37 38.7234 103.321 38.824 103.222C38.9245 103.123 38.9748 102.983 38.9748 102.803C38.9748 102.622 38.9245 102.482 38.824 102.381C38.7234 102.281 38.5828 102.23 38.4022 102.23H38.176V103.37H38.4022ZM41.004 101.823V102.205H40.2053V102.619H40.8029V102.99H40.2053V103.783H39.7277V101.823H41.004Z" fill="#475467"/>
</g>
<path d="M49.1984 98.3916H50.1185L51.3506 101.399H51.3993L52.6314 98.3916H53.5515V102.542H52.83V99.6906H52.7915L51.6445 102.53H51.1054L49.9584 99.6846H49.9199V102.542H49.1984V98.3916ZM54.9079 103.709C54.8079 103.709 54.7153 103.701 54.6302 103.685C54.5465 103.67 54.4796 103.653 54.4296 103.632L54.5998 103.061C54.7066 103.092 54.8018 103.107 54.8856 103.105C54.9693 103.104 55.043 103.078 55.1065 103.026C55.1713 102.976 55.226 102.893 55.2706 102.775L55.3334 102.607L54.2047 99.4292H54.9828L55.7002 101.78H55.7327L56.4521 99.4292H57.2323L55.986 102.919C55.9279 103.084 55.8509 103.225 55.755 103.342C55.659 103.461 55.5415 103.552 55.4023 103.614C55.2645 103.678 55.0997 103.709 54.9079 103.709ZM57.8865 102.542V98.3916H59.4429C59.7618 98.3916 60.0293 98.447 60.2454 98.5578C60.463 98.6686 60.6271 98.8239 60.7379 99.0239C60.85 99.2225 60.9061 99.4542 60.9061 99.719C60.9061 99.9852 60.8493 100.216 60.7359 100.412C60.6237 100.607 60.4582 100.757 60.2394 100.864C60.0205 100.969 59.7516 101.022 59.4328 101.022H58.3243V100.398H59.3315C59.5179 100.398 59.6706 100.372 59.7895 100.321C59.9084 100.268 59.9962 100.192 60.0529 100.092C60.111 99.9906 60.1401 99.8663 60.1401 99.719C60.1401 99.5717 60.111 99.4461 60.0529 99.3421C59.9948 99.2367 59.9063 99.157 59.7874 99.1029C59.6685 99.0475 59.5152 99.0198 59.3274 99.0198H58.6384V102.542H57.8865ZM60.0306 100.661L61.0581 102.542H60.2191L59.2099 100.661H60.0306ZM63.0133 102.603C62.7013 102.603 62.4317 102.538 62.2047 102.408C61.9791 102.277 61.8055 102.092 61.6839 101.853C61.5623 101.612 61.5015 101.329 61.5015 101.004C61.5015 100.684 61.5623 100.403 61.6839 100.161C61.8069 99.9176 61.9784 99.7285 62.1987 99.5934C62.4189 99.4569 62.6776 99.3887 62.9748 99.3887C63.1667 99.3887 63.3477 99.4198 63.518 99.4819C63.6895 99.5427 63.8408 99.6373 63.9719 99.7656C64.1043 99.894 64.2083 100.057 64.284 100.256C64.3596 100.453 64.3975 100.688 64.3975 100.961V101.186H61.846V100.692H63.6943C63.6929 100.551 63.6625 100.426 63.6031 100.317C63.5436 100.206 63.4605 100.119 63.3538 100.055C63.2484 99.9919 63.1255 99.9602 62.985 99.9602C62.835 99.9602 62.7033 99.9966 62.5898 100.07C62.4763 100.141 62.3878 100.236 62.3243 100.353C62.2622 100.47 62.2304 100.597 62.2291 100.736V101.168C62.2291 101.349 62.2622 101.504 62.3284 101.634C62.3946 101.762 62.4871 101.861 62.606 101.93C62.7249 101.998 62.8641 102.031 63.0235 102.031C63.1302 102.031 63.2268 102.016 63.3133 101.987C63.3997 101.956 63.4747 101.91 63.5382 101.851C63.6017 101.791 63.6497 101.718 63.6821 101.63L64.3671 101.707C64.3238 101.888 64.2414 102.046 64.1198 102.181C63.9996 102.315 63.8456 102.419 63.6578 102.493C63.47 102.566 63.2552 102.603 63.0133 102.603ZM67.5925 100.252L66.9237 100.325C66.9048 100.257 66.8717 100.194 66.8244 100.134C66.7785 100.075 66.7163 100.027 66.638 99.9906C66.5596 99.9541 66.4637 99.9358 66.3502 99.9358C66.1975 99.9358 66.0692 99.9689 65.9652 100.035C65.8625 100.101 65.8118 100.187 65.8132 100.293C65.8118 100.383 65.8449 100.457 65.9125 100.513C65.9814 100.57 66.0949 100.617 66.2529 100.653L66.7839 100.767C67.0784 100.83 67.2973 100.931 67.4405 101.069C67.585 101.206 67.658 101.387 67.6593 101.61C67.658 101.806 67.6006 101.979 67.4871 102.129C67.375 102.277 67.2189 102.393 67.019 102.477C66.819 102.561 66.5893 102.603 66.3299 102.603C65.9489 102.603 65.6423 102.523 65.4099 102.364C65.1775 102.203 65.039 101.979 64.9944 101.693L65.7098 101.624C65.7422 101.764 65.8111 101.871 65.9165 101.942C66.0219 102.014 66.159 102.05 66.3279 102.05C66.5022 102.05 66.642 102.014 66.7474 101.942C66.8541 101.871 66.9075 101.782 66.9075 101.677C66.9075 101.587 66.873 101.514 66.8041 101.456C66.7366 101.398 66.6312 101.353 66.488 101.322L65.957 101.211C65.6585 101.148 65.4376 101.044 65.2944 100.896C65.1512 100.748 65.0802 100.56 65.0816 100.333C65.0802 100.141 65.1322 99.975 65.2376 99.8345C65.3444 99.6927 65.4923 99.5832 65.6814 99.5062C65.8719 99.4279 66.0915 99.3887 66.3401 99.3887C66.7048 99.3887 66.9919 99.4664 67.2013 99.6217C67.4121 99.7771 67.5425 99.9872 67.5925 100.252ZM70.3624 101.233V99.4292H71.096V102.542H70.3847V101.989H70.3523C70.282 102.163 70.1665 102.306 70.0057 102.416C69.8463 102.527 69.6497 102.583 69.416 102.583C69.212 102.583 69.0316 102.537 68.8749 102.447C68.7195 102.355 68.598 102.222 68.5101 102.048C68.4223 101.872 68.3784 101.66 68.3784 101.411V99.4292H69.112V101.298C69.112 101.495 69.1661 101.652 69.2741 101.768C69.3822 101.884 69.5241 101.942 69.6997 101.942C69.8078 101.942 69.9125 101.916 70.0138 101.863C70.1152 101.81 70.1983 101.732 70.2631 101.628C70.3293 101.523 70.3624 101.391 70.3624 101.233ZM71.9645 102.542V99.4292H72.6657V99.9581H72.7022C72.767 99.7798 72.8745 99.6406 73.0244 99.5407C73.1744 99.4393 73.3534 99.3887 73.5615 99.3887C73.7722 99.3887 73.9499 99.44 74.0944 99.5427C74.2403 99.644 74.343 99.7825 74.4025 99.9581H74.4349C74.5038 99.7852 74.62 99.6474 74.7835 99.5447C74.9483 99.4407 75.1435 99.3887 75.3691 99.3887C75.6556 99.3887 75.8893 99.4792 76.0703 99.6602C76.2514 99.8413 76.3419 100.105 76.3419 100.453V102.542H75.6062V100.566C75.6062 100.373 75.5549 100.232 75.4522 100.143C75.3495 100.052 75.2239 100.007 75.0753 100.007C74.8983 100.007 74.7598 100.062 74.6598 100.173C74.5612 100.282 74.5119 100.425 74.5119 100.601V102.542H73.7925V100.536C73.7925 100.375 73.7438 100.247 73.6466 100.151C73.5506 100.055 73.425 100.007 73.2696 100.007C73.1643 100.007 73.0683 100.034 72.9819 100.088C72.8954 100.141 72.8265 100.216 72.7752 100.313C72.7238 100.409 72.6981 100.521 72.6981 100.649V102.542H71.9645ZM78.5783 102.603C78.2662 102.603 77.9967 102.538 77.7697 102.408C77.5441 102.277 77.3705 102.092 77.2489 101.853C77.1273 101.612 77.0665 101.329 77.0665 101.004C77.0665 100.684 77.1273 100.403 77.2489 100.161C77.3718 99.9176 77.5434 99.7285 77.7636 99.5934C77.9839 99.4569 78.2426 99.3887 78.5398 99.3887C78.7317 99.3887 78.9127 99.4198 79.0829 99.4819C79.2545 99.5427 79.4058 99.6373 79.5369 99.7656C79.6693 99.894 79.7733 100.057 79.849 100.256C79.9246 100.453 79.9625 100.688 79.9625 100.961V101.186H77.411V100.692H79.2592C79.2579 100.551 79.2275 100.426 79.168 100.317C79.1086 100.206 79.0255 100.119 78.9188 100.055C78.8134 99.9919 78.6905 99.9602 78.55 99.9602C78.4 99.9602 78.2683 99.9966 78.1548 100.07C78.0413 100.141 77.9528 100.236 77.8893 100.353C77.8271 100.47 77.7954 100.597 77.794 100.736V101.168C77.794 101.349 77.8271 101.504 77.8933 101.634C77.9595 101.762 78.0521 101.861 78.171 101.93C78.2899 101.998 78.429 102.031 78.5885 102.031C78.6952 102.031 78.7918 102.016 78.8783 101.987C78.9647 101.956 79.0397 101.91 79.1032 101.851C79.1667 101.791 79.2147 101.718 79.2471 101.63L79.9321 101.707C79.8888 101.888 79.8064 102.046 79.6848 102.181C79.5646 102.315 79.4106 102.419 79.2228 102.493C79.035 102.566 78.8202 102.603 78.5783 102.603Z" fill="#292929"/>
</g>
<path d="M495.182 102.542L496.855 99.2266V99.2002H494.898V98.3916H497.893V99.2063L496.213 102.542H495.182ZM500.096 102.599C499.773 102.599 499.484 102.547 499.23 102.445C498.978 102.341 498.779 102.2 498.634 102.023C498.491 101.845 498.42 101.644 498.42 101.419C498.42 101.248 498.461 101.09 498.543 100.947C498.626 100.804 498.737 100.685 498.878 100.59C499.019 100.495 499.178 100.433 499.352 100.406V100.374C499.123 100.332 498.936 100.226 498.79 100.055C498.646 99.8852 498.574 99.6859 498.574 99.4576C498.574 99.2414 498.639 99.0489 498.77 98.88C498.903 98.7111 499.083 98.5781 499.311 98.4808C499.541 98.3835 499.802 98.3349 500.096 98.3349C500.389 98.3349 500.649 98.3835 500.878 98.4808C501.107 98.5781 501.288 98.7111 501.419 98.88C501.551 99.0489 501.617 99.2414 501.617 99.4576C501.617 99.6873 501.544 99.8872 501.397 100.057C501.251 100.226 501.065 100.332 500.839 100.374V100.406C501.012 100.433 501.169 100.495 501.309 100.59C501.451 100.685 501.563 100.804 501.646 100.947C501.73 101.09 501.772 101.248 501.772 101.419C501.772 101.644 501.699 101.845 501.555 102.023C501.41 102.2 501.212 102.341 500.959 102.445C500.708 102.547 500.42 102.599 500.096 102.599ZM500.096 101.887C500.219 101.887 500.327 101.864 500.42 101.819C500.513 101.771 500.586 101.706 500.639 101.622C500.693 101.538 500.72 101.444 500.72 101.338C500.72 101.23 500.693 101.134 500.639 101.05C500.585 100.967 500.51 100.901 500.416 100.854C500.323 100.805 500.216 100.781 500.096 100.781C499.977 100.781 499.87 100.805 499.775 100.854C499.681 100.901 499.606 100.967 499.552 101.05C499.498 101.134 499.471 101.23 499.471 101.338C499.471 101.444 499.498 101.538 499.55 101.622C499.604 101.704 499.678 101.769 499.771 101.816C499.866 101.864 499.974 101.887 500.096 101.887ZM500.096 100.074C500.201 100.074 500.294 100.052 500.375 100.009C500.458 99.9656 500.522 99.9054 500.568 99.8284C500.615 99.7514 500.639 99.6643 500.639 99.567C500.639 99.4697 500.615 99.384 500.568 99.3096C500.522 99.2353 500.458 99.1772 500.377 99.1354C500.296 99.0921 500.202 99.0705 500.096 99.0705C499.99 99.0705 499.896 99.0921 499.814 99.1354C499.731 99.1772 499.667 99.2353 499.621 99.3096C499.575 99.384 499.552 99.4697 499.552 99.567C499.552 99.6643 499.575 99.7514 499.621 99.8284C499.669 99.9041 499.733 99.9642 499.816 100.009C499.898 100.052 499.992 100.074 500.096 100.074ZM503.793 98.3916H505.036L506.089 100.961H506.138L507.192 98.3916H508.434V102.542H507.457V99.9926H507.423L506.426 102.516H505.802L504.805 99.9784H504.77V102.542H503.793V98.3916ZM509.174 102.542V98.3916H510.905C511.215 98.3916 511.475 98.4355 511.685 98.5233C511.896 98.6112 512.054 98.7341 512.159 98.8922C512.266 99.0502 512.319 99.2333 512.319 99.4414C512.319 99.5994 512.286 99.7406 512.22 99.8649C512.154 99.9879 512.062 100.09 511.946 100.171C511.83 100.252 511.696 100.309 511.543 100.341V100.382C511.71 100.39 511.865 100.435 512.007 100.517C512.15 100.6 512.265 100.715 512.352 100.862C512.438 101.008 512.481 101.181 512.481 101.381C512.481 101.604 512.425 101.803 512.311 101.979C512.198 102.153 512.033 102.291 511.819 102.392C511.604 102.492 511.343 102.542 511.036 102.542H509.174ZM510.177 101.733H510.797C511.015 101.733 511.175 101.692 511.277 101.61C511.382 101.527 511.434 101.413 511.434 101.265C511.434 101.159 511.409 101.067 511.359 100.99C511.309 100.911 511.238 100.851 511.146 100.809C511.054 100.766 510.944 100.744 510.815 100.744H510.177V101.733ZM510.177 100.098H510.732C510.842 100.098 510.939 100.08 511.024 100.043C511.109 100.007 511.175 99.9541 511.223 99.8852C511.271 99.8163 511.296 99.7332 511.296 99.6359C511.296 99.4968 511.246 99.3873 511.148 99.3076C511.049 99.2279 510.916 99.1881 510.749 99.1881H510.177V100.098Z" fill="#D92D20"/>
</g>
</g>
</g>
<g filter="url(#filter4_d_114_629)">
<rect x="14" y="12" width="535" height="160" rx="11" fill="white" shape-rendering="crispEdges"/>
<rect x="14.25" y="12.25" width="534.5" height="159.5" rx="10.75" stroke="#EEEFF1" stroke-width="0.5" shape-rendering="crispEdges"/>
<g filter="url(#filter5_d_114_629)">
<rect x="26" y="24" width="511" height="86.9741" rx="4" fill="white"/>
<rect x="26.5" y="24.5" width="510" height="85.9741" rx="3.5" stroke="#F4F4F4"/>
<rect x="34.25" y="31.25" width="38.5" height="10.6099" rx="5.30493" fill="#EAFBFF"/>
<rect x="34.25" y="31.25" width="38.5" height="10.6099" rx="5.30493" stroke="#E2ECEE" stroke-width="0.5"/>
<path d="M38.79 38.0549V35.4899C38.64 35.6299 38.375 35.6549 38.065 35.6549V35.2149C38.675 35.1999 38.855 35.0149 38.9 34.5999H39.33V38.0549H38.79ZM40.4991 36.5249H39.9541V35.9799H40.4991V36.5249ZM40.4991 38.0549H39.9541V37.5099H40.4991V38.0549ZM41.539 38.0549V35.4899C41.389 35.6299 41.124 35.6549 40.814 35.6549V35.2149C41.424 35.1999 41.604 35.0149 41.649 34.5999H42.079V38.0549H41.539ZM44.403 38.0549H43.853V34.4799H45.343C46.018 34.4799 46.513 34.7949 46.513 35.5449C46.513 36.2949 46.018 36.6049 45.343 36.6049H44.403V38.0549ZM44.403 36.1299H45.318C45.733 36.1299 45.943 35.9449 45.943 35.5449C45.943 35.1399 45.733 34.9549 45.318 34.9549H44.403V36.1299ZM47.4663 38.1249C46.9563 38.1249 46.6313 37.8299 46.6313 37.3949C46.6313 36.8249 47.0613 36.6549 47.6963 36.5349C48.0963 36.4599 48.3413 36.4099 48.3413 36.1599C48.3413 35.9749 48.2313 35.8199 47.8563 35.8199C47.4113 35.8199 47.2763 35.9599 47.2513 36.2999H46.7513C46.7763 35.8099 47.0963 35.4249 47.8763 35.4249C48.4013 35.4249 48.8213 35.6449 48.8213 36.3049V37.4749C48.8213 37.6599 48.8463 37.7549 48.9413 37.7549C48.9563 37.7549 48.9713 37.7549 49.0013 37.7499V38.0499C48.9163 38.0699 48.8313 38.0799 48.7513 38.0799C48.5063 38.0799 48.3763 37.9849 48.3463 37.6949H48.3363C48.1713 37.9599 47.8813 38.1249 47.4663 38.1249ZM47.5763 37.7299C48.0163 37.7299 48.3413 37.5049 48.3413 37.0599V36.6949C48.2613 36.7699 48.0413 36.8249 47.7813 36.8799C47.3313 36.9699 47.1413 37.0949 47.1413 37.3599C47.1413 37.5999 47.2713 37.7299 47.5763 37.7299ZM49.9426 35.0499H49.3876V34.5199H49.9426V35.0499ZM49.9076 38.0549H49.4176V35.5049H49.9076V38.0549ZM51.6426 35.4449C51.7326 35.4449 51.8026 35.4499 51.8776 35.4599V35.9299C51.8176 35.9199 51.7726 35.9149 51.7126 35.9149C51.2676 35.9149 50.9476 36.2499 50.9476 36.7349V38.0549H50.4576V35.5049H50.9476V35.9899H50.9576C51.0926 35.6699 51.2976 35.4449 51.6426 35.4449ZM53.7585 38.0549H53.2085V34.4799H54.6985C55.4885 34.4799 55.9135 34.8499 55.9135 35.5099C55.9135 35.9649 55.6385 36.2949 55.2435 36.3849V36.3949C56.0735 36.5499 55.7685 37.9599 55.9635 38.0199V38.0549H55.3735C55.2135 37.9049 55.5535 36.6549 54.6785 36.6549H53.7585V38.0549ZM53.7585 36.1799H54.5785C55.0835 36.1799 55.3585 35.9599 55.3585 35.5499C55.3585 35.1649 55.1385 34.9549 54.5885 34.9549H53.7585V36.1799ZM58.6961 36.7249C58.6961 36.7949 58.6961 36.8699 58.6911 36.9099H56.7311C56.7411 37.3349 56.9911 37.7299 57.4961 37.7299C57.9461 37.7299 58.1211 37.4399 58.1661 37.2699H58.6661C58.5311 37.7599 58.1561 38.1299 57.4861 38.1299C56.6761 38.1299 56.2261 37.5549 56.2261 36.7749C56.2261 35.9749 56.7061 35.4249 57.4861 35.4249C58.2611 35.4249 58.6961 35.9349 58.6961 36.7249ZM56.7311 36.5249H58.1861C58.1861 36.1249 57.9061 35.8249 57.4711 35.8249C57.0611 35.8249 56.7611 36.1049 56.7311 36.5249ZM60.2518 38.0549H59.7018L58.7918 35.5049H59.3168L59.9868 37.5499H59.9918L60.6518 35.5049H61.1618L60.2518 38.0549ZM61.9982 35.0499H61.4432V34.5199H61.9982V35.0499ZM61.9632 38.0549H61.4732V35.5049H61.9632V38.0549ZM64.8533 36.7249C64.8533 36.7949 64.8533 36.8699 64.8483 36.9099H62.8883C62.8983 37.3349 63.1483 37.7299 63.6533 37.7299C64.1033 37.7299 64.2783 37.4399 64.3233 37.2699H64.8233C64.6883 37.7599 64.3133 38.1299 63.6433 38.1299C62.8333 38.1299 62.3833 37.5549 62.3833 36.7749C62.3833 35.9749 62.8633 35.4249 63.6433 35.4249C64.4183 35.4249 64.8533 35.9349 64.8533 36.7249ZM62.8883 36.5249H64.3433C64.3433 36.1249 64.0633 35.8249 63.6283 35.8249C63.2183 35.8249 62.9183 36.1049 62.8883 36.5249ZM66.2785 38.0549H65.7735L64.9835 35.5049H65.5135L66.0535 37.4799H66.0635L66.5935 35.5049H67.0885L67.6185 37.4799H67.6285L68.1735 35.5049H68.6835L67.8935 38.0549H67.3885L66.8385 36.0899H66.8285L66.2785 38.0549Z" fill="#71878E"/>
<rect x="34.25" y="49.3599" width="19.5" height="19.5" rx="1.75" fill="white"/>
<rect x="34.25" y="49.3599" width="19.5" height="19.5" rx="1.75" stroke="#F8F6F9" stroke-width="0.5"/>
<path fill-rule="evenodd" clip-rule="evenodd" d="M39.3388 53.866C39.017 53.866 38.7561 54.1268 38.7561 54.4486V63.7713C38.7561 64.0931 39.017 64.354 39.3388 64.354H48.6615C48.9833 64.354 49.2441 64.0931 49.2441 63.7713V57.799L45.3111 53.866H39.3388Z" fill="#F2F2F2"/>
<path d="M45.3112 57.799L49.2442 57.799L45.3112 53.866L45.3112 57.799Z" fill="#BDBDBD"/>
<rect x="39.4116" y="59.1101" width="9.17703" height="4.26077" rx="0.320475" fill="#EF4444"/>
<path d="M40.9572 62.4694V60.0112H41.8621C42.0475 60.0112 42.2031 60.0464 42.3288 60.1169C42.4553 60.1873 42.5507 60.2841 42.6151 60.4073C42.6803 60.5297 42.7129 60.669 42.7129 60.825C42.7129 60.9826 42.6803 61.1227 42.6151 61.2451C42.5499 61.3675 42.4537 61.4639 42.3264 61.5344C42.1992 61.604 42.0424 61.6388 41.8563 61.6388H41.2565V61.2727H41.7973C41.9057 61.2727 41.9945 61.2535 42.0637 61.2151C42.1328 61.1767 42.1838 61.1239 42.2168 61.0567C42.2506 60.9894 42.2675 60.9122 42.2675 60.825C42.2675 60.7378 42.2506 60.661 42.2168 60.5946C42.1838 60.5281 42.1324 60.4765 42.0625 60.4397C41.9933 60.4021 41.9042 60.3833 41.795 60.3833H41.3943V62.4694H40.9572Z" fill="white"/>
<path d="M43.9105 62.4694H43.0927V60.0112H43.927C44.1666 60.0112 44.3724 60.0604 44.5444 60.1589C44.7173 60.2565 44.85 60.3969 44.9427 60.5802C45.0354 60.7634 45.0818 60.9826 45.0818 61.2379C45.0818 61.494 45.035 61.714 44.9416 61.898C44.8489 62.0821 44.7149 62.2233 44.5397 62.3217C44.3653 62.4202 44.1556 62.4694 43.9105 62.4694ZM43.5299 62.0841H43.8893C44.0574 62.0841 44.1976 62.0529 44.3099 61.9905C44.4223 61.9272 44.5067 61.8332 44.5633 61.7084C44.6199 61.5828 44.6481 61.4259 44.6481 61.2379C44.6481 61.0499 44.6199 60.8938 44.5633 60.7698C44.5067 60.645 44.4231 60.5517 44.3123 60.4901C44.2023 60.4277 44.0656 60.3965 43.9022 60.3965H43.5299V62.0841Z" fill="white"/>
<path d="M45.4972 62.4694V60.0112H47.0432V60.3845H45.9343V61.0519H46.9371V61.4251H45.9343V62.4694H45.4972Z" fill="white"/>
<path d="M40.9572 62.4694V60.0112H41.8621C42.0475 60.0112 42.2031 60.0464 42.3288 60.1169C42.4553 60.1873 42.5507 60.2841 42.6151 60.4073C42.6803 60.5297 42.7129 60.669 42.7129 60.825C42.7129 60.9826 42.6803 61.1227 42.6151 61.2451C42.5499 61.3675 42.4537 61.4639 42.3264 61.5344C42.1992 61.604 42.0424 61.6388 41.8563 61.6388H41.2565V61.2727H41.7973C41.9057 61.2727 41.9945 61.2535 42.0637 61.2151C42.1328 61.1767 42.1838 61.1239 42.2168 61.0567C42.2506 60.9894 42.2675 60.9122 42.2675 60.825C42.2675 60.7378 42.2506 60.661 42.2168 60.5946C42.1838 60.5281 42.1324 60.4765 42.0625 60.4397C41.9933 60.4021 41.9042 60.3833 41.795 60.3833H41.3943V62.4694H40.9572Z" stroke="white" stroke-width="0.145667"/>
<path d="M43.9105 62.4694H43.0927V60.0112H43.927C44.1666 60.0112 44.3724 60.0604 44.5444 60.1589C44.7173 60.2565 44.85 60.3969 44.9427 60.5802C45.0354 60.7634 45.0818 60.9826 45.0818 61.2379C45.0818 61.494 45.035 61.714 44.9416 61.898C44.8489 62.0821 44.7149 62.2233 44.5397 62.3217C44.3653 62.4202 44.1556 62.4694 43.9105 62.4694ZM43.5299 62.0841H43.8893C44.0574 62.0841 44.1976 62.0529 44.3099 61.9905C44.4223 61.9272 44.5067 61.8332 44.5633 61.7084C44.6199 61.5828 44.6481 61.4259 44.6481 61.2379C44.6481 61.0499 44.6199 60.8938 44.5633 60.7698C44.5067 60.645 44.4231 60.5517 44.3123 60.4901C44.2023 60.4277 44.0656 60.3965 43.9022 60.3965H43.5299V62.0841Z" stroke="white" stroke-width="0.145667"/>
<path d="M45.4972 62.4694V60.0112H47.0432V60.3845H45.9343V61.0519H46.9371V61.4251H45.9343V62.4694H45.4972Z" stroke="white" stroke-width="0.145667"/>
<path d="M61.728 55.1099H60.432V49.9619H62.9304C64.0032 49.9619 64.6728 50.5235 64.6728 51.6035C64.6728 52.6835 64.0032 53.2451 62.9304 53.2451H61.728V55.1099ZM61.728 52.1867H62.628C63.0744 52.1867 63.348 52.0355 63.348 51.6035C63.348 51.1715 63.0744 51.0203 62.628 51.0203H61.728V52.1867ZM66.7152 55.2323C65.4984 55.2323 64.7568 54.4403 64.7568 53.2739C64.7568 52.1147 65.4984 51.3011 66.7368 51.3011C67.9536 51.3011 68.6952 52.0931 68.6952 53.2523C68.6952 54.4187 67.9536 55.2323 66.7152 55.2323ZM66.7296 54.3683C67.2408 54.3683 67.5288 53.9795 67.5288 53.2667C67.5288 52.5539 67.2408 52.1651 66.7296 52.1651C66.2112 52.1651 65.9232 52.5539 65.9232 53.2667C65.9232 53.9795 66.2112 54.3683 66.7296 54.3683ZM71.2355 51.3947C71.3363 51.3947 71.4227 51.3947 71.5523 51.4235V52.4315C71.4587 52.4171 71.3939 52.4099 71.3147 52.4099C70.7963 52.4099 70.3211 52.7339 70.3211 53.3963V55.1099H69.1691V51.4235H70.3211V52.0283H70.3355C70.5155 51.6395 70.8323 51.3947 71.2355 51.3947ZM73.7611 54.3179C73.8691 54.3179 73.9339 54.3107 74.0707 54.2891V55.1027C73.8259 55.1603 73.6171 55.1819 73.3867 55.1819C72.5803 55.1819 72.2347 54.8147 72.2347 53.9147V52.2875H71.7235V51.4235H72.2347V50.3939H73.3867V51.4235H74.0275V52.2875H73.3867V53.8859C73.3867 54.2819 73.5379 54.3179 73.7611 54.3179ZM76.3979 50.7611C76.1963 50.7611 76.0451 50.7971 76.0451 51.1931V51.4235H76.6859V52.2875H76.0451V55.1099H74.8931V52.2875H74.3963V51.4235H74.8931V51.1643C74.8931 50.2643 75.2387 49.8971 76.0307 49.8971C76.2467 49.8971 76.4411 49.9187 76.6859 49.9691V50.7827C76.5491 50.7683 76.4915 50.7611 76.3979 50.7611ZM78.7949 55.2323C77.5781 55.2323 76.8365 54.4403 76.8365 53.2739C76.8365 52.1147 77.5781 51.3011 78.8165 51.3011C80.0333 51.3011 80.7749 52.0931 80.7749 53.2523C80.7749 54.4187 80.0333 55.2323 78.7949 55.2323ZM78.8093 54.3683C79.3205 54.3683 79.6085 53.9795 79.6085 53.2667C79.6085 52.5539 79.3205 52.1651 78.8093 52.1651C78.2909 52.1651 78.0029 52.5539 78.0029 53.2667C78.0029 53.9795 78.2909 54.3683 78.8093 54.3683ZM82.4008 55.1099H81.2488V49.9619H82.4008V55.1099ZM84.1868 50.9843H83.0348V49.9619H84.1868V50.9843ZM84.1868 55.1099H83.0348V51.4235H84.1868V55.1099ZM86.6207 55.2323C85.4039 55.2323 84.6623 54.4403 84.6623 53.2739C84.6623 52.1147 85.4039 51.3011 86.6423 51.3011C87.8591 51.3011 88.6007 52.0931 88.6007 53.2523C88.6007 54.4187 87.8591 55.2323 86.6207 55.2323ZM86.6351 54.3683C87.1463 54.3683 87.4343 53.9795 87.4343 53.2667C87.4343 52.5539 87.1463 52.1651 86.6351 52.1651C86.1167 52.1651 85.8287 52.5539 85.8287 53.2667C85.8287 53.9795 86.1167 54.3683 86.6351 54.3683ZM91.0035 55.1099H90.0675L92.0619 49.9619H92.9979L91.0035 55.1099ZM94.81 55.1099H93.514V49.9619H95.9404C97.0852 49.9619 97.7764 50.4947 97.7764 51.4307C97.7764 52.1507 97.3732 52.5755 96.7324 52.7195V52.7339C98.0212 52.9571 97.5532 54.9515 97.8484 55.0379V55.1099H96.502C96.25 54.8939 96.718 53.3171 95.6164 53.3171H94.81V55.1099ZM94.81 52.2587H95.6884C96.2068 52.2587 96.4804 52.0715 96.4804 51.6395C96.4804 51.2075 96.2068 51.0203 95.6884 51.0203H94.81V52.2587ZM101.872 53.4035V53.5763H99.2229C99.2229 54.0875 99.5829 54.3683 100.015 54.3683C100.425 54.3683 100.598 54.1811 100.67 53.9939H101.844C101.635 54.7427 101.023 55.2323 99.9861 55.2323C98.7909 55.2323 98.0709 54.4187 98.0709 53.2667C98.0709 52.1867 98.7477 51.3011 99.9861 51.3011C101.239 51.3011 101.872 52.0427 101.872 53.4035ZM99.2301 52.8635H100.713C100.713 52.3883 100.432 52.1363 99.9861 52.1363C99.5469 52.1363 99.2589 52.3883 99.2301 52.8635ZM103.991 55.2251C102.702 55.2251 102.198 54.6059 102.169 53.8859H103.249C103.285 54.2531 103.53 54.4331 103.969 54.4331C104.308 54.4331 104.459 54.3251 104.459 54.1163C104.459 53.7851 104.092 53.7491 103.559 53.6267C102.911 53.4755 102.241 53.2163 102.241 52.4675C102.241 51.7763 102.817 51.3083 103.854 51.3083C105.035 51.3083 105.496 51.9059 105.532 52.5539H104.452C104.416 52.2587 104.257 52.1003 103.876 52.1003C103.559 52.1003 103.422 52.2155 103.422 52.3955C103.422 52.6403 103.638 52.6547 104.193 52.7843C104.92 52.9571 105.64 53.1731 105.64 54.0299C105.64 54.8003 105.057 55.2251 103.991 55.2251ZM108.495 53.5547V51.4235H109.647V55.1099H108.495V54.5771H108.48C108.286 54.9155 107.926 55.2251 107.271 55.2251C106.558 55.2251 106.076 54.7571 106.076 53.9147V51.4235H107.228V53.5475C107.228 54.1019 107.422 54.2891 107.804 54.2891C108.243 54.2891 108.495 54.0659 108.495 53.5547ZM114.817 51.3083C115.558 51.3083 115.998 51.7763 115.998 52.6187V55.1099H114.831V52.9859C114.831 52.4315 114.716 52.2443 114.306 52.2443C113.938 52.2443 113.708 52.4675 113.708 52.9787V55.1099H112.556V52.9859C112.556 52.4315 112.441 52.2443 112.03 52.2443C111.67 52.2443 111.433 52.4675 111.433 52.9787V55.1099H110.281V51.4235H111.433V51.9563H111.447C111.642 51.6179 112.045 51.3083 112.599 51.3083C113.082 51.3083 113.42 51.5747 113.564 51.9563H113.578C113.895 51.5891 114.219 51.3083 114.817 51.3083ZM120.252 53.4035V53.5763H117.603C117.603 54.0875 117.963 54.3683 118.395 54.3683C118.805 54.3683 118.978 54.1811 119.05 53.9939H120.223C120.015 54.7427 119.403 55.2323 118.366 55.2323C117.171 55.2323 116.451 54.4187 116.451 53.2667C116.451 52.1867 117.127 51.3011 118.366 51.3011C119.619 51.3011 120.252 52.0427 120.252 53.4035ZM117.61 52.8635H119.093C119.093 52.3883 118.812 52.1363 118.366 52.1363C117.927 52.1363 117.639 52.3883 117.61 52.8635ZM123.519 55.1099H122.223V49.9619H124.649C125.794 49.9619 126.485 50.4947 126.485 51.4307C126.485 52.1507 126.082 52.5755 125.441 52.7195V52.7339C126.73 52.9571 126.262 54.9515 126.557 55.0379V55.1099H125.211C124.959 54.8939 125.427 53.3171 124.325 53.3171H123.519V55.1099ZM123.519 52.2587H124.397C124.915 52.2587 125.189 52.0715 125.189 51.6395C125.189 51.2075 124.915 51.0203 124.397 51.0203H123.519V52.2587ZM130.581 53.4035V53.5763H127.931C127.931 54.0875 128.291 54.3683 128.723 54.3683C129.134 54.3683 129.307 54.1811 129.379 53.9939H130.552C130.343 54.7427 129.731 55.2323 128.695 55.2323C127.499 55.2323 126.779 54.4187 126.779 53.2667C126.779 52.1867 127.456 51.3011 128.695 51.3011C129.947 51.3011 130.581 52.0427 130.581 53.4035ZM127.939 52.8635H129.422C129.422 52.3883 129.141 52.1363 128.695 52.1363C128.255 52.1363 127.967 52.3883 127.939 52.8635ZM133.15 55.1099H131.883L130.608 51.4235H131.775L132.523 53.8571H132.538L133.287 51.4235H134.424L133.15 55.1099ZM135.909 50.9843H134.757V49.9619H135.909V50.9843ZM135.909 55.1099H134.757V51.4235H135.909V55.1099ZM140.186 53.4035V53.5763H137.536C137.536 54.0875 137.896 54.3683 138.328 54.3683C138.739 54.3683 138.911 54.1811 138.983 53.9939H140.157C139.948 54.7427 139.336 55.2323 138.299 55.2323C137.104 55.2323 136.384 54.4187 136.384 53.2667C136.384 52.1867 137.061 51.3011 138.299 51.3011C139.552 51.3011 140.186 52.0427 140.186 53.4035ZM137.543 52.8635H139.027C139.027 52.3883 138.746 52.1363 138.299 52.1363C137.86 52.1363 137.572 52.3883 137.543 52.8635ZM142.386 55.1099H141.306L140.276 51.4235H141.428L141.983 53.6699H141.997L142.616 51.4235H143.624L144.243 53.6699H144.265L144.819 51.4235H145.935L144.906 55.1099H143.826L143.113 52.7771H143.099L142.386 55.1099Z" fill="#545655"/>
<rect x="60" y="59.1099" width="469" height="5" rx="2.5" fill="#E8EBF2"/>
<rect x="60" y="67.1099" width="61.3123" height="5" rx="2.5" fill="#E8EBF2"/>
<g filter="url(#filter6_ddd_114_629)">
<rect x="34" y="79.1099" width="495" height="24.8643" rx="2.07519" fill="white" shape-rendering="crispEdges"/>
<rect x="34.2853" y="79.3952" width="494.429" height="24.2936" rx="1.78985" stroke="#F1F1F1" stroke-width="0.570677" shape-rendering="crispEdges"/>
<g clip-path="url(#clip2_114_629)">
<g clip-path="url(#clip3_114_629)">
<path d="M51.087 87.8048V96.5073C51.087 97.1928 50.5313 97.7486 49.8457 97.7486H43.0185C42.333 97.7486 41.7772 97.1928 41.7772 96.5073V86.5768C41.7772 85.8912 42.333 85.3354 43.0185 85.3354H48.3986L51.087 87.8048Z" fill="#F2F4F7"/>
<g filter="url(#filter7_d_114_629)">
<path d="M51.087 87.8048H48.7089C48.5375 87.8048 48.3986 87.6659 48.3986 87.4945V85.3354L51.087 87.8048Z" fill="#F2F4F7"/>
</g>
<path d="M45.4498 93.4538C45.4498 93.5673 45.4237 93.6716 45.3716 93.7666C45.3194 93.8597 45.2394 93.9351 45.1314 93.9928C45.0234 94.0505 44.8893 94.0794 44.7292 94.0794H44.4331V94.7832H43.9555V92.8225H44.7292C44.8856 92.8225 45.0178 92.8495 45.1258 92.9035C45.2338 92.9575 45.3148 93.032 45.3688 93.127C45.4228 93.2219 45.4498 93.3309 45.4498 93.4538ZM44.6929 93.6995C44.7841 93.6995 44.8521 93.6781 44.8968 93.6353C44.9414 93.5925 44.9638 93.532 44.9638 93.4538C44.9638 93.3756 44.9414 93.315 44.8968 93.2722C44.8521 93.2294 44.7841 93.208 44.6929 93.208H44.4331V93.6995H44.6929ZM46.4329 92.8225C46.6396 92.8225 46.8202 92.8635 46.9748 92.9454C47.1293 93.0274 47.2485 93.1428 47.3323 93.2918C47.4179 93.4389 47.4608 93.6092 47.4608 93.8029C47.4608 93.9947 47.4179 94.165 47.3323 94.314C47.2485 94.4629 47.1284 94.5784 46.972 94.6603C46.8174 94.7422 46.6378 94.7832 46.4329 94.7832H45.6984V92.8225H46.4329ZM46.4022 94.3698C46.5828 94.3698 46.7234 94.3205 46.824 94.2218C46.9245 94.1231 46.9748 93.9835 46.9748 93.8029C46.9748 93.6223 46.9245 93.4817 46.824 93.3811C46.7234 93.2806 46.5828 93.2303 46.4022 93.2303H46.176V94.3698H46.4022ZM49.004 92.8225V93.2052H48.2053V93.6185H48.8029V93.99H48.2053V94.7832H47.7277V92.8225H49.004Z" fill="#475467"/>
</g>
<path d="M57.1984 89.3916H58.1185L59.3506 92.399H59.3993L60.6314 89.3916H61.5515V93.542H60.83V90.6906H60.7915L59.6445 93.5298H59.1054L57.9584 90.6846H57.9199V93.542H57.1984V89.3916ZM62.9079 94.7093C62.8079 94.7093 62.7153 94.7012 62.6302 94.685C62.5465 94.6701 62.4796 94.6525 62.4296 94.6323L62.5998 94.0608C62.7066 94.0919 62.8018 94.1067 62.8856 94.1054C62.9693 94.104 63.043 94.0777 63.1065 94.0263C63.1713 93.9763 63.226 93.8926 63.2706 93.775L63.3334 93.6068L62.2047 90.4292H62.9828L63.7002 92.78H63.7327L64.4521 90.4292H65.2323L63.986 93.9189C63.9279 94.0838 63.8509 94.2249 63.755 94.3425C63.659 94.4614 63.5415 94.5519 63.4023 94.614C63.2645 94.6775 63.0997 94.7093 62.9079 94.7093ZM65.8865 93.542V89.3916H67.4429C67.7618 89.3916 68.0293 89.447 68.2454 89.5578C68.463 89.6686 68.6271 89.8239 68.7379 90.0239C68.85 90.2225 68.9061 90.4542 68.9061 90.719C68.9061 90.9852 68.8493 91.2162 68.7359 91.4121C68.6237 91.6066 68.4582 91.7573 68.2394 91.864C68.0205 91.9694 67.7516 92.0221 67.4328 92.0221H66.3243V91.3979H67.3315C67.5179 91.3979 67.6706 91.3722 67.7895 91.3209C67.9084 91.2682 67.9962 91.1919 68.0529 91.0919C68.111 90.9906 68.1401 90.8663 68.1401 90.719C68.1401 90.5717 68.111 90.4461 68.0529 90.3421C67.9948 90.2367 67.9063 90.157 67.7874 90.1029C67.6685 90.0475 67.5152 90.0198 67.3274 90.0198H66.6384V93.542H65.8865ZM68.0306 91.6614L69.0581 93.542H68.2191L67.2099 91.6614H68.0306ZM71.0133 93.6028C70.7013 93.6028 70.4317 93.5379 70.2047 93.4082C69.9791 93.2772 69.8055 93.0921 69.6839 92.853C69.5623 92.6125 69.5015 92.3294 69.5015 92.0038C69.5015 91.6836 69.5623 91.4026 69.6839 91.1608C69.8069 90.9176 69.9784 90.7285 70.1987 90.5934C70.4189 90.4569 70.6776 90.3887 70.9748 90.3887C71.1667 90.3887 71.3477 90.4198 71.518 90.4819C71.6895 90.5427 71.8408 90.6373 71.9719 90.7656C72.1043 90.894 72.2083 91.0574 72.284 91.256C72.3596 91.4533 72.3975 91.6884 72.3975 91.9613V92.1862H69.846V91.6918H71.6943C71.6929 91.5512 71.6625 91.4263 71.6031 91.3168C71.5436 91.2061 71.4605 91.1189 71.3538 91.0554C71.2484 90.9919 71.1255 90.9602 70.985 90.9602C70.835 90.9602 70.7033 90.9966 70.5898 91.0696C70.4763 91.1412 70.3878 91.2358 70.3243 91.3533C70.2622 91.4695 70.2304 91.5972 70.2291 91.7363V92.168C70.2291 92.349 70.2622 92.5044 70.3284 92.6341C70.3946 92.7624 70.4871 92.8611 70.606 92.93C70.7249 92.9975 70.8641 93.0313 71.0235 93.0313C71.1302 93.0313 71.2268 93.0164 71.3133 92.9867C71.3997 92.9556 71.4747 92.9104 71.5382 92.8509C71.6017 92.7915 71.6497 92.7179 71.6821 92.63L72.3671 92.7071C72.3238 92.8881 72.2414 93.0462 72.1198 93.1813C71.9996 93.315 71.8456 93.419 71.6578 93.4934C71.47 93.5663 71.2552 93.6028 71.0133 93.6028ZM75.5925 91.252L74.9237 91.3249C74.9048 91.2574 74.8717 91.1939 74.8244 91.1345C74.7785 91.075 74.7163 91.027 74.638 90.9906C74.5596 90.9541 74.4637 90.9358 74.3502 90.9358C74.1975 90.9358 74.0692 90.9689 73.9652 91.0351C73.8625 91.1013 73.8118 91.1871 73.8132 91.2925C73.8118 91.383 73.8449 91.4567 73.9125 91.5134C73.9814 91.5702 74.0949 91.6168 74.2529 91.6532L74.7839 91.7667C75.0784 91.8302 75.2973 91.9309 75.4405 92.0687C75.585 92.2065 75.658 92.3869 75.6593 92.6098C75.658 92.8057 75.6006 92.9786 75.4871 93.1286C75.375 93.2772 75.2189 93.3934 75.019 93.4771C74.819 93.5609 74.5893 93.6028 74.3299 93.6028C73.9489 93.6028 73.6423 93.5231 73.4099 93.3637C73.1775 93.2029 73.039 92.9793 72.9944 92.6929L73.7098 92.624C73.7422 92.7645 73.8111 92.8705 73.9165 92.9421C74.0219 93.0137 74.159 93.0495 74.3279 93.0495C74.5022 93.0495 74.642 93.0137 74.7474 92.9421C74.8541 92.8705 74.9075 92.782 74.9075 92.6767C74.9075 92.5875 74.873 92.5139 74.8041 92.4558C74.7366 92.3977 74.6312 92.3531 74.488 92.322L73.957 92.2105C73.6585 92.1484 73.4376 92.0437 73.2944 91.8964C73.1512 91.7478 73.0802 91.56 73.0816 91.3331C73.0802 91.1412 73.1322 90.975 73.2376 90.8345C73.3444 90.6927 73.4923 90.5832 73.6814 90.5062C73.8719 90.4279 74.0915 90.3887 74.3401 90.3887C74.7048 90.3887 74.9919 90.4664 75.2013 90.6217C75.4121 90.7771 75.5425 90.9872 75.5925 91.252ZM78.3624 92.2328V90.4292H79.096V93.542H78.3847V92.9887H78.3523C78.282 93.163 78.1665 93.3056 78.0057 93.4163C77.8463 93.5271 77.6497 93.5825 77.416 93.5825C77.212 93.5825 77.0316 93.5373 76.8749 93.4467C76.7195 93.3549 76.598 93.2218 76.5101 93.0475C76.4223 92.8719 76.3784 92.6598 76.3784 92.4112V90.4292H77.112V92.2977C77.112 92.4949 77.1661 92.6517 77.2741 92.7678C77.3822 92.884 77.5241 92.9421 77.6997 92.9421C77.8078 92.9421 77.9125 92.9158 78.0138 92.8631C78.1152 92.8104 78.1983 92.732 78.2631 92.628C78.3293 92.5226 78.3624 92.3909 78.3624 92.2328ZM79.9645 93.542V90.4292H80.6657V90.9581H80.7022C80.767 90.7798 80.8745 90.6406 81.0244 90.5407C81.1744 90.4393 81.3534 90.3887 81.5615 90.3887C81.7722 90.3887 81.9499 90.44 82.0944 90.5427C82.2403 90.644 82.343 90.7825 82.4025 90.9581H82.4349C82.5038 90.7852 82.62 90.6474 82.7835 90.5447C82.9483 90.4407 83.1435 90.3887 83.3691 90.3887C83.6556 90.3887 83.8893 90.4792 84.0703 90.6602C84.2514 90.8413 84.3419 91.1054 84.3419 91.4526V93.542H83.6062V91.5661C83.6062 91.3729 83.5549 91.2317 83.4522 91.1426C83.3495 91.052 83.2239 91.0068 83.0753 91.0068C82.8983 91.0068 82.7598 91.0622 82.6598 91.173C82.5612 91.2824 82.5119 91.4249 82.5119 91.6006V93.542H81.7925V91.5357C81.7925 91.3749 81.7438 91.2466 81.6466 91.1507C81.5506 91.0547 81.425 91.0068 81.2696 91.0068C81.1643 91.0068 81.0683 91.0338 80.9819 91.0878C80.8954 91.1405 80.8265 91.2155 80.7752 91.3128C80.7238 91.4087 80.6981 91.5208 80.6981 91.6492V93.542H79.9645ZM86.5783 93.6028C86.2662 93.6028 85.9967 93.5379 85.7697 93.4082C85.5441 93.2772 85.3705 93.0921 85.2489 92.853C85.1273 92.6125 85.0665 92.3294 85.0665 92.0038C85.0665 91.6836 85.1273 91.4026 85.2489 91.1608C85.3718 90.9176 85.5434 90.7285 85.7636 90.5934C85.9839 90.4569 86.2426 90.3887 86.5398 90.3887C86.7317 90.3887 86.9127 90.4198 87.0829 90.4819C87.2545 90.5427 87.4058 90.6373 87.5369 90.7656C87.6693 90.894 87.7733 91.0574 87.849 91.256C87.9246 91.4533 87.9625 91.6884 87.9625 91.9613V92.1862H85.411V91.6918H87.2592C87.2579 91.5512 87.2275 91.4263 87.168 91.3168C87.1086 91.2061 87.0255 91.1189 86.9188 91.0554C86.8134 90.9919 86.6905 90.9602 86.55 90.9602C86.4 90.9602 86.2683 90.9966 86.1548 91.0696C86.0413 91.1412 85.9528 91.2358 85.8893 91.3533C85.8271 91.4695 85.7954 91.5972 85.794 91.7363V92.168C85.794 92.349 85.8271 92.5044 85.8933 92.6341C85.9595 92.7624 86.0521 92.8611 86.171 92.93C86.2899 92.9975 86.429 93.0313 86.5885 93.0313C86.6952 93.0313 86.7918 93.0164 86.8783 92.9867C86.9647 92.9556 87.0397 92.9104 87.1032 92.8509C87.1667 92.7915 87.2147 92.7179 87.2471 92.63L87.9321 92.7071C87.8888 92.8881 87.8064 93.0462 87.6848 93.1813C87.5646 93.315 87.4106 93.419 87.2228 93.4934C87.035 93.5663 86.8202 93.6028 86.5783 93.6028Z" fill="#292929"/>
</g>
<path d="M503.182 93.542L504.855 90.2266V90.2002H502.898V89.3916H505.893V90.2063L504.213 93.542H503.182ZM508.096 93.5987C507.773 93.5987 507.484 93.5474 507.23 93.4447C506.978 93.3407 506.779 93.2002 506.634 93.0232C506.491 92.8449 506.42 92.6436 506.42 92.4193C506.42 92.2477 506.461 92.0903 506.543 91.9471C506.626 91.8039 506.737 91.685 506.878 91.5904C507.019 91.4945 507.178 91.433 507.352 91.406V91.3736C507.123 91.3317 506.936 91.2256 506.79 91.0554C506.646 90.8852 506.574 90.6859 506.574 90.4576C506.574 90.2414 506.639 90.0489 506.77 89.88C506.903 89.7111 507.083 89.5781 507.311 89.4808C507.541 89.3835 507.802 89.3349 508.096 89.3349C508.389 89.3349 508.649 89.3835 508.878 89.4808C509.107 89.5781 509.288 89.7111 509.419 89.88C509.551 90.0489 509.617 90.2414 509.617 90.4576C509.617 90.6873 509.544 90.8872 509.397 91.0574C509.251 91.2263 509.065 91.3317 508.839 91.3736V91.406C509.012 91.433 509.169 91.4945 509.309 91.5904C509.451 91.685 509.563 91.8039 509.646 91.9471C509.73 92.0903 509.772 92.2477 509.772 92.4193C509.772 92.6436 509.699 92.8449 509.555 93.0232C509.41 93.2002 509.212 93.3407 508.959 93.4447C508.708 93.5474 508.42 93.5987 508.096 93.5987ZM508.096 92.8874C508.219 92.8874 508.327 92.8644 508.42 92.8185C508.513 92.7712 508.586 92.7057 508.639 92.6219C508.693 92.5382 508.72 92.4436 508.72 92.3382C508.72 92.2301 508.693 92.1342 508.639 92.0505C508.585 91.9667 508.51 91.9012 508.416 91.8539C508.323 91.8052 508.216 91.7809 508.096 91.7809C507.977 91.7809 507.87 91.8052 507.775 91.8539C507.681 91.9012 507.606 91.9667 507.552 92.0505C507.498 92.1342 507.471 92.2301 507.471 92.3382C507.471 92.4436 507.498 92.5382 507.55 92.6219C507.604 92.7044 507.678 92.7692 507.771 92.8165C507.866 92.8638 507.974 92.8874 508.096 92.8874ZM508.096 91.0737C508.201 91.0737 508.294 91.052 508.375 91.0088C508.458 90.9656 508.522 90.9054 508.568 90.8284C508.615 90.7514 508.639 90.6643 508.639 90.567C508.639 90.4697 508.615 90.384 508.568 90.3096C508.522 90.2353 508.458 90.1772 508.377 90.1354C508.296 90.0921 508.202 90.0705 508.096 90.0705C507.99 90.0705 507.896 90.0921 507.814 90.1354C507.731 90.1772 507.667 90.2353 507.621 90.3096C507.575 90.384 507.552 90.4697 507.552 90.567C507.552 90.6643 507.575 90.7514 507.621 90.8284C507.669 90.9041 507.733 90.9642 507.816 91.0088C507.898 91.052 507.992 91.0737 508.096 91.0737ZM511.793 89.3916H513.036L514.089 91.9613H514.138L515.192 89.3916H516.434V93.542H515.457V90.9926H515.423L514.426 93.5156H513.802L512.805 90.9784H512.77V93.542H511.793V89.3916ZM517.174 93.542V89.3916H518.905C519.215 89.3916 519.475 89.4355 519.685 89.5233C519.896 89.6112 520.054 89.7341 520.159 89.8922C520.266 90.0502 520.319 90.2333 520.319 90.4414C520.319 90.5994 520.286 90.7406 520.22 90.8649C520.154 90.9879 520.062 91.0899 519.946 91.1709C519.83 91.252 519.696 91.3087 519.543 91.3412V91.3817C519.71 91.3898 519.865 91.4351 520.007 91.5175C520.15 91.5999 520.265 91.7147 520.352 91.862C520.438 92.0079 520.481 92.1808 520.481 92.3808C520.481 92.6037 520.425 92.803 520.311 92.9786C520.198 93.1529 520.033 93.2907 519.819 93.392C519.604 93.492 519.343 93.542 519.036 93.542H517.174ZM518.177 92.7334H518.797C519.015 92.7334 519.175 92.6922 519.277 92.6098C519.382 92.5274 519.434 92.4125 519.434 92.2653C519.434 92.1585 519.409 92.0667 519.359 91.9897C519.309 91.9113 519.238 91.8512 519.146 91.8093C519.054 91.7661 518.944 91.7444 518.815 91.7444H518.177V92.7334ZM518.177 91.098H518.732C518.842 91.098 518.939 91.0797 519.024 91.0433C519.109 91.0068 519.175 90.9541 519.223 90.8852C519.271 90.8163 519.296 90.7332 519.296 90.6359C519.296 90.4968 519.246 90.3873 519.148 90.3076C519.049 90.2279 518.916 90.1881 518.749 90.1881H518.177V91.098Z" fill="#D92D20"/>
</g>
</g>
</g>
<g filter="url(#filter8_d_114_629)">
<g clip-path="url(#clip4_114_629)">
<path d="M23 13C23 6.92487 27.9249 2 34 2H558V162H34C27.9249 162 23 157.075 23 151V13Z" fill="white"/>
<g filter="url(#filter9_d_114_629)">
<rect x="31" y="10" width="519" height="86.9741" rx="4" fill="white"/>
<rect x="31.5" y="10.5" width="518" height="85.9741" rx="3.5" stroke="#F4F4F4"/>
<rect x="39.25" y="17.25" width="38.5" height="10.6099" rx="5.30493" fill="#EAFBFF"/>
<rect x="39.25" y="17.25" width="38.5" height="10.6099" rx="5.30493" stroke="#E2ECEE" stroke-width="0.5"/>
<path d="M43.79 24.0549V21.4899C43.64 21.6299 43.375 21.6549 43.065 21.6549V21.2149C43.675 21.1999 43.855 21.0149 43.9 20.5999H44.33V24.0549H43.79ZM45.4991 22.5249H44.9541V21.9799H45.4991V22.5249ZM45.4991 24.0549H44.9541V23.5099H45.4991V24.0549ZM46.539 24.0549V21.4899C46.389 21.6299 46.124 21.6549 45.814 21.6549V21.2149C46.424 21.1999 46.604 21.0149 46.649 20.5999H47.079V24.0549H46.539ZM49.403 24.0549H48.853V20.4799H50.343C51.018 20.4799 51.513 20.7949 51.513 21.5449C51.513 22.2949 51.018 22.6049 50.343 22.6049H49.403V24.0549ZM49.403 22.1299H50.318C50.733 22.1299 50.943 21.9449 50.943 21.5449C50.943 21.1399 50.733 20.9549 50.318 20.9549H49.403V22.1299ZM52.4663 24.1249C51.9563 24.1249 51.6313 23.8299 51.6313 23.3949C51.6313 22.8249 52.0613 22.6549 52.6963 22.5349C53.0963 22.4599 53.3413 22.4099 53.3413 22.1599C53.3413 21.9749 53.2313 21.8199 52.8563 21.8199C52.4113 21.8199 52.2763 21.9599 52.2513 22.2999H51.7513C51.7763 21.8099 52.0963 21.4249 52.8763 21.4249C53.4013 21.4249 53.8213 21.6449 53.8213 22.3049V23.4749C53.8213 23.6599 53.8463 23.7549 53.9413 23.7549C53.9563 23.7549 53.9713 23.7549 54.0013 23.7499V24.0499C53.9163 24.0699 53.8313 24.0799 53.7513 24.0799C53.5063 24.0799 53.3763 23.9849 53.3463 23.6949H53.3363C53.1713 23.9599 52.8813 24.1249 52.4663 24.1249ZM52.5763 23.7299C53.0163 23.7299 53.3413 23.5049 53.3413 23.0599V22.6949C53.2613 22.7699 53.0413 22.8249 52.7813 22.8799C52.3313 22.9699 52.1413 23.0949 52.1413 23.3599C52.1413 23.5999 52.2713 23.7299 52.5763 23.7299ZM54.9426 21.0499H54.3876V20.5199H54.9426V21.0499ZM54.9076 24.0549H54.4176V21.5049H54.9076V24.0549ZM56.6426 21.4449C56.7326 21.4449 56.8026 21.4499 56.8776 21.4599V21.9299C56.8176 21.9199 56.7726 21.9149 56.7126 21.9149C56.2676 21.9149 55.9476 22.2499 55.9476 22.7349V24.0549H55.4576V21.5049H55.9476V21.9899H55.9576C56.0926 21.6699 56.2976 21.4449 56.6426 21.4449ZM58.7585 24.0549H58.2085V20.4799H59.6985C60.4885 20.4799 60.9135 20.8499 60.9135 21.5099C60.9135 21.9649 60.6385 22.2949 60.2435 22.3849V22.3949C61.0735 22.5499 60.7685 23.9599 60.9635 24.0199V24.0549H60.3735C60.2135 23.9049 60.5535 22.6549 59.6785 22.6549H58.7585V24.0549ZM58.7585 22.1799H59.5785C60.0835 22.1799 60.3585 21.9599 60.3585 21.5499C60.3585 21.1649 60.1385 20.9549 59.5885 20.9549H58.7585V22.1799ZM63.6961 22.7249C63.6961 22.7949 63.6961 22.8699 63.6911 22.9099H61.7311C61.7411 23.3349 61.9911 23.7299 62.4961 23.7299C62.9461 23.7299 63.1211 23.4399 63.1661 23.2699H63.6661C63.5311 23.7599 63.1561 24.1299 62.4861 24.1299C61.6761 24.1299 61.2261 23.5549 61.2261 22.7749C61.2261 21.9749 61.7061 21.4249 62.4861 21.4249C63.2611 21.4249 63.6961 21.9349 63.6961 22.7249ZM61.7311 22.5249H63.1861C63.1861 22.1249 62.9061 21.8249 62.4711 21.8249C62.0611 21.8249 61.7611 22.1049 61.7311 22.5249ZM65.2518 24.0549H64.7018L63.7918 21.5049H64.3168L64.9868 23.5499H64.9918L65.6518 21.5049H66.1618L65.2518 24.0549ZM66.9982 21.0499H66.4432V20.5199H66.9982V21.0499ZM66.9632 24.0549H66.4732V21.5049H66.9632V24.0549ZM69.8533 22.7249C69.8533 22.7949 69.8533 22.8699 69.8483 22.9099H67.8883C67.8983 23.3349 68.1483 23.7299 68.6533 23.7299C69.1033 23.7299 69.2783 23.4399 69.3233 23.2699H69.8233C69.6883 23.7599 69.3133 24.1299 68.6433 24.1299C67.8333 24.1299 67.3833 23.5549 67.3833 22.7749C67.3833 21.9749 67.8633 21.4249 68.6433 21.4249C69.4183 21.4249 69.8533 21.9349 69.8533 22.7249ZM67.8883 22.5249H69.3433C69.3433 22.1249 69.0633 21.8249 68.6283 21.8249C68.2183 21.8249 67.9183 22.1049 67.8883 22.5249ZM71.2785 24.0549H70.7735L69.9835 21.5049H70.5135L71.0535 23.4799H71.0635L71.5935 21.5049H72.0885L72.6185 23.4799H72.6285L73.1735 21.5049H73.6835L72.8935 24.0549H72.3885L71.8385 22.0899H71.8285L71.2785 24.0549Z" fill="#71878E"/>
<rect x="39.25" y="35.3599" width="19.5" height="19.5" rx="1.75" fill="white"/>
<rect x="39.25" y="35.3599" width="19.5" height="19.5" rx="1.75" stroke="#F8F6F9" stroke-width="0.5"/>
<path fill-rule="evenodd" clip-rule="evenodd" d="M44.3388 39.866C44.017 39.866 43.7561 40.1268 43.7561 40.4486V49.7713C43.7561 50.0931 44.017 50.354 44.3388 50.354H53.6615C53.9833 50.354 54.2441 50.0931 54.2441 49.7713V43.799L50.3111 39.866H44.3388Z" fill="#F2F2F2"/>
<path d="M50.3112 43.799L54.2442 43.799L50.3112 39.866L50.3112 43.799Z" fill="#BDBDBD"/>
<rect x="44.4116" y="45.1101" width="9.17703" height="4.26077" rx="0.320475" fill="#EF4444"/>
<path d="M45.9572 48.4694V46.0112H46.8621C47.0475 46.0112 47.2031 46.0464 47.3288 46.1169C47.4553 46.1873 47.5507 46.2841 47.6151 46.4073C47.6803 46.5297 47.7129 46.669 47.7129 46.825C47.7129 46.9826 47.6803 47.1227 47.6151 47.2451C47.5499 47.3675 47.4537 47.4639 47.3264 47.5344C47.1992 47.604 47.0424 47.6388 46.8563 47.6388H46.2565V47.2727H46.7973C46.9057 47.2727 46.9945 47.2535 47.0637 47.2151C47.1328 47.1767 47.1838 47.1239 47.2168 47.0567C47.2506 46.9894 47.2675 46.9122 47.2675 46.825C47.2675 46.7378 47.2506 46.661 47.2168 46.5946C47.1838 46.5281 47.1324 46.4765 47.0625 46.4397C46.9933 46.4021 46.9042 46.3833 46.795 46.3833H46.3943V48.4694H45.9572Z" fill="white"/>
<path d="M48.9105 48.4694H48.0927V46.0112H48.927C49.1666 46.0112 49.3724 46.0604 49.5444 46.1589C49.7173 46.2565 49.85 46.3969 49.9427 46.5802C50.0354 46.7634 50.0818 46.9826 50.0818 47.2379C50.0818 47.494 50.035 47.714 49.9416 47.898C49.8489 48.0821 49.7149 48.2233 49.5397 48.3217C49.3653 48.4202 49.1556 48.4694 48.9105 48.4694ZM48.5299 48.0841H48.8893C49.0574 48.0841 49.1976 48.0529 49.3099 47.9905C49.4223 47.9272 49.5067 47.8332 49.5633 47.7084C49.6199 47.5828 49.6481 47.4259 49.6481 47.2379C49.6481 47.0499 49.6199 46.8938 49.5633 46.7698C49.5067 46.645 49.4231 46.5517 49.3123 46.4901C49.2023 46.4277 49.0656 46.3965 48.9022 46.3965H48.5299V48.0841Z" fill="white"/>
<path d="M50.4972 48.4694V46.0112H52.0432V46.3845H50.9343V47.0519H51.9371V47.4251H50.9343V48.4694H50.4972Z" fill="white"/>
<path d="M45.9572 48.4694V46.0112H46.8621C47.0475 46.0112 47.2031 46.0464 47.3288 46.1169C47.4553 46.1873 47.5507 46.2841 47.6151 46.4073C47.6803 46.5297 47.7129 46.669 47.7129 46.825C47.7129 46.9826 47.6803 47.1227 47.6151 47.2451C47.5499 47.3675 47.4537 47.4639 47.3264 47.5344C47.1992 47.604 47.0424 47.6388 46.8563 47.6388H46.2565V47.2727H46.7973C46.9057 47.2727 46.9945 47.2535 47.0637 47.2151C47.1328 47.1767 47.1838 47.1239 47.2168 47.0567C47.2506 46.9894 47.2675 46.9122 47.2675 46.825C47.2675 46.7378 47.2506 46.661 47.2168 46.5946C47.1838 46.5281 47.1324 46.4765 47.0625 46.4397C46.9933 46.4021 46.9042 46.3833 46.795 46.3833H46.3943V48.4694H45.9572Z" stroke="white" stroke-width="0.145667"/>
<path d="M48.9105 48.4694H48.0927V46.0112H48.927C49.1666 46.0112 49.3724 46.0604 49.5444 46.1589C49.7173 46.2565 49.85 46.3969 49.9427 46.5802C50.0354 46.7634 50.0818 46.9826 50.0818 47.2379C50.0818 47.494 50.035 47.714 49.9416 47.898C49.8489 48.0821 49.7149 48.2233 49.5397 48.3217C49.3653 48.4202 49.1556 48.4694 48.9105 48.4694ZM48.5299 48.0841H48.8893C49.0574 48.0841 49.1976 48.0529 49.3099 47.9905C49.4223 47.9272 49.5067 47.8332 49.5633 47.7084C49.6199 47.5828 49.6481 47.4259 49.6481 47.2379C49.6481 47.0499 49.6199 46.8938 49.5633 46.7698C49.5067 46.645 49.4231 46.5517 49.3123 46.4901C49.2023 46.4277 49.0656 46.3965 48.9022 46.3965H48.5299V48.0841Z" stroke="white" stroke-width="0.145667"/>
<path d="M50.4972 48.4694V46.0112H52.0432V46.3845H50.9343V47.0519H51.9371V47.4251H50.9343V48.4694H50.4972Z" stroke="white" stroke-width="0.145667"/>
<path d="M66.728 41.1099H65.432V35.9619H67.9304C69.0032 35.9619 69.6728 36.5235 69.6728 37.6035C69.6728 38.6835 69.0032 39.2451 67.9304 39.2451H66.728V41.1099ZM66.728 38.1867H67.628C68.0744 38.1867 68.348 38.0355 68.348 37.6035C68.348 37.1715 68.0744 37.0203 67.628 37.0203H66.728V38.1867ZM71.7152 41.2323C70.4984 41.2323 69.7568 40.4403 69.7568 39.2739C69.7568 38.1147 70.4984 37.3011 71.7368 37.3011C72.9536 37.3011 73.6952 38.0931 73.6952 39.2523C73.6952 40.4187 72.9536 41.2323 71.7152 41.2323ZM71.7296 40.3683C72.2408 40.3683 72.5288 39.9795 72.5288 39.2667C72.5288 38.5539 72.2408 38.1651 71.7296 38.1651C71.2112 38.1651 70.9232 38.5539 70.9232 39.2667C70.9232 39.9795 71.2112 40.3683 71.7296 40.3683ZM76.2355 37.3947C76.3363 37.3947 76.4227 37.3947 76.5523 37.4235V38.4315C76.4587 38.4171 76.3939 38.4099 76.3147 38.4099C75.7963 38.4099 75.3211 38.7339 75.3211 39.3963V41.1099H74.1691V37.4235H75.3211V38.0283H75.3355C75.5155 37.6395 75.8323 37.3947 76.2355 37.3947ZM78.7611 40.3179C78.8691 40.3179 78.9339 40.3107 79.0707 40.2891V41.1027C78.8259 41.1603 78.6171 41.1819 78.3867 41.1819C77.5803 41.1819 77.2347 40.8147 77.2347 39.9147V38.2875H76.7235V37.4235H77.2347V36.3939H78.3867V37.4235H79.0275V38.2875H78.3867V39.8859C78.3867 40.2819 78.5379 40.3179 78.7611 40.3179ZM81.3979 36.7611C81.1963 36.7611 81.0451 36.7971 81.0451 37.1931V37.4235H81.6859V38.2875H81.0451V41.1099H79.8931V38.2875H79.3963V37.4235H79.8931V37.1643C79.8931 36.2643 80.2387 35.8971 81.0307 35.8971C81.2467 35.8971 81.4411 35.9187 81.6859 35.9691V36.7827C81.5491 36.7683 81.4915 36.7611 81.3979 36.7611ZM83.7949 41.2323C82.5781 41.2323 81.8365 40.4403 81.8365 39.2739C81.8365 38.1147 82.5781 37.3011 83.8165 37.3011C85.0333 37.3011 85.7749 38.0931 85.7749 39.2523C85.7749 40.4187 85.0333 41.2323 83.7949 41.2323ZM83.8093 40.3683C84.3205 40.3683 84.6085 39.9795 84.6085 39.2667C84.6085 38.5539 84.3205 38.1651 83.8093 38.1651C83.2909 38.1651 83.0029 38.5539 83.0029 39.2667C83.0029 39.9795 83.2909 40.3683 83.8093 40.3683ZM87.4008 41.1099H86.2488V35.9619H87.4008V41.1099ZM89.1868 36.9843H88.0348V35.9619H89.1868V36.9843ZM89.1868 41.1099H88.0348V37.4235H89.1868V41.1099ZM91.6207 41.2323C90.4039 41.2323 89.6623 40.4403 89.6623 39.2739C89.6623 38.1147 90.4039 37.3011 91.6423 37.3011C92.8591 37.3011 93.6007 38.0931 93.6007 39.2523C93.6007 40.4187 92.8591 41.2323 91.6207 41.2323ZM91.6351 40.3683C92.1463 40.3683 92.4343 39.9795 92.4343 39.2667C92.4343 38.5539 92.1463 38.1651 91.6351 38.1651C91.1167 38.1651 90.8287 38.5539 90.8287 39.2667C90.8287 39.9795 91.1167 40.3683 91.6351 40.3683ZM96.0035 41.1099H95.0675L97.0619 35.9619H97.9979L96.0035 41.1099ZM99.81 41.1099H98.514V35.9619H100.94C102.085 35.9619 102.776 36.4947 102.776 37.4307C102.776 38.1507 102.373 38.5755 101.732 38.7195V38.7339C103.021 38.9571 102.553 40.9515 102.848 41.0379V41.1099H101.502C101.25 40.8939 101.718 39.3171 100.616 39.3171H99.81V41.1099ZM99.81 38.2587H100.688C101.207 38.2587 101.48 38.0715 101.48 37.6395C101.48 37.2075 101.207 37.0203 100.688 37.0203H99.81V38.2587ZM106.872 39.4035V39.5763H104.223C104.223 40.0875 104.583 40.3683 105.015 40.3683C105.425 40.3683 105.598 40.1811 105.67 39.9939H106.844C106.635 40.7427 106.023 41.2323 104.986 41.2323C103.791 41.2323 103.071 40.4187 103.071 39.2667C103.071 38.1867 103.748 37.3011 104.986 37.3011C106.239 37.3011 106.872 38.0427 106.872 39.4035ZM104.23 38.8635H105.713C105.713 38.3883 105.432 38.1363 104.986 38.1363C104.547 38.1363 104.259 38.3883 104.23 38.8635ZM108.991 41.2251C107.702 41.2251 107.198 40.6059 107.169 39.8859H108.249C108.285 40.2531 108.53 40.4331 108.969 40.4331C109.308 40.4331 109.459 40.3251 109.459 40.1163C109.459 39.7851 109.092 39.7491 108.559 39.6267C107.911 39.4755 107.241 39.2163 107.241 38.4675C107.241 37.7763 107.817 37.3083 108.854 37.3083C110.035 37.3083 110.496 37.9059 110.532 38.5539H109.452C109.416 38.2587 109.257 38.1003 108.876 38.1003C108.559 38.1003 108.422 38.2155 108.422 38.3955C108.422 38.6403 108.638 38.6547 109.193 38.7843C109.92 38.9571 110.64 39.1731 110.64 40.0299C110.64 40.8003 110.057 41.2251 108.991 41.2251ZM113.495 39.5547V37.4235H114.647V41.1099H113.495V40.5771H113.48C113.286 40.9155 112.926 41.2251 112.271 41.2251C111.558 41.2251 111.076 40.7571 111.076 39.9147V37.4235H112.228V39.5475C112.228 40.1019 112.422 40.2891 112.804 40.2891C113.243 40.2891 113.495 40.0659 113.495 39.5547ZM119.817 37.3083C120.558 37.3083 120.998 37.7763 120.998 38.6187V41.1099H119.831V38.9859C119.831 38.4315 119.716 38.2443 119.306 38.2443C118.938 38.2443 118.708 38.4675 118.708 38.9787V41.1099H117.556V38.9859C117.556 38.4315 117.441 38.2443 117.03 38.2443C116.67 38.2443 116.433 38.4675 116.433 38.9787V41.1099H115.281V37.4235H116.433V37.9563H116.447C116.642 37.6179 117.045 37.3083 117.599 37.3083C118.082 37.3083 118.42 37.5747 118.564 37.9563H118.578C118.895 37.5891 119.219 37.3083 119.817 37.3083ZM125.252 39.4035V39.5763H122.603C122.603 40.0875 122.963 40.3683 123.395 40.3683C123.805 40.3683 123.978 40.1811 124.05 39.9939H125.223C125.015 40.7427 124.403 41.2323 123.366 41.2323C122.171 41.2323 121.451 40.4187 121.451 39.2667C121.451 38.1867 122.127 37.3011 123.366 37.3011C124.619 37.3011 125.252 38.0427 125.252 39.4035ZM122.61 38.8635H124.093C124.093 38.3883 123.812 38.1363 123.366 38.1363C122.927 38.1363 122.639 38.3883 122.61 38.8635ZM128.519 41.1099H127.223V35.9619H129.649C130.794 35.9619 131.485 36.4947 131.485 37.4307C131.485 38.1507 131.082 38.5755 130.441 38.7195V38.7339C131.73 38.9571 131.262 40.9515 131.557 41.0379V41.1099H130.211C129.959 40.8939 130.427 39.3171 129.325 39.3171H128.519V41.1099ZM128.519 38.2587H129.397C129.915 38.2587 130.189 38.0715 130.189 37.6395C130.189 37.2075 129.915 37.0203 129.397 37.0203H128.519V38.2587ZM135.581 39.4035V39.5763H132.931C132.931 40.0875 133.291 40.3683 133.723 40.3683C134.134 40.3683 134.307 40.1811 134.379 39.9939H135.552C135.343 40.7427 134.731 41.2323 133.695 41.2323C132.499 41.2323 131.779 40.4187 131.779 39.2667C131.779 38.1867 132.456 37.3011 133.695 37.3011C134.947 37.3011 135.581 38.0427 135.581 39.4035ZM132.939 38.8635H134.422C134.422 38.3883 134.141 38.1363 133.695 38.1363C133.255 38.1363 132.967 38.3883 132.939 38.8635ZM138.15 41.1099H136.883L135.608 37.4235H136.775L137.523 39.8571H137.538L138.287 37.4235H139.424L138.15 41.1099ZM140.909 36.9843H139.757V35.9619H140.909V36.9843ZM140.909 41.1099H139.757V37.4235H140.909V41.1099ZM145.186 39.4035V39.5763H142.536C142.536 40.0875 142.896 40.3683 143.328 40.3683C143.739 40.3683 143.911 40.1811 143.983 39.9939H145.157C144.948 40.7427 144.336 41.2323 143.299 41.2323C142.104 41.2323 141.384 40.4187 141.384 39.2667C141.384 38.1867 142.061 37.3011 143.299 37.3011C144.552 37.3011 145.186 38.0427 145.186 39.4035ZM142.543 38.8635H144.027C144.027 38.3883 143.746 38.1363 143.299 38.1363C142.86 38.1363 142.572 38.3883 142.543 38.8635ZM147.386 41.1099H146.306L145.276 37.4235H146.428L146.983 39.6699H146.997L147.616 37.4235H148.624L149.243 39.6699H149.265L149.819 37.4235H150.935L149.906 41.1099H148.826L148.113 38.7771H148.099L147.386 41.1099Z" fill="#545655"/>
<rect x="65" y="45.1099" width="477" height="5" rx="2.5" fill="#E8EBF2"/>
<rect x="65" y="53.1099" width="61.3123" height="5" rx="2.5" fill="#E8EBF2"/>
<g filter="url(#filter10_ddd_114_629)">
<rect x="39" y="65.1099" width="503" height="24.8643" rx="2.07519" fill="white" shape-rendering="crispEdges"/>
<rect x="39.2853" y="65.3952" width="502.429" height="24.2936" rx="1.78985" stroke="#F1F1F1" stroke-width="0.570677" shape-rendering="crispEdges"/>
<g clip-path="url(#clip5_114_629)">
<g clip-path="url(#clip6_114_629)">
<path d="M56.087 73.8048V82.5073C56.087 83.1928 55.5313 83.7486 54.8457 83.7486H48.0185C47.333 83.7486 46.7772 83.1928 46.7772 82.5073V72.5768C46.7772 71.8912 47.333 71.3354 48.0185 71.3354H53.3986L56.087 73.8048Z" fill="#F2F4F7"/>
<g filter="url(#filter11_d_114_629)">
<path d="M56.087 73.8048H53.7089C53.5375 73.8048 53.3986 73.6659 53.3986 73.4945V71.3354L56.087 73.8048Z" fill="#F2F4F7"/>
</g>
<path d="M50.4498 79.4538C50.4498 79.5673 50.4237 79.6716 50.3716 79.7666C50.3194 79.8597 50.2394 79.9351 50.1314 79.9928C50.0234 80.0505 49.8893 80.0794 49.7292 80.0794H49.4331V80.7832H48.9555V78.8225H49.7292C49.8856 78.8225 50.0178 78.8495 50.1258 78.9035C50.2338 78.9575 50.3148 79.032 50.3688 79.127C50.4228 79.2219 50.4498 79.3309 50.4498 79.4538ZM49.6929 79.6995C49.7841 79.6995 49.8521 79.6781 49.8968 79.6353C49.9414 79.5925 49.9638 79.532 49.9638 79.4538C49.9638 79.3756 49.9414 79.315 49.8968 79.2722C49.8521 79.2294 49.7841 79.208 49.6929 79.208H49.4331V79.6995H49.6929ZM51.4329 78.8225C51.6396 78.8225 51.8202 78.8635 51.9748 78.9454C52.1293 79.0274 52.2485 79.1428 52.3323 79.2918C52.4179 79.4389 52.4608 79.6092 52.4608 79.8029C52.4608 79.9947 52.4179 80.165 52.3323 80.314C52.2485 80.4629 52.1284 80.5784 51.972 80.6603C51.8174 80.7422 51.6378 80.7832 51.4329 80.7832H50.6984V78.8225H51.4329ZM51.4022 80.3698C51.5828 80.3698 51.7234 80.3205 51.824 80.2218C51.9245 80.1231 51.9748 79.9835 51.9748 79.8029C51.9748 79.6223 51.9245 79.4817 51.824 79.3811C51.7234 79.2806 51.5828 79.2303 51.4022 79.2303H51.176V80.3698H51.4022ZM54.004 78.8225V79.2052H53.2053V79.6185H53.8029V79.99H53.2053V80.7832H52.7277V78.8225H54.004Z" fill="#475467"/>
</g>
<path d="M62.1984 75.3916H63.1185L64.3506 78.399H64.3993L65.6314 75.3916H66.5515V79.542H65.83V76.6906H65.7915L64.6445 79.5298H64.1054L62.9584 76.6846H62.9199V79.542H62.1984V75.3916ZM67.9079 80.7093C67.8079 80.7093 67.7153 80.7012 67.6302 80.685C67.5465 80.6701 67.4796 80.6525 67.4296 80.6323L67.5998 80.0608C67.7066 80.0919 67.8018 80.1067 67.8856 80.1054C67.9693 80.104 68.043 80.0777 68.1065 80.0263C68.1713 79.9763 68.226 79.8926 68.2706 79.775L68.3334 79.6068L67.2047 76.4292H67.9828L68.7002 78.78H68.7327L69.4521 76.4292H70.2323L68.986 79.9189C68.9279 80.0838 68.8509 80.2249 68.755 80.3425C68.659 80.4614 68.5415 80.5519 68.4023 80.614C68.2645 80.6775 68.0997 80.7093 67.9079 80.7093ZM70.8865 79.542V75.3916H72.4429C72.7618 75.3916 73.0293 75.447 73.2454 75.5578C73.463 75.6686 73.6271 75.8239 73.7379 76.0239C73.85 76.2225 73.9061 76.4542 73.9061 76.719C73.9061 76.9852 73.8493 77.2162 73.7359 77.4121C73.6237 77.6066 73.4582 77.7573 73.2394 77.864C73.0205 77.9694 72.7516 78.0221 72.4328 78.0221H71.3243V77.3979H72.3315C72.5179 77.3979 72.6706 77.3722 72.7895 77.3209C72.9084 77.2682 72.9962 77.1919 73.0529 77.0919C73.111 76.9906 73.1401 76.8663 73.1401 76.719C73.1401 76.5717 73.111 76.4461 73.0529 76.3421C72.9948 76.2367 72.9063 76.157 72.7874 76.1029C72.6685 76.0475 72.5152 76.0198 72.3274 76.0198H71.6384V79.542H70.8865ZM73.0306 77.6614L74.0581 79.542H73.2191L72.2099 77.6614H73.0306ZM76.0133 79.6028C75.7013 79.6028 75.4317 79.5379 75.2047 79.4082C74.9791 79.2772 74.8055 79.0921 74.6839 78.853C74.5623 78.6125 74.5015 78.3294 74.5015 78.0038C74.5015 77.6836 74.5623 77.4026 74.6839 77.1608C74.8069 76.9176 74.9784 76.7285 75.1987 76.5934C75.4189 76.4569 75.6776 76.3887 75.9748 76.3887C76.1667 76.3887 76.3477 76.4198 76.518 76.4819C76.6895 76.5427 76.8408 76.6373 76.9719 76.7656C77.1043 76.894 77.2083 77.0574 77.284 77.256C77.3596 77.4533 77.3975 77.6884 77.3975 77.9613V78.1862H74.846V77.6918H76.6943C76.6929 77.5512 76.6625 77.4263 76.6031 77.3168C76.5436 77.2061 76.4605 77.1189 76.3538 77.0554C76.2484 76.9919 76.1255 76.9602 75.985 76.9602C75.835 76.9602 75.7033 76.9966 75.5898 77.0696C75.4763 77.1412 75.3878 77.2358 75.3243 77.3533C75.2622 77.4695 75.2304 77.5972 75.2291 77.7363V78.168C75.2291 78.349 75.2622 78.5044 75.3284 78.6341C75.3946 78.7624 75.4871 78.8611 75.606 78.93C75.7249 78.9975 75.8641 79.0313 76.0235 79.0313C76.1302 79.0313 76.2268 79.0164 76.3133 78.9867C76.3997 78.9556 76.4747 78.9104 76.5382 78.8509C76.6017 78.7915 76.6497 78.7179 76.6821 78.63L77.3671 78.7071C77.3238 78.8881 77.2414 79.0462 77.1198 79.1813C76.9996 79.315 76.8456 79.419 76.6578 79.4934C76.47 79.5663 76.2552 79.6028 76.0133 79.6028ZM80.5925 77.252L79.9237 77.3249C79.9048 77.2574 79.8717 77.1939 79.8244 77.1345C79.7785 77.075 79.7163 77.027 79.638 76.9906C79.5596 76.9541 79.4637 76.9358 79.3502 76.9358C79.1975 76.9358 79.0692 76.9689 78.9652 77.0351C78.8625 77.1013 78.8118 77.1871 78.8132 77.2925C78.8118 77.383 78.8449 77.4567 78.9125 77.5134C78.9814 77.5702 79.0949 77.6168 79.2529 77.6532L79.7839 77.7667C80.0784 77.8302 80.2973 77.9309 80.4405 78.0687C80.585 78.2065 80.658 78.3869 80.6593 78.6098C80.658 78.8057 80.6006 78.9786 80.4871 79.1286C80.375 79.2772 80.2189 79.3934 80.019 79.4771C79.819 79.5609 79.5893 79.6028 79.3299 79.6028C78.9489 79.6028 78.6423 79.5231 78.4099 79.3637C78.1775 79.2029 78.039 78.9793 77.9944 78.6929L78.7098 78.624C78.7422 78.7645 78.8111 78.8705 78.9165 78.9421C79.0219 79.0137 79.159 79.0495 79.3279 79.0495C79.5022 79.0495 79.642 79.0137 79.7474 78.9421C79.8541 78.8705 79.9075 78.782 79.9075 78.6767C79.9075 78.5875 79.873 78.5139 79.8041 78.4558C79.7366 78.3977 79.6312 78.3531 79.488 78.322L78.957 78.2105C78.6585 78.1484 78.4376 78.0437 78.2944 77.8964C78.1512 77.7478 78.0802 77.56 78.0816 77.3331C78.0802 77.1412 78.1322 76.975 78.2376 76.8345C78.3444 76.6927 78.4923 76.5832 78.6814 76.5062C78.8719 76.4279 79.0915 76.3887 79.3401 76.3887C79.7048 76.3887 79.9919 76.4664 80.2013 76.6217C80.4121 76.7771 80.5425 76.9872 80.5925 77.252ZM83.3624 78.2328V76.4292H84.096V79.542H83.3847V78.9887H83.3523C83.282 79.163 83.1665 79.3056 83.0057 79.4163C82.8463 79.5271 82.6497 79.5825 82.416 79.5825C82.212 79.5825 82.0316 79.5373 81.8749 79.4467C81.7195 79.3549 81.598 79.2218 81.5101 79.0475C81.4223 78.8719 81.3784 78.6598 81.3784 78.4112V76.4292H82.112V78.2977C82.112 78.4949 82.1661 78.6517 82.2741 78.7678C82.3822 78.884 82.5241 78.9421 82.6997 78.9421C82.8078 78.9421 82.9125 78.9158 83.0138 78.8631C83.1152 78.8104 83.1983 78.732 83.2631 78.628C83.3293 78.5226 83.3624 78.3909 83.3624 78.2328ZM84.9645 79.542V76.4292H85.6657V76.9581H85.7022C85.767 76.7798 85.8745 76.6406 86.0244 76.5407C86.1744 76.4393 86.3534 76.3887 86.5615 76.3887C86.7722 76.3887 86.9499 76.44 87.0944 76.5427C87.2403 76.644 87.343 76.7825 87.4025 76.9581H87.4349C87.5038 76.7852 87.62 76.6474 87.7835 76.5447C87.9483 76.4407 88.1435 76.3887 88.3691 76.3887C88.6556 76.3887 88.8893 76.4792 89.0703 76.6602C89.2514 76.8413 89.3419 77.1054 89.3419 77.4526V79.542H88.6062V77.5661C88.6062 77.3729 88.5549 77.2317 88.4522 77.1426C88.3495 77.052 88.2239 77.0068 88.0753 77.0068C87.8983 77.0068 87.7598 77.0622 87.6598 77.173C87.5612 77.2824 87.5119 77.4249 87.5119 77.6006V79.542H86.7925V77.5357C86.7925 77.3749 86.7438 77.2466 86.6466 77.1507C86.5506 77.0547 86.425 77.0068 86.2696 77.0068C86.1643 77.0068 86.0683 77.0338 85.9819 77.0878C85.8954 77.1405 85.8265 77.2155 85.7752 77.3128C85.7238 77.4087 85.6981 77.5208 85.6981 77.6492V79.542H84.9645ZM91.5783 79.6028C91.2662 79.6028 90.9967 79.5379 90.7697 79.4082C90.5441 79.2772 90.3705 79.0921 90.2489 78.853C90.1273 78.6125 90.0665 78.3294 90.0665 78.0038C90.0665 77.6836 90.1273 77.4026 90.2489 77.1608C90.3718 76.9176 90.5434 76.7285 90.7636 76.5934C90.9839 76.4569 91.2426 76.3887 91.5398 76.3887C91.7317 76.3887 91.9127 76.4198 92.0829 76.4819C92.2545 76.5427 92.4058 76.6373 92.5369 76.7656C92.6693 76.894 92.7733 77.0574 92.849 77.256C92.9246 77.4533 92.9625 77.6884 92.9625 77.9613V78.1862H90.411V77.6918H92.2592C92.2579 77.5512 92.2275 77.4263 92.168 77.3168C92.1086 77.2061 92.0255 77.1189 91.9188 77.0554C91.8134 76.9919 91.6905 76.9602 91.55 76.9602C91.4 76.9602 91.2683 76.9966 91.1548 77.0696C91.0413 77.1412 90.9528 77.2358 90.8893 77.3533C90.8271 77.4695 90.7954 77.5972 90.794 77.7363V78.168C90.794 78.349 90.8271 78.5044 90.8933 78.6341C90.9595 78.7624 91.0521 78.8611 91.171 78.93C91.2899 78.9975 91.429 79.0313 91.5885 79.0313C91.6952 79.0313 91.7918 79.0164 91.8783 78.9867C91.9647 78.9556 92.0397 78.9104 92.1032 78.8509C92.1667 78.7915 92.2147 78.7179 92.2471 78.63L92.9321 78.7071C92.8888 78.8881 92.8064 79.0462 92.6848 79.1813C92.5646 79.315 92.4106 79.419 92.2228 79.4934C92.035 79.5663 91.8202 79.6028 91.5783 79.6028Z" fill="#292929"/>
</g>
<path d="M518.122 79.042L519.588 76.1372V76.1141H517.873V75.4056H520.498V76.1194L519.026 79.042H518.122ZM522.427 79.0917C522.144 79.0917 521.892 79.0467 521.669 78.9568C521.448 78.8656 521.274 78.7425 521.147 78.5874C521.022 78.4312 520.959 78.2548 520.959 78.0583C520.959 77.908 520.995 77.7701 521.067 77.6446C521.139 77.5191 521.237 77.415 521.36 77.3321C521.484 77.2481 521.623 77.1942 521.776 77.1705V77.1421C521.576 77.1054 521.412 77.0125 521.284 76.8634C521.157 76.7142 521.094 76.5396 521.094 76.3396C521.094 76.1502 521.151 75.9815 521.266 75.8335C521.382 75.6856 521.54 75.569 521.74 75.4838C521.941 75.3985 522.17 75.3559 522.427 75.3559C522.684 75.3559 522.913 75.3985 523.113 75.4838C523.314 75.569 523.472 75.6856 523.587 75.8335C523.703 75.9815 523.761 76.1502 523.761 76.3396C523.761 76.5408 523.696 76.716 523.567 76.8651C523.439 77.0131 523.277 77.1054 523.079 77.1421V77.1705C523.23 77.1942 523.368 77.2481 523.491 77.3321C523.615 77.415 523.713 77.5191 523.786 77.6446C523.859 77.7701 523.896 77.908 523.896 78.0583C523.896 78.2548 523.832 78.4312 523.706 78.5874C523.579 78.7425 523.405 78.8656 523.184 78.9568C522.963 79.0467 522.711 79.0917 522.427 79.0917ZM522.427 78.4685C522.535 78.4685 522.63 78.4484 522.711 78.4081C522.793 78.3667 522.857 78.3093 522.903 78.2359C522.95 78.1625 522.974 78.0796 522.974 77.9873C522.974 77.8926 522.95 77.8086 522.903 77.7352C522.856 77.6618 522.791 77.6044 522.708 77.5629C522.626 77.5203 522.533 77.499 522.427 77.499C522.323 77.499 522.23 77.5203 522.147 77.5629C522.064 77.6044 521.999 77.6618 521.951 77.7352C521.904 77.8086 521.88 77.8926 521.88 77.9873C521.88 78.0796 521.903 78.1625 521.95 78.2359C521.997 78.3081 522.061 78.3649 522.143 78.4063C522.226 78.4478 522.321 78.4685 522.427 78.4685ZM522.427 76.8794C522.52 76.8794 522.601 76.8604 522.672 76.8225C522.744 76.7847 522.801 76.732 522.841 76.6645C522.882 76.597 522.903 76.5207 522.903 76.4355C522.903 76.3502 522.882 76.2751 522.841 76.21C522.801 76.1449 522.745 76.094 522.674 76.0573C522.603 76.0194 522.521 76.0004 522.427 76.0004C522.335 76.0004 522.253 76.0194 522.18 76.0573C522.108 76.094 522.052 76.1449 522.012 76.21C521.972 76.2751 521.951 76.3502 521.951 76.4355C521.951 76.5207 521.972 76.597 522.012 76.6645C522.053 76.7308 522.11 76.7835 522.182 76.8225C522.254 76.8604 522.336 76.8794 522.427 76.8794ZM525.667 75.4056H526.755L527.679 77.657H527.721L528.645 75.4056H529.733V79.042H528.877V76.8083H528.847L527.973 79.0189H527.427L526.553 76.7959H526.523V79.042H525.667V75.4056ZM530.381 79.042V75.4056H531.898C532.17 75.4056 532.398 75.4441 532.581 75.521C532.766 75.598 532.904 75.7057 532.997 75.8442C533.09 75.9827 533.137 76.1431 533.137 76.3254C533.137 76.4639 533.108 76.5876 533.05 76.6965C532.992 76.8042 532.912 76.8936 532.81 76.9646C532.708 77.0356 532.591 77.0853 532.457 77.1137V77.1492C532.604 77.1563 532.739 77.196 532.864 77.2682C532.989 77.3404 533.09 77.441 533.165 77.57C533.241 77.6979 533.279 77.8494 533.279 78.0246C533.279 78.2199 533.229 78.3945 533.13 78.5484C533.03 78.7011 532.887 78.8218 532.698 78.9106C532.51 78.9982 532.282 79.042 532.013 79.042H530.381ZM531.26 78.3335H531.803C531.994 78.3335 532.134 78.2974 532.224 78.2252C532.315 78.153 532.361 78.0524 532.361 77.9234C532.361 77.8299 532.339 77.7494 532.295 77.6819C532.252 77.6133 532.189 77.5606 532.109 77.5239C532.028 77.486 531.932 77.4671 531.819 77.4671H531.26V78.3335ZM531.26 76.9007H531.747C531.843 76.9007 531.928 76.8847 532.002 76.8527C532.077 76.8208 532.135 76.7746 532.176 76.7142C532.219 76.6539 532.24 76.5811 532.24 76.4958C532.24 76.3739 532.197 76.278 532.111 76.2082C532.024 76.1383 531.908 76.1034 531.761 76.1034H531.26V76.9007Z" fill="#4A8CFF"/>
</g>
</g>
<g filter="url(#filter12_d_114_629)">
<rect x="31" y="108.974" width="519" height="86.9741" rx="4" fill="white"/>
<rect x="31.5" y="109.474" width="518" height="85.9741" rx="3.5" stroke="#F4F4F4"/>
<rect x="39.25" y="116.224" width="38.5" height="10.6099" rx="5.30493" fill="#EAFBFF"/>
<rect x="39.25" y="116.224" width="38.5" height="10.6099" rx="5.30493" stroke="#E2ECEE" stroke-width="0.5"/>
<path d="M43.79 123.029V120.464C43.64 120.604 43.375 120.629 43.065 120.629V120.189C43.675 120.174 43.855 119.989 43.9 119.574H44.33V123.029H43.79ZM45.4991 121.499H44.9541V120.954H45.4991V121.499ZM45.4991 123.029H44.9541V122.484H45.4991V123.029ZM46.539 123.029V120.464C46.389 120.604 46.124 120.629 45.814 120.629V120.189C46.424 120.174 46.604 119.989 46.649 119.574H47.079V123.029H46.539ZM49.403 123.029H48.853V119.454H50.343C51.018 119.454 51.513 119.769 51.513 120.519C51.513 121.269 51.018 121.579 50.343 121.579H49.403V123.029ZM49.403 121.104H50.318C50.733 121.104 50.943 120.919 50.943 120.519C50.943 120.114 50.733 119.929 50.318 119.929H49.403V121.104ZM52.4663 123.099C51.9563 123.099 51.6313 122.804 51.6313 122.369C51.6313 121.799 52.0613 121.629 52.6963 121.509C53.0963 121.434 53.3413 121.384 53.3413 121.134C53.3413 120.949 53.2313 120.794 52.8563 120.794C52.4113 120.794 52.2763 120.934 52.2513 121.274H51.7513C51.7763 120.784 52.0963 120.399 52.8763 120.399C53.4013 120.399 53.8213 120.619 53.8213 121.279V122.449C53.8213 122.634 53.8463 122.729 53.9413 122.729C53.9563 122.729 53.9713 122.729 54.0013 122.724V123.024C53.9163 123.044 53.8313 123.054 53.7513 123.054C53.5063 123.054 53.3763 122.959 53.3463 122.669H53.3363C53.1713 122.934 52.8813 123.099 52.4663 123.099ZM52.5763 122.704C53.0163 122.704 53.3413 122.479 53.3413 122.034V121.669C53.2613 121.744 53.0413 121.799 52.7813 121.854C52.3313 121.944 52.1413 122.069 52.1413 122.334C52.1413 122.574 52.2713 122.704 52.5763 122.704ZM54.9426 120.024H54.3876V119.494H54.9426V120.024ZM54.9076 123.029H54.4176V120.479H54.9076V123.029ZM56.6426 120.419C56.7326 120.419 56.8026 120.424 56.8776 120.434V120.904C56.8176 120.894 56.7726 120.889 56.7126 120.889C56.2676 120.889 55.9476 121.224 55.9476 121.709V123.029H55.4576V120.479H55.9476V120.964H55.9576C56.0926 120.644 56.2976 120.419 56.6426 120.419ZM58.7585 123.029H58.2085V119.454H59.6985C60.4885 119.454 60.9135 119.824 60.9135 120.484C60.9135 120.939 60.6385 121.269 60.2435 121.359V121.369C61.0735 121.524 60.7685 122.934 60.9635 122.994V123.029H60.3735C60.2135 122.879 60.5535 121.629 59.6785 121.629H58.7585V123.029ZM58.7585 121.154H59.5785C60.0835 121.154 60.3585 120.934 60.3585 120.524C60.3585 120.139 60.1385 119.929 59.5885 119.929H58.7585V121.154ZM63.6961 121.699C63.6961 121.769 63.6961 121.844 63.6911 121.884H61.7311C61.7411 122.309 61.9911 122.704 62.4961 122.704C62.9461 122.704 63.1211 122.414 63.1661 122.244H63.6661C63.5311 122.734 63.1561 123.104 62.4861 123.104C61.6761 123.104 61.2261 122.529 61.2261 121.749C61.2261 120.949 61.7061 120.399 62.4861 120.399C63.2611 120.399 63.6961 120.909 63.6961 121.699ZM61.7311 121.499H63.1861C63.1861 121.099 62.9061 120.799 62.4711 120.799C62.0611 120.799 61.7611 121.079 61.7311 121.499ZM65.2518 123.029H64.7018L63.7918 120.479H64.3168L64.9868 122.524H64.9918L65.6518 120.479H66.1618L65.2518 123.029ZM66.9982 120.024H66.4432V119.494H66.9982V120.024ZM66.9632 123.029H66.4732V120.479H66.9632V123.029ZM69.8533 121.699C69.8533 121.769 69.8533 121.844 69.8483 121.884H67.8883C67.8983 122.309 68.1483 122.704 68.6533 122.704C69.1033 122.704 69.2783 122.414 69.3233 122.244H69.8233C69.6883 122.734 69.3133 123.104 68.6433 123.104C67.8333 123.104 67.3833 122.529 67.3833 121.749C67.3833 120.949 67.8633 120.399 68.6433 120.399C69.4183 120.399 69.8533 120.909 69.8533 121.699ZM67.8883 121.499H69.3433C69.3433 121.099 69.0633 120.799 68.6283 120.799C68.2183 120.799 67.9183 121.079 67.8883 121.499ZM71.2785 123.029H70.7735L69.9835 120.479H70.5135L71.0535 122.454H71.0635L71.5935 120.479H72.0885L72.6185 122.454H72.6285L73.1735 120.479H73.6835L72.8935 123.029H72.3885L71.8385 121.064H71.8285L71.2785 123.029Z" fill="#71878E"/>
</g>
</g>
<path d="M23.25 13C23.25 7.06294 28.0629 2.25 34 2.25H557.75V161.75H34C28.0629 161.75 23.25 156.937 23.25 151V13Z" stroke="#EEEFF1" stroke-width="0.5"/>
</g>
<defs>
<filter id="filter0_d_114_629" x="0" y="19" width="543" height="168" filterUnits="userSpaceOnUse" color-interpolation-filters="sRGB">
<feFlood flood-opacity="0" result="BackgroundImageFix"/>
<feColorMatrix in="SourceAlpha" type="matrix" values="0 0 0 0 0 0 0 0 0 0 0 0 0 0 0 0 0 0 127 0" result="hardAlpha"/>
<feOffset dx="-2" dy="2"/>
<feGaussianBlur stdDeviation="2"/>
<feComposite in2="hardAlpha" operator="out"/>
<feColorMatrix type="matrix" values="0 0 0 0 0.733154 0 0 0 0 0.733154 0 0 0 0 0.733154 0 0 0 0.25 0"/>
<feBlend mode="normal" in2="BackgroundImageFix" result="effect1_dropShadow_114_629"/>
<feBlend mode="normal" in="SourceGraphic" in2="effect1_dropShadow_114_629" result="shape"/>
</filter>
<filter id="filter1_d_114_629" x="14" y="31" width="519" height="94.9741" filterUnits="userSpaceOnUse" color-interpolation-filters="sRGB">
<feFlood flood-opacity="0" result="BackgroundImageFix"/>
<feColorMatrix in="SourceAlpha" type="matrix" values="0 0 0 0 0 0 0 0 0 0 0 0 0 0 0 0 0 0 127 0" result="hardAlpha"/>
<feOffset dy="2"/>
<feGaussianBlur stdDeviation="2"/>
<feComposite in2="hardAlpha" operator="out"/>
<feColorMatrix type="matrix" values="0 0 0 0 0.733154 0 0 0 0 0.733154 0 0 0 0 0.733154 0 0 0 0.25 0"/>
<feBlend mode="normal" in2="BackgroundImageFix" result="effect1_dropShadow_114_629"/>
<feBlend mode="normal" in="SourceGraphic" in2="effect1_dropShadow_114_629" result="shape"/>
</filter>
<filter id="filter2_ddd_114_629" x="22" y="86.1099" width="503" height="32.8643" filterUnits="userSpaceOnUse" color-interpolation-filters="sRGB">
<feFlood flood-opacity="0" result="BackgroundImageFix"/>
<feColorMatrix in="SourceAlpha" type="matrix" values="0 0 0 0 0 0 0 0 0 0 0 0 0 0 0 0 0 0 127 0" result="hardAlpha"/>
<feOffset dy="0.428008"/>
<feGaussianBlur stdDeviation="0.428008"/>
<feColorMatrix type="matrix" values="0 0 0 0 0.0627451 0 0 0 0 0.0941176 0 0 0 0 0.156863 0 0 0 0.06 0"/>
<feBlend mode="normal" in2="BackgroundImageFix" result="effect1_dropShadow_114_629"/>
<feColorMatrix in="SourceAlpha" type="matrix" values="0 0 0 0 0 0 0 0 0 0 0 0 0 0 0 0 0 0 127 0" result="hardAlpha"/>
<feOffset dy="0.428008"/>
<feGaussianBlur stdDeviation="0.642011"/>
<feColorMatrix type="matrix" values="0 0 0 0 0.0627451 0 0 0 0 0.0941176 0 0 0 0 0.156863 0 0 0 0.1 0"/>
<feBlend mode="normal" in2="effect1_dropShadow_114_629" result="effect2_dropShadow_114_629"/>
<feColorMatrix in="SourceAlpha" type="matrix" values="0 0 0 0 0 0 0 0 0 0 0 0 0 0 0 0 0 0 127 0" result="hardAlpha"/>
<feOffset dy="2"/>
<feGaussianBlur stdDeviation="2"/>
<feComposite in2="hardAlpha" operator="out"/>
<feColorMatrix type="matrix" values="0 0 0 0 0.733154 0 0 0 0 0.733154 0 0 0 0 0.733154 0 0 0 0.25 0"/>
<feBlend mode="normal" in2="effect2_dropShadow_114_629" result="effect3_dropShadow_114_629"/>
<feBlend mode="normal" in="SourceGraphic" in2="effect3_dropShadow_114_629" result="shape"/>
</filter>
<filter id="filter3_d_114_629" x="39.4676" y="94.0251" width="3.92979" height="3.71055" filterUnits="userSpaceOnUse" color-interpolation-filters="sRGB">
<feFlood flood-opacity="0" result="BackgroundImageFix"/>
<feColorMatrix in="SourceAlpha" type="matrix" values="0 0 0 0 0 0 0 0 0 0 0 0 0 0 0 0 0 0 127 0" result="hardAlpha"/>
<feOffset dx="-0.310328" dy="0.310328"/>
<feGaussianBlur stdDeviation="0.310328"/>
<feComposite in2="hardAlpha" operator="out"/>
<feColorMatrix type="matrix" values="0 0 0 0 0 0 0 0 0 0 0 0 0 0 0 0 0 0 0.2 0"/>
<feBlend mode="normal" in2="BackgroundImageFix" result="effect1_dropShadow_114_629"/>
<feBlend mode="normal" in="SourceGraphic" in2="effect1_dropShadow_114_629" result="shape"/>
</filter>
<filter id="filter4_d_114_629" x="8" y="10" width="543" height="168" filterUnits="userSpaceOnUse" color-interpolation-filters="sRGB">
<feFlood flood-opacity="0" result="BackgroundImageFix"/>
<feColorMatrix in="SourceAlpha" type="matrix" values="0 0 0 0 0 0 0 0 0 0 0 0 0 0 0 0 0 0 127 0" result="hardAlpha"/>
<feOffset dx="-2" dy="2"/>
<feGaussianBlur stdDeviation="2"/>
<feComposite in2="hardAlpha" operator="out"/>
<feColorMatrix type="matrix" values="0 0 0 0 0.733154 0 0 0 0 0.733154 0 0 0 0 0.733154 0 0 0 0.25 0"/>
<feBlend mode="normal" in2="BackgroundImageFix" result="effect1_dropShadow_114_629"/>
<feBlend mode="normal" in="SourceGraphic" in2="effect1_dropShadow_114_629" result="shape"/>
</filter>
<filter id="filter5_d_114_629" x="22" y="22" width="519" height="94.9741" filterUnits="userSpaceOnUse" color-interpolation-filters="sRGB">
<feFlood flood-opacity="0" result="BackgroundImageFix"/>
<feColorMatrix in="SourceAlpha" type="matrix" values="0 0 0 0 0 0 0 0 0 0 0 0 0 0 0 0 0 0 127 0" result="hardAlpha"/>
<feOffset dy="2"/>
<feGaussianBlur stdDeviation="2"/>
<feComposite in2="hardAlpha" operator="out"/>
<feColorMatrix type="matrix" values="0 0 0 0 0.733154 0 0 0 0 0.733154 0 0 0 0 0.733154 0 0 0 0.25 0"/>
<feBlend mode="normal" in2="BackgroundImageFix" result="effect1_dropShadow_114_629"/>
<feBlend mode="normal" in="SourceGraphic" in2="effect1_dropShadow_114_629" result="shape"/>
</filter>
<filter id="filter6_ddd_114_629" x="30" y="77.1099" width="503" height="32.8643" filterUnits="userSpaceOnUse" color-interpolation-filters="sRGB">
<feFlood flood-opacity="0" result="BackgroundImageFix"/>
<feColorMatrix in="SourceAlpha" type="matrix" values="0 0 0 0 0 0 0 0 0 0 0 0 0 0 0 0 0 0 127 0" result="hardAlpha"/>
<feOffset dy="0.428008"/>
<feGaussianBlur stdDeviation="0.428008"/>
<feColorMatrix type="matrix" values="0 0 0 0 0.0627451 0 0 0 0 0.0941176 0 0 0 0 0.156863 0 0 0 0.06 0"/>
<feBlend mode="normal" in2="BackgroundImageFix" result="effect1_dropShadow_114_629"/>
<feColorMatrix in="SourceAlpha" type="matrix" values="0 0 0 0 0 0 0 0 0 0 0 0 0 0 0 0 0 0 127 0" result="hardAlpha"/>
<feOffset dy="0.428008"/>
<feGaussianBlur stdDeviation="0.642011"/>
<feColorMatrix type="matrix" values="0 0 0 0 0.0627451 0 0 0 0 0.0941176 0 0 0 0 0.156863 0 0 0 0.1 0"/>
<feBlend mode="normal" in2="effect1_dropShadow_114_629" result="effect2_dropShadow_114_629"/>
<feColorMatrix in="SourceAlpha" type="matrix" values="0 0 0 0 0 0 0 0 0 0 0 0 0 0 0 0 0 0 127 0" result="hardAlpha"/>
<feOffset dy="2"/>
<feGaussianBlur stdDeviation="2"/>
<feComposite in2="hardAlpha" operator="out"/>
<feColorMatrix type="matrix" values="0 0 0 0 0.733154 0 0 0 0 0.733154 0 0 0 0 0.733154 0 0 0 0.25 0"/>
<feBlend mode="normal" in2="effect2_dropShadow_114_629" result="effect3_dropShadow_114_629"/>
<feBlend mode="normal" in="SourceGraphic" in2="effect3_dropShadow_114_629" result="shape"/>
</filter>
<filter id="filter7_d_114_629" x="47.4676" y="85.0251" width="3.92979" height="3.71055" filterUnits="userSpaceOnUse" color-interpolation-filters="sRGB">
<feFlood flood-opacity="0" result="BackgroundImageFix"/>
<feColorMatrix in="SourceAlpha" type="matrix" values="0 0 0 0 0 0 0 0 0 0 0 0 0 0 0 0 0 0 127 0" result="hardAlpha"/>
<feOffset dx="-0.310328" dy="0.310328"/>
<feGaussianBlur stdDeviation="0.310328"/>
<feComposite in2="hardAlpha" operator="out"/>
<feColorMatrix type="matrix" values="0 0 0 0 0 0 0 0 0 0 0 0 0 0 0 0 0 0 0.2 0"/>
<feBlend mode="normal" in2="BackgroundImageFix" result="effect1_dropShadow_114_629"/>
<feBlend mode="normal" in="SourceGraphic" in2="effect1_dropShadow_114_629" result="shape"/>
</filter>
<filter id="filter8_d_114_629" x="17" y="0" width="543" height="168" filterUnits="userSpaceOnUse" color-interpolation-filters="sRGB">
<feFlood flood-opacity="0" result="BackgroundImageFix"/>
<feColorMatrix in="SourceAlpha" type="matrix" values="0 0 0 0 0 0 0 0 0 0 0 0 0 0 0 0 0 0 127 0" result="hardAlpha"/>
<feOffset dx="-2" dy="2"/>
<feGaussianBlur stdDeviation="2"/>
<feComposite in2="hardAlpha" operator="out"/>
<feColorMatrix type="matrix" values="0 0 0 0 0.733154 0 0 0 0 0.733154 0 0 0 0 0.733154 0 0 0 0.25 0"/>
<feBlend mode="normal" in2="BackgroundImageFix" result="effect1_dropShadow_114_629"/>
<feBlend mode="normal" in="SourceGraphic" in2="effect1_dropShadow_114_629" result="shape"/>
</filter>
<filter id="filter9_d_114_629" x="27" y="8" width="527" height="94.9741" filterUnits="userSpaceOnUse" color-interpolation-filters="sRGB">
<feFlood flood-opacity="0" result="BackgroundImageFix"/>
<feColorMatrix in="SourceAlpha" type="matrix" values="0 0 0 0 0 0 0 0 0 0 0 0 0 0 0 0 0 0 127 0" result="hardAlpha"/>
<feOffset dy="2"/>
<feGaussianBlur stdDeviation="2"/>
<feComposite in2="hardAlpha" operator="out"/>
<feColorMatrix type="matrix" values="0 0 0 0 0.733154 0 0 0 0 0.733154 0 0 0 0 0.733154 0 0 0 0.25 0"/>
<feBlend mode="normal" in2="BackgroundImageFix" result="effect1_dropShadow_114_629"/>
<feBlend mode="normal" in="SourceGraphic" in2="effect1_dropShadow_114_629" result="shape"/>
</filter>
<filter id="filter10_ddd_114_629" x="35" y="63.1099" width="511" height="32.8643" filterUnits="userSpaceOnUse" color-interpolation-filters="sRGB">
<feFlood flood-opacity="0" result="BackgroundImageFix"/>
<feColorMatrix in="SourceAlpha" type="matrix" values="0 0 0 0 0 0 0 0 0 0 0 0 0 0 0 0 0 0 127 0" result="hardAlpha"/>
<feOffset dy="0.428008"/>
<feGaussianBlur stdDeviation="0.428008"/>
<feColorMatrix type="matrix" values="0 0 0 0 0.0627451 0 0 0 0 0.0941176 0 0 0 0 0.156863 0 0 0 0.06 0"/>
<feBlend mode="normal" in2="BackgroundImageFix" result="effect1_dropShadow_114_629"/>
<feColorMatrix in="SourceAlpha" type="matrix" values="0 0 0 0 0 0 0 0 0 0 0 0 0 0 0 0 0 0 127 0" result="hardAlpha"/>
<feOffset dy="0.428008"/>
<feGaussianBlur stdDeviation="0.642011"/>
<feColorMatrix type="matrix" values="0 0 0 0 0.0627451 0 0 0 0 0.0941176 0 0 0 0 0.156863 0 0 0 0.1 0"/>
<feBlend mode="normal" in2="effect1_dropShadow_114_629" result="effect2_dropShadow_114_629"/>
<feColorMatrix in="SourceAlpha" type="matrix" values="0 0 0 0 0 0 0 0 0 0 0 0 0 0 0 0 0 0 127 0" result="hardAlpha"/>
<feOffset dy="2"/>
<feGaussianBlur stdDeviation="2"/>
<feComposite in2="hardAlpha" operator="out"/>
<feColorMatrix type="matrix" values="0 0 0 0 0.733154 0 0 0 0 0.733154 0 0 0 0 0.733154 0 0 0 0.25 0"/>
<feBlend mode="normal" in2="effect2_dropShadow_114_629" result="effect3_dropShadow_114_629"/>
<feBlend mode="normal" in="SourceGraphic" in2="effect3_dropShadow_114_629" result="shape"/>
</filter>
<filter id="filter11_d_114_629" x="52.4676" y="71.0251" width="3.92979" height="3.71055" filterUnits="userSpaceOnUse" color-interpolation-filters="sRGB">
<feFlood flood-opacity="0" result="BackgroundImageFix"/>
<feColorMatrix in="SourceAlpha" type="matrix" values="0 0 0 0 0 0 0 0 0 0 0 0 0 0 0 0 0 0 127 0" result="hardAlpha"/>
<feOffset dx="-0.310328" dy="0.310328"/>
<feGaussianBlur stdDeviation="0.310328"/>
<feComposite in2="hardAlpha" operator="out"/>
<feColorMatrix type="matrix" values="0 0 0 0 0 0 0 0 0 0 0 0 0 0 0 0 0 0 0.2 0"/>
<feBlend mode="normal" in2="BackgroundImageFix" result="effect1_dropShadow_114_629"/>
<feBlend mode="normal" in="SourceGraphic" in2="effect1_dropShadow_114_629" result="shape"/>
</filter>
<filter id="filter12_d_114_629" x="27" y="106.974" width="527" height="94.9741" filterUnits="userSpaceOnUse" color-interpolation-filters="sRGB">
<feFlood flood-opacity="0" result="BackgroundImageFix"/>
<feColorMatrix in="SourceAlpha" type="matrix" values="0 0 0 0 0 0 0 0 0 0 0 0 0 0 0 0 0 0 127 0" result="hardAlpha"/>
<feOffset dy="2"/>
<feGaussianBlur stdDeviation="2"/>
<feComposite in2="hardAlpha" operator="out"/>
<feColorMatrix type="matrix" values="0 0 0 0 0.733154 0 0 0 0 0.733154 0 0 0 0 0.733154 0 0 0 0.25 0"/>
<feBlend mode="normal" in2="BackgroundImageFix" result="effect1_dropShadow_114_629"/>
<feBlend mode="normal" in="SourceGraphic" in2="effect1_dropShadow_114_629" result="shape"/>
</filter>
<clipPath id="clip0_114_629">
<rect width="48.5635" height="12.4131" fill="white" transform="translate(32.2256 94.3354)"/>
</clipPath>
<clipPath id="clip1_114_629">
<rect width="12.4131" height="12.4131" fill="white" transform="translate(32.2256 94.3354)"/>
</clipPath>
<clipPath id="clip2_114_629">
<rect width="48.5635" height="12.4131" fill="white" transform="translate(40.2256 85.3354)"/>
</clipPath>
<clipPath id="clip3_114_629">
<rect width="12.4131" height="12.4131" fill="white" transform="translate(40.2256 85.3354)"/>
</clipPath>
<clipPath id="clip4_114_629">
<path d="M23 13C23 6.92487 27.9249 2 34 2H558V162H34C27.9249 162 23 157.075 23 151V13Z" fill="white"/>
</clipPath>
<clipPath id="clip5_114_629">
<rect width="48.5635" height="12.4131" fill="white" transform="translate(45.2256 71.3354)"/>
</clipPath>
<clipPath id="clip6_114_629">
<rect width="12.4131" height="12.4131" fill="white" transform="translate(45.2256 71.3354)"/>
</clipPath>
</defs>
</svg>
