<svg width="10" height="9" viewBox="0 0 10 9" fill="none" xmlns="http://www.w3.org/2000/svg">
<path d="M4.0575 8.25759C4.00917 8.2105 3.8025 8.03271 3.6325 7.8671C2.56333 6.89616 0.813333 4.36329 0.279167 3.03758C0.193333 2.83625 0.0116667 2.32724 0 2.05528C0 1.79469 0.06 1.54627 0.181667 1.30922C0.351667 1.01372 0.619167 0.776665 0.935 0.646774C1.15417 0.563156 1.81 0.433265 1.82167 0.433265C2.53917 0.303374 3.705 0.231934 4.99333 0.231934C6.22083 0.231934 7.33917 0.303374 8.0675 0.409722C8.07917 0.421899 8.89417 0.551791 9.17333 0.693859C9.68333 0.954453 10 1.46346 10 2.0082V2.05528C9.9875 2.41005 9.67083 3.15611 9.65917 3.15611C9.12417 4.41037 7.46 6.8848 6.35417 7.87928C6.35417 7.87928 6.07 8.15936 5.8925 8.28113C5.6375 8.4711 5.32167 8.56527 5.00583 8.56527C4.65333 8.56527 4.325 8.45892 4.0575 8.25759Z" fill="black"/>
</svg>
