<svg width="22" height="21" viewBox="0 0 22 21" fill="none" xmlns="http://www.w3.org/2000/svg">
<path d="M1.33398 10.3076C1.33398 5.82927 1.33398 3.5901 2.72523 2.19886C4.11647 0.807617 6.35564 0.807617 10.834 0.807617C15.3123 0.807617 17.5515 0.807617 18.9427 2.19886C20.334 3.5901 20.334 5.82927 20.334 10.3076C20.334 14.786 20.334 17.0251 18.9427 18.4164C17.5515 19.8076 15.3123 19.8076 10.834 19.8076C6.35564 19.8076 4.11647 19.8076 2.72523 18.4164C1.33398 17.0251 1.33398 14.786 1.33398 10.3076Z" stroke="#757575" stroke-width="1.5" stroke-linejoin="round"/>
<path d="M11.6978 6.02971L12.5777 7.80406C12.6977 8.05105 13.0177 8.28797 13.2876 8.33333L14.8825 8.6005C15.9023 8.77188 16.1423 9.51791 15.4074 10.2539L14.1675 11.504C13.9576 11.7157 13.8426 12.124 13.9076 12.4164L14.2625 13.9639C14.5425 15.1888 13.8976 15.6626 12.8227 15.0224L11.3278 14.1302C11.0579 13.9689 10.6129 13.9689 10.338 14.1302L8.84312 15.0224C7.77324 15.6626 7.12331 15.1837 7.40328 13.9639L7.75824 12.4164C7.82323 12.124 7.70824 11.7157 7.49827 11.504L6.2584 10.2539C5.52848 9.51791 5.76346 8.77188 6.78335 8.6005L8.37817 8.33333C8.64314 8.28797 8.9631 8.05105 9.08309 7.80406L9.96299 6.02971C10.4429 5.06692 11.2229 5.06692 11.6978 6.02971Z" stroke="#757575" stroke-width="1.5" stroke-linecap="round" stroke-linejoin="round"/>
</svg>
