<svg width="45" height="46" viewBox="0 0 45 46" fill="none" xmlns="http://www.w3.org/2000/svg">
<rect y="0.596191" width="45" height="45" rx="12" fill="#835AF5"/>
<path d="M22.2701 31.6522V14.5402H29.9286C31.7635 14.5402 33.1436 14.955 34.069 15.7847C34.9785 16.5984 35.4332 17.6674 35.4332 18.9917C35.4332 20.667 34.5397 21.8078 32.7527 22.4141V22.4859C33.71 22.7731 34.4759 23.2916 35.0503 24.0415C35.6406 24.7914 35.9358 25.6849 35.9358 26.722C35.9358 28.2378 35.4332 29.4265 34.428 30.288C33.3909 31.1975 31.9549 31.6522 30.1201 31.6522H22.2701ZM25.7404 23.9937V28.7803H29.7372C30.5668 28.7803 31.221 28.5728 31.6997 28.158C32.1783 27.7272 32.4176 27.1608 32.4176 26.4588C32.4176 25.677 32.1544 25.0707 31.6279 24.6399C31.1173 24.2091 30.4551 23.9937 29.6414 23.9937H25.7404ZM25.7404 21.4329H29.4978C30.2637 21.4329 30.878 21.2573 31.3407 20.9063C31.8034 20.5394 32.0347 20.0288 32.0347 19.3746C32.0347 18.7364 31.8113 18.2418 31.3646 17.8908C30.9338 17.5398 30.3355 17.3643 29.5696 17.3643H25.7404V21.4329Z" fill="white"/>
<path d="M9.06445 17.46V14.5402H22.8259V17.46H17.6803V31.6522H14.21V17.46H9.06445Z" fill="white"/>
</svg>
