<svg xmlns="http://www.w3.org/2000/svg" xmlns:xlink="http://www.w3.org/1999/xlink" version="1.1" width="256" height="256" viewBox="0 0 256 256" xml:space="preserve">
<g style="stroke: none; stroke-width: 0; stroke-dasharray: none; stroke-linecap: butt; stroke-linejoin: miter; stroke-miterlimit: 10; fill: none; fill-rule: nonzero; opacity: 1;" transform="translate(1.4065934065934016 1.4065934065934016) scale(2.81 2.81)">
	<path d="M 75.169 39.368 h -6.832 c -0.392 -5.509 -4.974 -9.859 -10.582 -9.859 c -1.252 0 -2.448 0.228 -3.563 0.626 c -3.283 -5.484 -9.262 -9.165 -16.12 -9.165 h -3.322 c -10.251 0 -18.57 8.202 -18.794 18.398 h -1.125 C 6.64 39.368 0 46.008 0 54.199 v 0 C 0 62.39 6.64 69.03 14.831 69.03 h 42.035 h 1.124 h 17.179 C 83.36 69.03 90 62.39 90 54.199 S 83.36 39.368 75.169 39.368 z" style="stroke: none; stroke-width: 1; stroke-dasharray: none; stroke-linecap: butt; stroke-linejoin: miter; stroke-miterlimit: 10; fill: rgb(198,198,198); fill-rule: nonzero; opacity: 1;" transform=" matrix(1 0 0 1 0 0) " stroke-linecap="round"/>
	<path d="M 38.417 20.985 c -0.006 -0.006 -0.009 -0.009 -0.015 -0.015 h -3.653 c -10.251 0 -18.57 8.202 -18.794 18.398 c 0 0 0 0 0 0 h -1.125 C 6.64 39.368 0 46.008 0 54.199 v 0 C 0 62.39 6.64 69.03 14.831 69.03 h 42.035 h 1.124 h 13.096 c 1.573 0 2.805 -1.462 2.41 -3.101 c -0.272 -1.129 -1.368 -1.868 -2.529 -1.868 h -9.794 h -0.934 H 25.32 c -6.804 0 -12.32 -5.516 -12.32 -12.32 v 0 c 0 -6.804 5.516 -12.32 12.32 -12.32 h 0.934 c 0 0 0 0 0 0 C 26.414 32.131 31.56 22.534 38.417 20.985" style="stroke: none; stroke-width: 1; stroke-dasharray: none; stroke-linecap: butt; stroke-linejoin: miter; stroke-miterlimit: 10; fill: rgb(153,153,153); fill-rule: nonzero; opacity: 1;" transform=" matrix(1 0 0 1 0 0) " stroke-linecap="round"/>
</g>
</svg>