<svg width="284" height="354" viewBox="0 0 284 354" fill="none" xmlns="http://www.w3.org/2000/svg">
<g clip-path="url(#clip0_562_2841)">
<mask id="mask0_562_2841" style="mask-type:luminance" maskUnits="userSpaceOnUse" x="0" y="0" width="284" height="377">
<path d="M283.615 0H0V377H283.615V0Z" fill="white"/>
</mask>
<g mask="url(#mask0_562_2841)">
<mask id="mask1_562_2841" style="mask-type:luminance" maskUnits="userSpaceOnUse" x="-49" y="0" width="381" height="379">
<path d="M-48.4336 0H331.582V378.857H-48.4336V0Z" fill="white"/>
</mask>
<g mask="url(#mask1_562_2841)">
<mask id="mask2_562_2841" style="mask-type:luminance" maskUnits="userSpaceOnUse" x="-49" y="0" width="381" height="379">
<path d="M331.582 0H-48.4337V378.857H331.582V0Z" fill="white"/>
</mask>
<g mask="url(#mask2_562_2841)">
<g opacity="0.5">
<path d="M226.932 299.799L227.977 293.231L223.305 292.499L222.261 299.067L226.932 299.799Z" fill="#0D0D80"/>
</g>
<path d="M217.568 252.165L217.938 245.945L212.797 245.645L212.427 251.865L217.568 252.165Z" fill="#FF9500"/>
<g opacity="0.5">
<path d="M232.898 221.79L232.939 218.829L227.478 218.756L227.438 221.717L232.898 221.79Z" fill="#FF9500"/>
</g>
<path d="M228.484 293.536L229.007 290.25L224.333 289.517L223.811 292.803L228.484 293.536Z" fill="#2AAC7E"/>
<g opacity="0.5">
<path d="M213.395 362.418L212.078 358.998L213.848 357.67L211.098 356.63L209.59 353.222L209.208 355.999L206.506 355.22L209.019 357.977L208.858 360.904L210.793 359.831L213.395 362.418Z" fill="#0D0D80"/>
</g>
<path d="M204.163 220.328L205.206 217.398L208.1 217.312L205.854 215.338L206.68 212.328L204.249 214.037L201.865 212.263L202.608 215.294L200.31 217.208L203.2 217.371L204.163 220.328Z" fill="#2AAC7E"/>
<g opacity="0.5">
<path d="M227.743 198.675C229.231 198.418 230.211 196.905 229.93 195.298C229.649 193.691 228.213 192.595 226.726 192.851C225.238 193.108 224.258 194.621 224.539 196.228C224.82 197.835 226.256 198.932 227.743 198.675Z" fill="#FF3B30"/>
</g>
<path d="M227.773 292.034C225.718 295.857 223.267 299.652 223.906 303.665C224.389 306.698 226.551 308.991 228.947 311.197" stroke="#FF9500" stroke-width="4.86252" stroke-linecap="round" stroke-linejoin="round"/>
<g opacity="0.5">
<path d="M224.877 255.302L225.504 250.184L219.321 249.438L218.693 254.556L224.877 255.302Z" fill="#2AAC7E"/>
</g>
<path d="M237.226 250.379L237.683 245.247L231.475 244.703L231.018 249.835L237.226 250.379Z" fill="#2AAC7E"/>
<g opacity="0.5">
<path d="M248.117 220.816L248.08 218.094L242.142 218.174L242.179 220.897L248.117 220.816Z" fill="#0D0D80"/>
</g>
<path d="M244.855 295.008L247.179 294.581L245.963 288.044L243.64 288.471L244.855 295.008Z" fill="#FF9500"/>
<path d="M223.279 219.972L224.333 217.25L227.476 217.093L224.981 215.338L225.796 212.549L223.2 214.186L220.561 212.619L221.451 215.386L219.005 217.207L222.152 217.279L223.279 219.972Z" fill="#2AAC7E"/>
<g opacity="0.5">
<path d="M191.672 238.623C193.31 238.074 194.273 236.541 193.82 235.202C193.367 233.864 191.669 233.223 190.03 233.772C188.391 234.322 187.428 235.855 187.881 237.193C188.334 238.532 190.033 239.173 191.672 238.623Z" fill="#0D0D80"/>
</g>
<path d="M270.335 355.725C272.327 355.64 273.903 354.639 273.853 353.491C273.803 352.343 272.145 351.48 270.154 351.565C268.162 351.65 266.586 352.651 266.636 353.799C266.686 354.947 268.344 355.81 270.335 355.725Z" fill="#FF9500"/>
</g>
<mask id="mask3_562_2841" style="mask-type:luminance" maskUnits="userSpaceOnUse" x="-49" y="0" width="381" height="379">
<path d="M-48.4336 0H331.582V378.857H-48.4336V0Z" fill="white"/>
</mask>
<g mask="url(#mask3_562_2841)">
<g opacity="0.5">
<path d="M41.2882 328.731L44.9976 334.681L41.2816 336.98L37.5723 331.031L41.2882 328.731Z" fill="#0D0D80"/>
</g>
<path d="M71.6454 277.359L74.1698 283.389L69.6963 285.246L67.1719 279.215L71.6454 277.359Z" fill="#FF9500"/>
<g opacity="0.5">
<path d="M54.0091 247.089L55.3545 249.883L50.6765 252.119L49.3311 249.325L54.0091 247.089Z" fill="#FF9500"/>
</g>
<path d="M61.7711 330.301L63.6263 333.276L59.9094 335.577L58.0542 332.601L61.7711 330.301Z" fill="#2AAC7E"/>
<path d="M73.9285 242.674L76.1249 245.04L78.6583 243.974L77.5957 246.738L79.64 249.266L76.7868 248.608L75.5168 251.237L74.816 248.066L71.9869 247.162L74.407 245.861L73.9285 242.674Z" fill="#2AAC7E"/>
<g opacity="0.5">
<path d="M46.0234 224.551C47.3969 224.141 48.9131 225.134 49.4069 226.768C49.9008 228.402 49.1866 230.062 47.8131 230.473C46.4396 230.884 44.9234 229.891 44.4295 228.257C43.9357 226.622 44.6499 224.962 46.0234 224.551Z" fill="#FF3B30"/>
</g>
<path d="M51.6582 336.403C49.1914 340.589 43.6935 343.457 41.347 347.799" stroke="#FF9500" stroke-width="3.89406" stroke-linecap="round" stroke-linejoin="round"/>
<g opacity="0.5">
<path d="M49.0727 282.72L47.4059 287.273L41.2609 285.044L42.9277 280.491L49.0727 282.72Z" fill="#2AAC7E"/>
</g>
<path d="M55.4331 278.804L54.0823 283.466L47.8035 281.666L49.1543 277.003L55.4331 278.804Z" fill="#2AAC7E"/>
<g opacity="0.5">
<path d="M42.0028 248.877L40.8778 251.213L35.2818 248.538L36.4067 246.202L42.0028 248.877Z" fill="#0D0D80"/>
</g>
<path d="M44.6482 330.574L45.5001 332.588L39.0301 335.303L38.1782 333.289L44.6482 330.574Z" fill="#FF9500"/>
<path d="M58.6321 243.36L58.5414 246.173L61.4569 247.688L58.3905 248.109L58.0465 250.876L56.2421 248.323L53.1139 248.518L55.0651 246.519L53.4759 243.873L56.4861 245.191L58.6321 243.36Z" fill="#2AAC7E"/>
<g opacity="0.5">
<path d="M86.4627 270.311C87.8574 271.468 88.2983 273.235 87.4465 274.256C86.5948 275.278 84.7709 275.168 83.3762 274.012C81.9815 272.856 81.5406 271.088 82.3923 270.067C83.244 269.046 85.0679 269.155 86.4627 270.311Z" fill="#0D0D80"/>
</g>
</g>
</g>
<mask id="mask4_562_2841" style="mask-type:luminance" maskUnits="userSpaceOnUse" x="24" y="42" width="225" height="335">
<path d="M24.6851 42.7144H248.224V377H24.6851V42.7144Z" fill="white"/>
</mask>
<g mask="url(#mask4_562_2841)">
<mask id="mask5_562_2841" style="mask-type:luminance" maskUnits="userSpaceOnUse" x="-41" y="5" width="374" height="372">
<path d="M-40.5137 5.57153H332.051V377H-40.5137V5.57153Z" fill="white"/>
</mask>
<g mask="url(#mask5_562_2841)">
<g opacity="0.5">
<path d="M132.924 302.493L125.481 302.164L125.671 297.963L133.113 298.292L132.924 302.493Z" fill="#0D0D80"/>
</g>
<g opacity="0.5">
<path d="M75.6995 318.659L71.9777 318.518L72.1405 314.323L75.8623 314.464L75.6995 318.659Z" fill="#FF9500"/>
</g>
<path d="M127.254 346.054L129.491 349.079L131.332 348.361L131.012 351.23L133.157 354.407L130.722 353.155L130.207 355.836L129.022 352.194L126.558 350.674L128.262 349.674L127.254 346.054Z" fill="#2AAC7E"/>
<path d="M76.4145 349.653C77.3352 349.201 78.8228 350.326 79.7342 352.165C80.6456 354.004 80.638 355.864 79.7172 356.317C78.7965 356.77 77.3089 355.645 76.3975 353.806C75.4861 351.967 75.4937 350.106 76.4145 349.653Z" fill="#FF9500"/>
<g opacity="0.5">
<path d="M46.9867 336.489L43.4339 337.588L41.2167 330.492L44.7695 329.392L46.9867 336.489Z" fill="#0D0D80"/>
</g>
<path d="M77.1205 274.353L81.3539 274.613L80.8907 282.029L76.6572 281.769L77.1205 274.353Z" fill="#2AAC7E"/>
<g opacity="0.5">
<path d="M51.3125 337.957L49.5342 338.498L47.354 331.391L49.1323 330.851L51.3125 337.957Z" fill="#0D0D80"/>
</g>
<path d="M138.561 300.599L138.024 302.646L130.816 300.773L131.354 298.726L138.561 300.599Z" fill="#FF9500"/>
</g>
</g>
<mask id="mask6_562_2841" style="mask-type:luminance" maskUnits="userSpaceOnUse" x="35" y="42" width="224" height="335">
<path d="M35.3936 42.7144H258.932V377H35.3936V42.7144Z" fill="white"/>
</mask>
<g mask="url(#mask6_562_2841)">
<mask id="mask7_562_2841" style="mask-type:luminance" maskUnits="userSpaceOnUse" x="-50" y="5" width="374" height="372">
<path d="M323.199 5.57153H-49.3652V377H323.199V5.57153Z" fill="white"/>
</mask>
<g mask="url(#mask7_562_2841)">
<g opacity="0.5">
<path d="M140.974 265.829L140.55 273.247L145.22 273.51L145.645 266.091L140.974 265.829Z" fill="#0D0D80"/>
</g>
<g opacity="0.5">
<path d="M202.114 285.492L201.895 289.201L206.554 289.471L206.772 285.761L202.114 285.492Z" fill="#FF9500"/>
</g>
<path d="M147.906 312.259L145.021 309.837L145.892 307.96L142.965 308.188L139.919 305.856L140.994 308.419L138.241 308.854L141.833 310.21L143.178 312.812L144.322 311.087L147.906 312.259Z" fill="#2AAC7E"/>
<path d="M209.283 314.08C209.814 313.146 208.793 311.568 207.005 310.558C205.216 309.549 203.333 309.488 202.802 310.422C202.271 311.356 203.292 312.934 205.08 313.944C206.868 314.953 208.752 315.014 209.283 314.08Z" fill="#FF9500"/>
<g opacity="0.5">
<path d="M230.29 292.49L228.769 288.908L221.909 291.798L223.431 295.38L230.29 292.49Z" fill="#0D0D80"/>
</g>
<path d="M196.331 239.129L197.394 243.734L204.652 242.078L203.59 237.473L196.331 239.129Z" fill="#2AAC7E"/>
<g opacity="0.5">
<path d="M222.745 295.927L221.974 294.141L215.131 297.074L215.901 298.859L222.745 295.927Z" fill="#0D0D80"/>
</g>
<path d="M146.314 273.965L147.624 272.006L141.424 267.889L140.114 269.849L146.314 273.965Z" fill="#FF9500"/>
</g>
</g>
</g>
</g>
<defs>
<clipPath id="clip0_562_2841">
<rect width="283.615" height="377" fill="white"/>
</clipPath>
</defs>
</svg>
