<svg width="15" height="15" viewBox="0 0 15 15" fill="none" xmlns="http://www.w3.org/2000/svg">
<path d="M9.81836 10.6309C9.28534 11.0458 8.58519 11.2975 7.81836 11.2975C7.05153 11.2975 6.35138 11.0458 5.81836 10.6309" stroke="#141B34" stroke-linecap="round"/>
<path d="M9.81836 10.6309C9.28534 11.0458 8.58519 11.2975 7.81836 11.2975C7.05153 11.2975 6.35138 11.0458 5.81836 10.6309" stroke="#727272" stroke-linecap="round"/>
<path d="M1.3866 8.1065C1.15126 6.57502 1.03358 5.80928 1.32312 5.13044C1.61266 4.4516 2.25503 3.98715 3.53977 3.05823L4.49967 2.36419C6.09787 1.20864 6.89697 0.630859 7.81901 0.630859C8.74105 0.630859 9.54015 1.20864 11.1383 2.36419L12.0983 3.05823C13.383 3.98715 14.0254 4.4516 14.3149 5.13044C14.6044 5.80928 14.4868 6.57502 14.2514 8.10649L14.0507 9.41245C13.7171 11.5835 13.5503 12.669 12.7717 13.3166C11.9931 13.9642 10.8548 13.9642 8.57822 13.9642H7.0598C4.78323 13.9642 3.64495 13.9642 2.86634 13.3166C2.08774 12.669 1.92092 11.5835 1.5873 9.41245L1.3866 8.1065Z" stroke="#141B34" stroke-linejoin="round"/>
<path d="M1.3866 8.1065C1.15126 6.57502 1.03358 5.80928 1.32312 5.13044C1.61266 4.4516 2.25503 3.98715 3.53977 3.05823L4.49967 2.36419C6.09787 1.20864 6.89697 0.630859 7.81901 0.630859C8.74105 0.630859 9.54015 1.20864 11.1383 2.36419L12.0983 3.05823C13.383 3.98715 14.0254 4.4516 14.3149 5.13044C14.6044 5.80928 14.4868 6.57502 14.2514 8.10649L14.0507 9.41245C13.7171 11.5835 13.5503 12.669 12.7717 13.3166C11.9931 13.9642 10.8548 13.9642 8.57822 13.9642H7.0598C4.78323 13.9642 3.64495 13.9642 2.86634 13.3166C2.08774 12.669 1.92092 11.5835 1.5873 9.41245L1.3866 8.1065Z" stroke="#727272" stroke-linejoin="round"/>
</svg>
