<svg width="17" height="17" viewBox="0 0 17 17" fill="none" xmlns="http://www.w3.org/2000/svg">
<path d="M4.84766 6.71924L4.84766 11.3859" stroke="#5F5F5F" stroke-width="1.5" stroke-linecap="round" stroke-linejoin="round"/>
<path d="M7.51367 8.71924V11.3859M7.51367 8.71924C7.51367 7.61467 8.4091 6.71924 9.51367 6.71924C10.6182 6.71924 11.5137 7.61467 11.5137 8.71924V11.3859M7.51367 8.71924V6.71924" stroke="#5F5F5F" stroke-width="1.5" stroke-linecap="round" stroke-linejoin="round"/>
<path d="M4.85169 4.71924L4.8457 4.71924" stroke="#5F5F5F" stroke-width="2" stroke-linecap="round" stroke-linejoin="round"/>
<path d="M1.84766 8.05257C1.84766 5.06701 1.84766 3.57423 2.77515 2.64673C3.70265 1.71924 5.19543 1.71924 8.18099 1.71924C11.1666 1.71924 12.6593 1.71924 13.5868 2.64673C14.5143 3.57423 14.5143 5.06701 14.5143 8.05257C14.5143 11.0381 14.5143 12.5309 13.5868 13.4584C12.6593 14.3859 11.1666 14.3859 8.18099 14.3859C5.19543 14.3859 3.70265 14.3859 2.77515 13.4584C1.84766 12.5309 1.84766 11.0381 1.84766 8.05257Z" stroke="#5F5F5F" stroke-width="1.5" stroke-linejoin="round"/>
</svg>
