<svg width="16" height="17" viewBox="0 0 16 17" fill="none" xmlns="http://www.w3.org/2000/svg">
<path d="M10 12.5469C9.95093 13.7815 8.92206 14.8298 7.54376 14.7961C7.2231 14.7882 6.82675 14.6764 6.03408 14.4529C4.12641 13.9148 2.47037 13.0104 2.07304 10.9846C2 10.6122 2 10.1931 2 9.35505L2 8.2387C2 7.40062 2 6.98157 2.07304 6.60918C2.47037 4.58331 4.12641 3.67898 6.03408 3.14089C6.82676 2.9173 7.2231 2.80551 7.54376 2.79767C8.92206 2.76395 9.95093 3.81226 10 5.04688" stroke="#757575" stroke-width="1.5" stroke-linecap="round"/>
<path d="M10 12.5469C9.95093 13.7815 8.92206 14.8298 7.54376 14.7961C7.2231 14.7882 6.82675 14.6764 6.03408 14.4529C4.12641 13.9148 2.47037 13.0104 2.07304 10.9846C2 10.6122 2 10.1931 2 9.35505L2 8.2387C2 7.40062 2 6.98157 2.07304 6.60918C2.47037 4.58331 4.12641 3.67898 6.03408 3.14089C6.82676 2.9173 7.2231 2.80551 7.54376 2.79767C8.92206 2.76395 9.95093 3.81226 10 5.04688" stroke="#09090B" stroke-width="1.5" stroke-linecap="round"/>
<path d="M10 12.5469C9.95093 13.7815 8.92206 14.8298 7.54376 14.7961C7.2231 14.7882 6.82675 14.6764 6.03408 14.4529C4.12641 13.9148 2.47037 13.0104 2.07304 10.9846C2 10.6122 2 10.1931 2 9.35505L2 8.2387C2 7.40062 2 6.98157 2.07304 6.60918C2.47037 4.58331 4.12641 3.67898 6.03408 3.14089C6.82676 2.9173 7.2231 2.80551 7.54376 2.79767C8.92206 2.76395 9.95093 3.81226 10 5.04688" stroke="#FD3B31" stroke-width="1.5" stroke-linecap="round"/>
<path d="M13.9993 8.79704H6.66602M13.9993 8.79704C13.9993 8.33022 12.6698 7.45806 12.3327 7.13037M13.9993 8.79704C13.9993 9.26386 12.6698 10.136 12.3327 10.4637" stroke="#757575" stroke-width="1.5" stroke-linecap="round" stroke-linejoin="round"/>
<path d="M13.9993 8.79704H6.66602M13.9993 8.79704C13.9993 8.33022 12.6698 7.45806 12.3327 7.13037M13.9993 8.79704C13.9993 9.26386 12.6698 10.136 12.3327 10.4637" stroke="#09090B" stroke-width="1.5" stroke-linecap="round" stroke-linejoin="round"/>
<path d="M13.9993 8.79704H6.66602M13.9993 8.79704C13.9993 8.33022 12.6698 7.45806 12.3327 7.13037M13.9993 8.79704C13.9993 9.26386 12.6698 10.136 12.3327 10.4637" stroke="#FD3B31" stroke-width="1.5" stroke-linecap="round" stroke-linejoin="round"/>
</svg>
