<svg width="24" height="25" viewBox="0 0 24 25" fill="none" xmlns="http://www.w3.org/2000/svg">
<path d="M2 12.8076C2 8.80068 2 6.79721 3.17157 5.55241C4.34315 4.30762 6.22876 4.30762 10 4.30762L14 4.30762C17.7712 4.30762 19.6569 4.30762 20.8284 5.55241C22 6.79721 22 8.80068 22 12.8076C22 16.8146 22 18.818 20.8284 20.0628C19.6569 21.3076 17.7712 21.3076 14 21.3076H10C6.22876 21.3076 4.34315 21.3076 3.17157 20.0628C2 18.818 2 16.8146 2 12.8076Z" stroke="#727272" stroke-width="1.5"/>
<path d="M6.8881 11.639C7.82668 11.0907 8.64587 11.3117 9.13798 11.6636C9.33975 11.8079 9.44064 11.8801 9.5 11.8801C9.55936 11.8801 9.66025 11.8079 9.86202 11.6636C10.3541 11.3117 11.1733 11.0907 12.1119 11.639C13.3437 12.3586 13.6224 14.7326 10.7812 16.7354C10.24 17.1169 9.96942 17.3076 9.5 17.3076C9.03058 17.3076 8.76 17.1169 8.21884 16.7354C5.3776 14.7326 5.65632 12.3586 6.8881 11.639Z" stroke="#727272" stroke-width="1.5" stroke-linecap="round"/>
<path d="M18 17.3076H15" stroke="#727272" stroke-width="1.5" stroke-linecap="round" stroke-linejoin="round"/>
</svg>
