<svg width="20" height="22" viewBox="0 0 20 22" fill="none" xmlns="http://www.w3.org/2000/svg">
<path d="M10.5766 19.3076C10.8103 19.3076 11.0002 19.4968 11.0004 19.7305C11.0004 19.7812 10.9911 19.8319 10.9721 19.8789C10.5148 21.0065 9.35678 21.8075 8.00042 21.8076C6.6439 21.8076 5.48514 21.0066 5.02776 19.8789C5.00876 19.832 5.00042 19.7811 5.00042 19.7305C5.00063 19.4969 5.18964 19.3078 5.42327 19.3076H10.5766ZM8.00042 1.80762C9.25377 1.80782 10.2697 2.8238 10.27 4.07715V4.18164C10.2901 4.18853 10.3105 4.19508 10.3305 4.20215C9.80764 4.93734 9.50042 5.83675 9.50042 6.80762C9.50055 9.29279 11.5152 11.3076 14.0004 11.3076C14.1771 11.3076 14.3515 11.2972 14.5229 11.2773L14.6869 12.7227C14.7675 13.4323 15.0666 14.1092 15.5522 14.6797C16.6492 15.9684 15.6052 17.8076 13.7768 17.8076H2.22308C0.394717 17.8076 -0.649281 15.9684 0.447685 14.6797C0.93334 14.1092 1.23238 13.4323 1.31292 12.7227L1.76019 8.7832C2.00131 6.65874 3.58766 4.91523 5.72991 4.18164V4.07715C5.73014 2.82368 6.7469 1.80762 8.00042 1.80762Z" fill="#4C4958"/>
<rect x="8" y="0.807617" width="11" height="11" rx="5.5" fill="#EB5757"/>
<rect x="8" y="0.807617" width="11" height="11" rx="5.5" stroke="#F8F8F8" stroke-width="1.49708"/>
</svg>
