<svg width="25" height="25" viewBox="0 0 25 25" fill="none" xmlns="http://www.w3.org/2000/svg">
<path d="M12.666 2.80762C18.1897 2.80762 22.666 7.2854 22.666 12.8076C22.666 18.3298 18.1897 22.8076 12.666 22.8076" stroke="#727272" stroke-width="1.5" stroke-linecap="round" stroke-linejoin="round"/>
<path d="M9.66602 22.3076C8.47765 21.9029 7.36133 21.3183 6.38903 20.5538M6.38903 5.06146C7.36133 4.30821 8.47765 3.71235 9.66602 3.30762M2.66602 11.0537C2.88208 9.89575 3.3262 8.77148 3.9624 7.7484M2.66602 14.5615C2.88208 15.7195 3.3262 16.8438 3.9624 17.8668" stroke="#727272" stroke-width="1.5" stroke-linecap="round" stroke-linejoin="round"/>
<path d="M8.66602 17.3076C10.7386 15.1097 14.5711 15.0062 16.666 17.3076M14.8839 10.5576C14.8839 11.8003 13.8875 12.8076 12.6585 12.8076C11.4294 12.8076 10.4331 11.8003 10.4331 10.5576C10.4331 9.31498 11.4294 8.30762 12.6585 8.30762C13.8875 8.30762 14.8839 9.31498 14.8839 10.5576Z" stroke="#727272" stroke-width="1.5" stroke-linecap="round"/>
</svg>
