<svg width="16" height="17" viewBox="0 0 16 17" fill="none" xmlns="http://www.w3.org/2000/svg">
<path d="M1.66602 8.79671C1.66602 5.81115 1.66602 4.31837 2.59351 3.39087C3.52101 2.46338 5.01379 2.46338 7.99935 2.46338C10.9849 2.46338 12.4777 2.46338 13.4052 3.39087C14.3327 4.31837 14.3327 5.81115 14.3327 8.79671C14.3327 11.7823 14.3327 13.2751 13.4052 14.2026C12.4777 15.13 10.9849 15.13 7.99935 15.13C5.01379 15.13 3.52101 15.13 2.59351 14.2026C1.66602 13.2751 1.66602 11.7823 1.66602 8.79671Z" stroke="#141B34" stroke-width="1.5"/>
<path d="M5 12.13C6.55447 10.5019 9.42882 10.4253 11 12.13M9.6634 7.13005C9.6634 8.05052 8.91614 8.79671 7.99435 8.79671C7.07257 8.79671 6.32531 8.05052 6.32531 7.13005C6.32531 6.20957 7.07257 5.46338 7.99435 5.46338C8.91614 5.46338 9.6634 6.20957 9.6634 7.13005Z" stroke="#141B34" stroke-width="1.5" stroke-linecap="round"/>
</svg>
