<svg width="32" height="30" viewBox="0 0 32 30" fill="none" xmlns="http://www.w3.org/2000/svg">
<g filter="url(#filter0_d_117_337)">
<rect x="4.5" y="0.5" width="23" height="21" rx="2" fill="#141B34" shape-rendering="crispEdges"/>
<rect x="5" y="1" width="22" height="20" rx="1.5" stroke="#141B34" shape-rendering="crispEdges"/>
<path d="M22.5401 13.7469C22.5401 11.4713 20.7832 9.62658 18.616 9.62658C16.4488 9.62658 14.6919 11.4713 14.6919 13.7469C14.6919 16.0225 16.4488 17.8672 18.616 17.8672C20.7832 17.8672 22.5401 16.0225 22.5401 13.7469Z" stroke="white" stroke-width="0.981024"/>
<path d="M17.3081 14.2048C17.3081 14.2048 17.7169 14.2048 18.1256 15.1204C18.1256 15.1204 19.424 12.8313 20.5782 12.3735" stroke="white" stroke-width="0.981024" stroke-linecap="round" stroke-linejoin="round"/>
<path d="M10.4409 10.724L10.6951 10.3045L10.6951 10.3045L10.4409 10.724ZM9.7227 9.96991L9.29288 10.2062L9.29288 10.2062L9.7227 9.96991ZM21.5591 4.40882L21.3049 4.82828L21.3049 4.82828L21.5591 4.40882ZM22.2773 5.16289L22.7071 4.92655L22.7071 4.92655L22.2773 5.16289ZM10.4409 4.40882L10.6951 4.82828H10.6951L10.4409 4.40882ZM9.7227 5.16289L10.1525 5.39923H10.1525L9.7227 5.16289ZM22.0157 9.06081C21.9904 9.33054 22.1887 9.56964 22.4584 9.59485C22.7281 9.62007 22.9672 9.42186 22.9924 9.15213L22.0157 9.06081ZM13.3418 11.4905C13.6127 11.4905 13.8323 11.2709 13.8323 11C13.8323 10.7291 13.6127 10.5095 13.3418 10.5095V11.4905ZM12.7299 4.62332H19.2701V3.6423H12.7299V4.62332ZM12.7299 10.5095C12.1092 10.5095 11.6781 10.509 11.3442 10.4772C11.0179 10.4461 10.8339 10.3887 10.6951 10.3045L10.1866 11.1434C10.5031 11.3353 10.8524 11.4158 11.2512 11.4538C11.6424 11.491 12.1281 11.4905 12.7299 11.4905V10.5095ZM8.96933 7.5664C8.96933 8.19961 8.9689 8.70576 9.004 9.11242C9.03961 9.52497 9.11461 9.88204 9.29288 10.2062L10.1525 9.73357C10.0679 9.57972 10.0115 9.37684 9.98139 9.02806C9.95078 8.67339 9.95035 8.21682 9.95035 7.5664H8.96933ZM10.6951 10.3045C10.4723 10.1694 10.2844 9.97332 10.1525 9.73357L9.29288 10.2062C9.50546 10.5929 9.81288 10.9169 10.1866 11.1434L10.6951 10.3045ZM19.2701 4.62332C19.8908 4.62332 20.3219 4.62384 20.6558 4.65562C20.9821 4.68666 21.1661 4.74414 21.3049 4.82828L21.8134 3.98936C21.4969 3.79749 21.1476 3.71697 20.7488 3.67901C20.3576 3.64178 19.8719 3.6423 19.2701 3.6423V4.62332ZM23.0307 7.5664C23.0307 6.93318 23.0311 6.42703 22.996 6.02037C22.9604 5.60782 22.8854 5.25076 22.7071 4.92655L21.8475 5.39923C21.9321 5.55308 21.9885 5.75595 22.0186 6.10474C22.0492 6.45941 22.0496 6.91598 22.0496 7.5664H23.0307ZM21.3049 4.82828C21.5277 4.96336 21.7156 5.15947 21.8475 5.39923L22.7071 4.92655C22.4945 4.53994 22.1871 4.21591 21.8134 3.98936L21.3049 4.82828ZM12.7299 3.6423C12.1281 3.6423 11.6424 3.64178 11.2512 3.67901C10.8524 3.71697 10.5031 3.79749 10.1866 3.98936L10.6951 4.82828C10.8339 4.74414 11.0179 4.68666 11.3442 4.65562C11.6781 4.62384 12.1092 4.62332 12.7299 4.62332V3.6423ZM9.95035 7.5664C9.95035 6.91598 9.95078 6.45941 9.98139 6.10474C10.0115 5.75595 10.0679 5.55308 10.1525 5.39923L9.29288 4.92655C9.11461 5.25076 9.03961 5.60782 9.004 6.02037C8.9689 6.42703 8.96933 6.93318 8.96933 7.5664H9.95035ZM10.1866 3.98936C9.81288 4.21591 9.50546 4.53994 9.29288 4.92655L10.1525 5.39923C10.2844 5.15947 10.4723 4.96336 10.6951 4.82828L10.1866 3.98936ZM22.0496 7.5664C22.0496 8.23822 22.0491 8.70272 22.0157 9.06081L22.9924 9.15213C23.0312 8.73771 23.0307 8.21928 23.0307 7.5664H22.0496ZM13.3418 10.5095H12.7299V11.4905H13.3418V10.5095Z" fill="white"/>
<path d="M19.2701 7.56641H19.276" stroke="white" stroke-width="1.30803" stroke-linecap="round" stroke-linejoin="round"/>
<path d="M16 7.56641H16.0059" stroke="white" stroke-width="1.30803" stroke-linecap="round" stroke-linejoin="round"/>
<path d="M12.7299 7.56641H12.7357" stroke="white" stroke-width="1.30803" stroke-linecap="round" stroke-linejoin="round"/>
</g>
<defs>
<filter id="filter0_d_117_337" x="0.5" y="0.5" width="31" height="29" filterUnits="userSpaceOnUse" color-interpolation-filters="sRGB">
<feFlood flood-opacity="0" result="BackgroundImageFix"/>
<feColorMatrix in="SourceAlpha" type="matrix" values="0 0 0 0 0 0 0 0 0 0 0 0 0 0 0 0 0 0 127 0" result="hardAlpha"/>
<feOffset dy="4"/>
<feGaussianBlur stdDeviation="2"/>
<feComposite in2="hardAlpha" operator="out"/>
<feColorMatrix type="matrix" values="0 0 0 0 0.390343 0 0 0 0 0.390343 0 0 0 0 0.390343 0 0 0 0.25 0"/>
<feBlend mode="normal" in2="BackgroundImageFix" result="effect1_dropShadow_117_337"/>
<feBlend mode="normal" in="SourceGraphic" in2="effect1_dropShadow_117_337" result="shape"/>
</filter>
</defs>
</svg>
